<svg xmlns="http://www.w3.org/2000/svg" viewBox="0 0 1080 1080"><defs><style>.cls-1{fill:#93525a;}.cls-2{fill:#58425e;}.cls-3{fill:#d48e00;}.cls-4{fill:#76434c;}</style></defs><g id="contorno_cobra" data-name="contorno cobra"><path class="cls-1" d="M235.8,253.52a42.29,42.29,0,0,1-8.8,21,52.52,52.52,0,0,1-18.39,15.1,51.19,51.19,0,0,1-23.2,5.5c-.41,0-.94,0-1.61.1a9.57,9.57,0,0,1-2.39-.1,38.46,38.46,0,0,1,.09,4.8c-.06,1.6-.09,3.07-.09,4.4v40.6l-2.2.2q-5.4,1.61-18.8,1.6a155.83,155.83,0,0,1-18.41-1q-.8-19.39-.79-67.4v-24.2q0-32.6-.6-47.4a116.71,116.71,0,0,1,32.19-4.4q25.8,0,43.91,10.9T236,247.92v.2A47.94,47.94,0,0,1,235.8,253.52Zm-46.39-18a43.38,43.38,0,0,0-7.7-.9c-2.6-.06-4.57-.1-5.91-.1.14,2.14.2,5.74.2,10.8v1.8c0,4,.11,7.3.3,9.9a28.69,28.69,0,0,0,1.31,6.9h8.69a22.9,22.9,0,0,0,7.81-1.2,10,10,0,0,0,5.1-4,15.09,15.09,0,0,0,2-7.8,17.13,17.13,0,0,0-3.21-10l-1.59-1.8A15.52,15.52,0,0,0,189.41,235.52Z"/><path class="cls-1" d="M256.8,346.92q-3,0-8.2.4l-8.4.2a81.47,81.47,0,0,1-9.2-.6q4.8-14.4,18.4-49.6l8.2-20.8a130.14,130.14,0,0,0-5-15.7q-3-7.69-7.6-18.3-5.4-13.4-8.1-20.6a140.93,140.93,0,0,1-4.7-15.2,83.91,83.91,0,0,0,11.8-.6,85.49,85.49,0,0,1,9.4-.8,23.34,23.34,0,0,1,11.6,2.6q1.8,7.41,5.5,18.4t7.1,19.6q1-2,6.4-18.2,6-18,6.8-19.6a111.5,111.5,0,0,1,21.8-2.2,74.6,74.6,0,0,1,11.6.8,268.14,268.14,0,0,1-11.8,34.7q-7,16.71-19,41.9-9.6,19.6-16,34.3T266,347.52A74.16,74.16,0,0,0,256.8,346.92Z"/><path class="cls-1" d="M411,218.92a139.59,139.59,0,0,1-1.4,20.8,61.83,61.83,0,0,0-10.4-1.2l-9.4-.2c-3.47,0-5.2.2-5.2.6a105.73,105.73,0,0,0-.4,11.8q0,17.61,1.4,94.8a80.7,80.7,0,0,1-13.6,1h-5.8a112.56,112.56,0,0,0-18.4,1.4,11.24,11.24,0,0,1-.9-4.1,33.4,33.4,0,0,1-.1-5.7v-9.8l.2-18q0-36.39-1.6-71a15.51,15.51,0,0,0-6.2-1l-8,.2q-6.79,0-9.8-1-.6-1.2-1-6.6t-.4-12.2q0-10,.2-14.4h8.6l7.8-.2h11.2l11.6-.2q29.81,0,48.6,2.2h2.6Q411,212.93,411,218.92Z"/><path class="cls-1" d="M506.6,345.52a133.93,133.93,0,0,1-21.6,1.4q-6.79,0-12.4.4-1.2-8.6-1.8-30.4a213.86,213.86,0,0,0-1.8-25.8l-7.6-.4a40.44,40.44,0,0,0-9.2.8,107.26,107.26,0,0,0-.6,11q0,9,.2,13.4v5.2l.2,5.2a122.72,122.72,0,0,1-1,18.2,22.38,22.38,0,0,1-11.2,2.6q-3.19,0-8-.4l-1.8-.2c-2.4-.26-4-.4-4.8-.4l-6.4.4q-1.4-18-2.8-54.2t-1.4-64.4q0-16,.2-22.4l22.6-.4a29.7,29.7,0,0,1,9.4,1.4q1,8.61,1.4,19.8l.2,4.8q.41,8.81,1,14.7t2,12.9l7.6.8a18.7,18.7,0,0,0,3.9-.4c1.27-.26,2.5-.46,3.7-.6h.4q1.39-15.19,1.4-29.4,0-10.4-.6-22.4a67.63,67.63,0,0,1,11.2-2.2,107.12,107.12,0,0,1,12.8-.8c3.6,0,6.73.14,9.4.4Z"/><path class="cls-1" d="M603.8,252.72l-.2,3.6v3.6q-.4,6.6-.4,19.4,0,14.21-.6,21.6l-.6,6.6q-1,16.2-8.2,27.6a25.52,25.52,0,0,1-9,7.4,64.25,64.25,0,0,1-13.2,5.2,61.2,61.2,0,0,1-17.4,2.2c-3.07,0-5.2-.06-6.4-.2a52.06,52.06,0,0,1-17.5-4.3,23.08,23.08,0,0,1-11.3-10.3q-4.8-9-5.2-22.6l-.4-6.4q-.2-1.59-.2-6.6-1-16.39-1-31.4,0-9.19.6-18.4a84,84,0,0,1,3.5-19.5,47.34,47.34,0,0,1,8.9-16.7l4.4-2.4a63.39,63.39,0,0,1,28-6.2,64.1,64.1,0,0,1,18.1,2.5,46.46,46.46,0,0,1,14.9,7.3q7,6.41,9.2,12.6a65.39,65.39,0,0,1,3.4,12.8Q603.8,246.33,603.8,252.72Zm-31.6,9.2-.8-10.4a24.58,24.58,0,0,0-2.7-9.9,13.79,13.79,0,0,0-5.9-6.1,9.06,9.06,0,0,0-3.2-.6,16.33,16.33,0,0,0-9.4,3.2,23.72,23.72,0,0,0-4.7,5.7,32.92,32.92,0,0,0-3.5,7.5,104,104,0,0,0-2,22.4q0,6.81.2,10.2v-.2a82.65,82.65,0,0,1,1.2,10.6l.2,2.8a80.21,80.21,0,0,0,2.2,14.8v-.2a13.22,13.22,0,0,0,5.3,6.1,14.31,14.31,0,0,0,7.5,2.1,15.64,15.64,0,0,0,6.5-1.5,16.29,16.29,0,0,0,5.7-4.3,14.09,14.09,0,0,0,2.5-4.4,22.9,22.9,0,0,0,.5-5.6,45.59,45.59,0,0,1,.2-5l.2-2.6.2-3.8v-2.8l.2-3.8v-9.6l-.4-13.6Z"/><path class="cls-1" d="M662,329.32q-12.6-27.6-16.6-38.2v38.4q0,12.41.2,17a41.31,41.31,0,0,1-11.8,1.6q-2,0-6-.4-4.41-.41-6.4-.4l-9.8-.4v-15q0-12.8-.4-36.4-.21-11.79-.2-35.8,0-32.19,1.8-54a48,48,0,0,1,12-1.4,87.8,87.8,0,0,1,10.7.8q6.3.81,8.7,2.4,2.79,5.21,6.9,14.5t7.9,18.5l8,18.4q-.4-14-.4-33,0-15.39.2-21.2a91.2,91.2,0,0,1,17.4-1.6,77.28,77.28,0,0,1,16.2,1.8v141.8a9.82,9.82,0,0,0-2.4.6c-1.34.54-3.67.8-7,.8-.67.14-4.2-.07-10.6-.6-1.6-.13-3.64-.26-6.1-.4a20.68,20.68,0,0,0-4.3,0Z"/><path class="cls-2" d="M838.39,295.22a29.12,29.12,0,0,1,3.6,14.7,50,50,0,0,1-.6,7.4q-3.2,17.81-16.6,24.3t-34.4,6.5q-6.2,0-38.8-2.4-.6-15-.6-48,0-35.79.2-64.6v-26a123.7,123.7,0,0,1,33.8-5q22.6,0,37.1,9.9t14.5,32.5q0,14.61-10.2,31.8v-.2a3.08,3.08,0,0,0-.4,1.2q0,.6,1.2,1.8v.2A135.56,135.56,0,0,1,838.39,295.22Zm-34.6,3.3v.2a13.73,13.73,0,0,0-2.8-4,7.57,7.57,0,0,0-3.6-2.2,57.26,57.26,0,0,0-9.4-1.2,10.4,10.4,0,0,0-1.3.1,3.7,3.7,0,0,1-1.5-.1,64.5,64.5,0,0,0-2,14.6q0,7.2,2.2,11.2a59.87,59.87,0,0,0,11.3-.5,11.13,11.13,0,0,0,6.9-4.1q1.39-2,1.4-6.6A25.94,25.94,0,0,0,803.79,298.52Zm-6.4-60.8a44.46,44.46,0,0,0-5-.4,55.79,55.79,0,0,1-7.8-1,65.52,65.52,0,0,1,.6,10.4v7.2q0,5,.2,7.8h5.8q8.8,0,12-6,2.59-4.8,2.6-7.8a7.55,7.55,0,0,0-.8-3.4Q802,238.93,797.39,237.72Z"/><path class="cls-2" d="M939.69,329.52a109.12,109.12,0,0,1,8.1,17h-3.2c-1.6,0-5.2.14-10.8.4s-10.07.4-13.4.4q-2.8,0-8.4-.4l-3.4-.2q-13-29.6-23.2-44.4v5.2q0,12.41,1.4,32v-.2a39.91,39.91,0,0,1,.2,4.8q-6.79,3.21-22.4,3.2l-4.8-.2h-10.6q-2.21,0-2.2-36.2,0-32.79-.6-65.7t-1.8-39.5l5.4-.8q12-1.59,19.8-2.4a157.68,157.68,0,0,1,16-.8,120.18,120.18,0,0,1,15,.8,50.3,50.3,0,0,1,21.7,8,53.7,53.7,0,0,1,16.2,16.2,36.43,36.43,0,0,1,6.1,19.8q0,9.81-6.4,21.4a36.71,36.71,0,0,1-10.6,12,32.21,32.21,0,0,1-15.8,5.8q5.4,9.6,12.6,20a17.4,17.4,0,0,0,2.2,3.2Q934.79,321.13,939.69,329.52Zm-37.3-75.6a16.74,16.74,0,0,0,1.6-7.6q0-8.19-4-10.6a14.14,14.14,0,0,0-5.3-2,42.85,42.85,0,0,0-6.1-.4l-8.6,1.4q.4,6,.4,10.2,0,10.8.6,13.2a73.06,73.06,0,0,0,8.4.4,58.05,58.05,0,0,0,8.6-.6A7.12,7.12,0,0,0,902.39,253.92Z"/><path class="cls-3" d="M227.66,872.84q-1.22,0-5.73.15t-22.33.46q-.61-16.31-.61-28.67l-2.11-66.39-3.62,6.94a102.15,102.15,0,0,1-7.09,11.46c-1.72,2.22-3.58,3.32-5.59,3.32q-6.63-.29-15.69-21.72a62.71,62.71,0,0,0-.15,7.84q.15,4.83.15,7.55v7.54q0,29.28,2.72,70.62a164.26,164.26,0,0,1-26.26,2.11l-20.52-.6h-4.22a3.15,3.15,0,0,1-1.21-.15c-.2-.11-.3-.36-.3-.76l-.31-3.32q-.6-11.46-.6-47.08,0-41.64.91-157.53a49.19,49.19,0,0,1,9.5-2.11,128.69,128.69,0,0,1,14.34-.6l14.79.3q6.63,0,10-.3a44.3,44.3,0,0,1,6.94,11.47q3,6.95,11.17,28.36.3-.6,2-6t14-35.31a47.43,47.43,0,0,0,10.27.91q4.81,0,16.29-.61l25.35-.6-1.21,214.26A134.58,134.58,0,0,0,227.66,872.84Z"/><path class="cls-3" d="M373.42,875a140.83,140.83,0,0,1-29-3.32q-2.11-5.73-6.64-24.15-4.53-18.71-7.24-24.74l-6-.3-5.13.3q-1.22,3.62-3.92,17.8-2.12,11.78-4.23,19.17a49.63,49.63,0,0,1-6,13.43,50.39,50.39,0,0,1-9.06.6q-2.71,0-11.77-.6-26.25-1.21-29.27-1.21,0-1.52.6-7.09t1.82-12.53l6.64-38q7.83-46.77,14.93-81.48t18.56-73.34a85.8,85.8,0,0,1,11.47-.6H311q19.62,0,38.33-1.51,3.62,14.19,6.64,27.92t5.43,24.59q9.64,42,13,55.83l19.91,107.13A97.26,97.26,0,0,1,373.42,875Zm-48.59-151.2-.3-3-.6,7.24q-.92,22.63-2.72,35.91l-2.71,20.22h12.67Q324.52,723.76,324.83,723.76Z"/><path class="cls-3" d="M472.7,846.59q-19-41.65-25-57.64v57.94q0,18.72.3,25.65A62.51,62.51,0,0,1,430.15,875c-2,0-5-.21-9-.61q-6.64-.6-9.66-.6l-14.79-.6V850.51q0-19.31-.6-54.92-.3-17.8-.3-54,0-48.59,2.71-81.48A72.14,72.14,0,0,1,416.57,658a132.37,132.37,0,0,1,16.15,1.2q9.5,1.22,13.12,3.62,4.23,7.86,10.42,21.88t11.92,27.92l12.07,27.76q-.62-21.12-.61-49.79,0-23.24.3-32a136.93,136.93,0,0,1,26.26-2.42,116.77,116.77,0,0,1,24.45,2.72v214a15,15,0,0,0-3.63.91c-2,.8-5.53,1.21-10.56,1.21q-1.51.28-16-.91c-2.42-.2-5.49-.41-9.21-.6s-5.88-.21-6.49,0Z"/><path class="cls-3" d="M654.67,875a140.91,140.91,0,0,1-29-3.32q-2.12-5.73-6.64-24.15-4.51-18.71-7.24-24.74l-6-.3-5.14.3q-1.2,3.62-3.92,17.8-2.12,11.78-4.22,19.17a49.65,49.65,0,0,1-6,13.43,50.26,50.26,0,0,1-9.05.6q-2.71,0-11.77-.6-26.25-1.21-29.27-1.21,0-1.52.6-7.09t1.81-12.53l6.64-38q7.85-46.77,14.94-81.48t18.56-73.34a85.64,85.64,0,0,1,11.46-.6h1.82q19.6,0,38.32-1.51,3.63,14.19,6.64,27.92t5.43,24.59q9.66,42,13,55.83L675.5,872.84A97.35,97.35,0,0,1,654.67,875Zm-48.58-151.2-.3-3-.61,7.24q-.9,22.63-2.71,35.91l-2.72,20.22h12.67Q605.79,723.76,606.09,723.76Z"/><path class="cls-3" d="M815.22,728.29a892.27,892.27,0,0,1-5.13,98.38q-2.42,20.82-16.75,34.86t-37,16.14h.31a91.56,91.56,0,0,1-10,.61,104.47,104.47,0,0,1-34.1-5.59,65,65,0,0,1-27-17.05q-10.73-11.46-11.32-28.06,0-22,.6-66.09l.31-19.62q.6-32,.6-47.38,0-19.92-.3-29.27H683l18.11-.61a91.47,91.47,0,0,1,26,3.32q-1.2,33.81-1.21,51.91,0,43.76,3.93,96.87v-.3a19.21,19.21,0,0,0,5.43,9.2,11.67,11.67,0,0,0,7.85,3.17,13.12,13.12,0,0,0,9-3.92,19.82,19.82,0,0,0,5.73-10v.3q1.22-27.75,1.81-87.81l.31-19.32q0-14.49.6-39.83l6.34-.91a96.74,96.74,0,0,0,11.47-.91q12.36-1.2,14.78-.9,13,0,18.11,3h2.41Q815.23,700.84,815.22,728.29Z"/><path class="cls-3" d="M935.33,732.51a91.44,91.44,0,0,1-26-3.31A25.51,25.51,0,0,0,910,725a14.63,14.63,0,0,0-5.13-11.47A16.88,16.88,0,0,0,893.38,709a12.19,12.19,0,0,0-8,2.86q-3.46,2.88-4.07,8.6a15.68,15.68,0,0,0-.91,4.83l.31,2.72v.6c1.4,4.23,3.47,7.15,6.18,8.75a27.29,27.29,0,0,0,9.81,3.32q15.09,2.12,30.48,11.17T951.93,773A66.64,66.64,0,0,1,961,790.31a56.14,56.14,0,0,1,3.32,18.56,71.09,71.09,0,0,1-6.94,30.48,57.58,57.58,0,0,1-24.14,26.25A70.28,70.28,0,0,1,897.61,875a98.79,98.79,0,0,1-38.18-7.7q-18.55-7.69-30-22.18t-10.26-33.5v-2.71a113.67,113.67,0,0,1,19.32-1.51q9,0,15.39.3,5.73.3,20.52.3.3,9.06,5.58,14.18a17,17,0,0,0,12.22,5.14,14,14,0,0,0,10.11-3.93c2.72-2.61,4.08-6.34,4.08-11.16a23.93,23.93,0,0,0-.3-4.23q-1.51-11.16-10.57-15.69t-24.44-7.55l-4.53-.9a48.06,48.06,0,0,1-22.63-10.56,74.11,74.11,0,0,1-16.3-22.64,58.38,58.38,0,0,1-5.43-24.14q0-19.62,11.92-37A68.73,68.73,0,0,1,865,664.31q11.78-4.81,29.28-4.83a99.35,99.35,0,0,1,41.34,8.45,59.91,59.91,0,0,1,22,19q8.15,11.76,8.15,27.76A88.59,88.59,0,0,1,964,730.4h-3.62A152,152,0,0,1,935.33,732.51Z"/><path class="cls-4" d="M142.34,600H259.5v-6c0-3.63.72-6.23,2.18-7.81a7.32,7.32,0,0,1,5.63-2.36,7.13,7.13,0,0,1,5.45,2.36q2.17,2.37,2.18,7.81v21.25H127.44V592.76q46.5-41.78,90.46-85,20.52-20.16,28.16-29.61t10.44-16.62a39.16,39.16,0,0,0,2.82-14.44q0-19.62-15.81-34.69t-38.14-15.08A57.91,57.91,0,0,0,170,408.76q-15.45,11.44-20,28.33-1.09,4.37-2.73,5.63a7.7,7.7,0,0,1-5.08,1.82,7,7,0,0,1-5.18-2.09,6.82,6.82,0,0,1-2.09-5q0-8.73,9.54-23.62a66,66,0,0,1,26.34-23.43,75.17,75.17,0,0,1,34.42-8.54,68.16,68.16,0,0,1,49,19.8q20.52,19.8,20.53,44.87a52.59,52.59,0,0,1-3.46,19.34q-3.45,8.82-11.71,19.26t-29.7,31.51q-53.76,53-87.55,82.29Z"/><path class="cls-4" d="M501.26,482.5v37.78q0,49.23-23.43,77.93-18.34,22.51-46.32,22.52a61,61,0,0,1-25.34-5.36,57.93,57.93,0,0,1-20.25-15q-5.26-6-11.53-19.26a130.77,130.77,0,0,1-9-24.34q-4.17-15.62-4.17-36.51V482.5q0-49.39,23.43-78.1Q403,381.87,431,381.87a60.88,60.88,0,0,1,25.43,5.36,58.17,58.17,0,0,1,20.16,15q5.44,6.18,11.62,19.43a149.32,149.32,0,0,1,9.09,24.16Q501.26,461.44,501.26,482.5Zm-15.26,2a128.66,128.66,0,0,0-6.08-40.23q-6.09-18.61-13.71-29.7a41,41,0,0,0-11.81-10.9,43.51,43.51,0,0,0-23.25-6.36q-25.62,0-40.14,26.16t-14.54,61v33.6a129.52,129.52,0,0,0,6.09,40.33q6.09,18.71,13.9,29.79a39.72,39.72,0,0,0,11.62,10.72,43,43,0,0,0,23.43,6.53q25.42,0,40-26.24T486,518.1Z"/><path class="cls-4" d="M588.81,600H706v-6q0-5.44,2.18-7.81a7.34,7.34,0,0,1,5.63-2.36,7.12,7.12,0,0,1,5.45,2.36c1.46,1.58,2.18,4.18,2.18,7.81v21.25H573.92V592.76q46.5-41.78,90.46-85,20.52-20.16,28.15-29.61T703,461.52a39.35,39.35,0,0,0,2.81-14.44q0-19.62-15.8-34.69t-38.15-15.08a57.93,57.93,0,0,0-35.42,11.45q-15.43,11.44-20,28.33-1.08,4.37-2.72,5.63a7.71,7.71,0,0,1-5.09,1.82,7,7,0,0,1-5.17-2.09,6.79,6.79,0,0,1-2.09-5q0-8.73,9.53-23.62a66.06,66.06,0,0,1,26.34-23.43,75.2,75.2,0,0,1,34.42-8.54,68.2,68.2,0,0,1,49.05,19.8q20.52,19.8,20.52,44.87a52.59,52.59,0,0,1-3.45,19.34q-3.45,8.82-11.72,19.26t-29.69,31.51q-53.77,53-87.56,82.29Z"/><path class="cls-4" d="M812.05,600H929.21v-6q0-5.44,2.18-7.81a7.32,7.32,0,0,1,5.63-2.36,7.12,7.12,0,0,1,5.45,2.36q2.17,2.37,2.18,7.81v21.25H797.16V592.76q46.5-41.78,90.45-85,20.53-20.16,28.16-29.61t10.44-16.62A39.16,39.16,0,0,0,929,447.08q0-19.62-15.8-34.69t-38.15-15.08a57.91,57.91,0,0,0-35.42,11.45q-15.43,11.44-20,28.33c-.73,2.91-1.63,4.79-2.72,5.63a7.73,7.73,0,0,1-5.09,1.82,7,7,0,0,1-5.18-2.09,6.82,6.82,0,0,1-2.09-5q0-8.73,9.54-23.62a66.06,66.06,0,0,1,26.34-23.43,75.17,75.17,0,0,1,34.42-8.54,68.16,68.16,0,0,1,49,19.8q20.53,19.8,20.53,44.87A52.59,52.59,0,0,1,941,465.88q-3.45,8.82-11.72,19.26t-29.7,31.51q-53.76,53-87.55,82.29Z"/></g></svg>