<svg xmlns="http://www.w3.org/2000/svg" viewBox="0 0 3080 3080"><defs><style>.cls-1{isolation:isolate;}.cls-2{fill:#35202b;}.cls-3{fill:#76434c;}.cls-4,.cls-5{mix-blend-mode:darken;opacity:0.3;}.cls-6{fill:#ff928c;stroke:#35202b;stroke-miterlimit:10;stroke-width:0.98px;}.cls-7{fill:#f5eae8;}.cls-8{fill:#93525a;}</style></defs><g class="cls-1"><g id="contorno_cobra" data-name="contorno cobra"><path class="cls-2" d="M2779.87,1665.92s6.61-33.39-22-46.62-167.6-55.13-207.29-46.31-64,48.51-119.08,48.51h-55.13v61.75Z"/><path class="cls-2" d="M2779.87,1665.92s6.61,33.39-22,46.62-167.6,55.13-207.29,46.31-64-48.51-119.08-48.51h-55.13v-61.75Z"/><path class="cls-2" d="M2229.21,1292.41s-21.83-200.86-133.15-292.6-347.56-40.76-391.93,57.06S1627.32,1128.56,1629,1229s56.34,273.76,56.34,273.76,35.33,90.06,145.88,119.85S2024,1602.72,2024,1602.72l-88.25-12.37S1497.45,1475.1,1768.29,1139c217.58-270,321.28,67.33,321.28,67.33Z"/><path class="cls-3" d="M871.73,1020.85s-64,80.29-58.13,328.37,122.57,553.26,122.57,553.26,31.28,146.44-43.69,187.42-213,14.18-213,14.18L668,2135s39.25,59.16,183,47.22,191-246.16,106.32-433S871.73,1020.85,871.73,1020.85Z"/><path class="cls-3" d="M490.32,1667.07s6.26-41.21,68.28-59.43,117.64,15,128,56.23-10.34,145.59-12.8,147.56-46.63,56.87-46.63,56.87l15.8-60.25s18.52-60.12,16.06-78.83-2-66-43.81-83.68-90.57,21.17-90.57,21.17Z"/><path class="cls-2" d="M1595.46,2432c45-1.3,88.67-9.91,129.66-23.08a588.54,588.54,0,0,0,114.92-52l13.33-7.88,14-9c9.19-6.18,18.18-12.6,26.88-19.33a489.13,489.13,0,0,0,48.83-43.29c30.27-30.65,56-64.14,78.09-98.64,44.16-69.22,74.68-142,99.17-214.57,26.78-80.7,46-161.79,62.15-241.86l170.9-3.21,104.82-5.38c37.46,9.79,59.68,37.84,92.3,45.08,39.69,8.82,178.62-33.07,207.29-46.31s22-46.62,22-46.62,6.61-33.39-22-46.62-167.6-55.13-207.29-46.31c-29.26,6.5-50.16,29.73-81.19,41.52l-115.93-6-148.8-2.8q6.67-36.72,13.25-72.92l4.87-26.44c1.74-10.05,3.56-20.09,4.86-30.22,2.95-20.19,4.75-40.55,5.92-61s1.18-40.89.63-61.37c-.81-20.49-2.39-41-4.93-61.45-5.28-40.89-14.09-81.68-28-121.72s-32.46-79.48-58.63-117a342.15,342.15,0,0,0-46.52-53.89C2078,983,2056.55,967.13,2031.61,955c-41-19.77-87.5-33.07-136.22-34.75-48.57-1.87-98.88,8.37-143.11,30.42-44.35,21.85-82.16,54.78-110.18,92.81-28.18,38.11-46.8,80.93-57.92,124s-14.6,86.7-12.82,128.87a561.43,561.43,0,0,0,19.21,122.35c10.77,40.48,27.37,81.35,50.82,118.6a378.79,378.79,0,0,0,88.92,97c34.71,26.69,73.19,46.67,112.4,60.91s79.35,23.06,119.27,27.79c13.7,1.56,27.39,2.59,41.09,3.18-13.83,62.56-29.75,123.72-49.23,182.26-21.24,63.38-47.19,123.78-80.38,175.72-16.58,25.93-34.94,49.6-55.12,70.05a335.75,335.75,0,0,1-31.5,28.28c-5.47,4.29-11.06,8.33-16.73,12.22l-8.61,5.61-9.81,5.86c-52.42,31.16-108.39,50.79-162,52.62A233.44,233.44,0,0,1,1441.48,2214c-43.67-31.36-78.93-78.65-102.61-133.07-23.84-54.53-36.29-116-38.5-178.64a613,613,0,0,1,3.92-94.79,680.85,680.85,0,0,1,17.83-94.65c2-7.83,4.12-15.64,6.49-23.41,2.18-7.8,4.72-15.53,7.24-23.26l17-51.9c11.26-35.35,21.77-71.14,31.25-107.53s17.86-73.39,24.45-111.29,11.55-76.69,13.3-116.89.48-81.8-7.72-125c-8.15-42.9-23.94-88.34-52.67-128.62A270.23,270.23,0,0,0,1311,971.12a294.34,294.34,0,0,0-60.9-37.74c-10.51-4.86-21.48-9.17-30.87-12.47-9.64-3.65-19.83-6.72-29.9-9.86a403.1,403.1,0,0,0-64.5-13.34,295.25,295.25,0,0,0-70.85-.2A242.77,242.77,0,0,0,981,918.2c-23.53,10.81-44.81,26.11-62.75,43.28a277.25,277.25,0,0,0-44.57,56c-23.82,39.34-37.31,80-46.71,119.54s-14.13,78.87-16.48,117.52c-4.59,77.3.19,152.7,9.67,226.85A1741.34,1741.34,0,0,0,863.44,1700q7.06,26.88,15,53.51,3.93,13.34,8.18,26.56l7.8,24.78c9.66,32.17,17.38,64.58,21.84,96.63s5.47,63.72,1.29,92.88c-4,29.18-13.89,55.23-29.37,74s-36.82,30.72-62.29,34c-25.3,3.55-53.52-2.12-78.14-14.78a144.88,144.88,0,0,1-33.86-24A127,127,0,0,1,700,2048.27c-2.19-2.68-4.07-5.56-6-8.4l-2.78-4.36-1.9-3.28c-4.68-8.83-7.5-21.52-8.15-36s.55-30.58,2.76-47c4.46-33,12.59-67.64,19.85-103.45,7-35.92,14.54-73.1,13.09-114.67-1-20.64-4.8-43.16-15.93-64.54a112.05,112.05,0,0,0-21.64-28.94,117.57,117.57,0,0,0-28.66-20.13,156.43,156.43,0,0,0-30.52-11.38,137.9,137.9,0,0,0-32.3-4.72,107.38,107.38,0,0,0-34.52,4.49,92.54,92.54,0,0,0-31.57,16.76c-18.56,15.15-29.55,35.67-35.12,55.85a147,147,0,0,0-3.23,61.27c3.37,20,10.41,40.48,26.3,56.78A56.4,56.4,0,0,0,540,1812.65c11.59,2.08,22.85-.05,32.49-3.69a10.65,10.65,0,0,0-6.2-20.32l-.31.07c-7.41,1.74-14.59,1.89-20.58-.13a31.45,31.45,0,0,1-15.18-11c-8.29-10.63-12.37-26.22-13-41.59a110.07,110.07,0,0,1,7.54-45.08c5.51-13.79,14.07-25.37,24.38-31.89s22.12-8.64,35.42-6.83a105.06,105.06,0,0,1,20.49,5.14,102.34,102.34,0,0,1,19.34,8.66c11.55,6.87,19.14,15.52,23.88,26.47s6.68,24.78,6.45,39.88c-.51,30.42-8.54,64.07-17.35,98-8.88,34.12-19.29,69-26.63,106.78-3.59,18.94-6.49,38.67-6.74,60.09-.16,21.25,2.21,44.91,12.61,68.81,1.36,2.9,2.84,6,4.24,8.69l4,7.25c2.83,4.74,5.67,9.51,8.87,14a209.34,209.34,0,0,0,20.73,25.79,229.61,229.61,0,0,0,51.45,41.09c38.05,22,82.82,33.94,129.11,30.11A191.49,191.49,0,0,0,903,2174.6a188,188,0,0,0,57.16-42.82,215.79,215.79,0,0,0,37.51-58,277.52,277.52,0,0,0,19.24-62.35c7.9-41.7,7.84-82.44,4.39-121.73-3.65-39.31-11-77.3-20.3-114.33l-13.81-52.13q-6.52-25.23-12.27-50.65a1623.91,1623.91,0,0,1-33.11-204.93c-6.34-68.46-8-137.14-1.67-203.06,3.16-32.91,8.51-65,16.66-95s19.34-57.66,33.59-79.35,30.76-36.49,49.05-44.21,40.81-9.89,67-5.92a260.3,260.3,0,0,1,40.54,9.73c7,2.46,14,4.69,21,7.64,7.47,2.86,13.12,5.35,18.84,8.17,22.62,11.54,39.58,26,52.12,44.79s21.15,42.59,25.69,70.15,5.13,58.13,3,89.58c-4.34,63.19-19,129.43-37.21,195.16-9.22,32.93-19.53,65.86-30.66,98.71l-17.42,50.13c-3.19,9.28-6.38,18.56-9.21,28-3,9.36-5.74,18.83-8.35,28.34A844.62,844.62,0,0,0,1140.9,1787a770.1,770.1,0,0,0-6.82,120.07c2,80.7,16.83,162.75,49.57,240.36a529.53,529.53,0,0,0,63.17,111.1c26,34.71,57,66.87,93.17,93.57,36.07,26.71,77,48.35,120.83,61.87A406.91,406.91,0,0,0,1595.46,2432Zm384.27-835.34c-31.13-5.26-61.27-13.62-88.93-25.33s-52.83-26.69-74.16-44.94a237.44,237.44,0,0,1-52.68-63.76c-13.86-24.14-23.81-50.82-30.44-79.94-7-30.38-11-60.84-11.17-90.39-.75-59,15.13-114.92,45.94-153.27,30.44-38.71,73.65-58.44,119.82-55.28,23.11,1.49,47,8.53,70.42,20.25,14.42,7.34,31.65,23.57,46.09,45.25s26.79,47.78,35.83,75.74c4.51,14,8.36,28.44,11.62,43.13,3.08,14.76,5.5,29.77,7.33,44.92s2.69,30.52,3.14,45.9c.2,15.39.06,30.83-1,46.25s-2.58,30.83-5,46.12c-1,7.67-2.57,15.27-3.95,22.89l-5.17,26.45c-6.63,34.4-12.9,68.37-19.27,102l-1.16-.06C2011.1,1601.41,1995.28,1599.39,1979.73,1596.67Z"/><path class="cls-4" d="M952.45,1771.16c-221.41-666.76-.08-836.93,0-837a244.74,244.74,0,0,0-34.2,27.31,277.25,277.25,0,0,0-44.57,56c-23.82,39.34-37.31,80-46.71,119.54s-14.13,78.87-16.48,117.52c-4.59,77.3.19,152.7,9.67,226.85A1741.34,1741.34,0,0,0,863.44,1700q7.06,26.88,15,53.51,3.93,13.34,8.18,26.56l7.8,24.78c9.66,32.17,17.38,64.58,21.84,96.63s5.47,63.72,1.29,92.88c-4,29.18-13.89,55.23-29.37,74s-36.82,30.72-62.29,34c-25.3,3.55-53.52-2.12-78.14-14.78a144.88,144.88,0,0,1-33.86-24A127,127,0,0,1,700,2048.27c-2.19-2.68-4.07-5.56-6-8.4l-2.78-4.36-1.9-3.28c-4.68-8.83-7.5-21.52-8.15-36s.55-30.58,2.76-47c3.17-23.53,8.21-47.85,13.47-72.83-20.44-1.8-45-3.33-71.35-3.64-5.54,20.77-11,42-15.31,64.42-3.59,18.94-6.49,38.67-6.74,60.09-.16,21.25,2.21,44.91,12.61,68.81,1.36,2.9,2.84,6,4.24,8.69l4,7.25c2.83,4.74,5.67,9.51,8.87,14a209.34,209.34,0,0,0,20.73,25.79,229.61,229.61,0,0,0,51.45,41.09,239.22,239.22,0,0,0,25.33,12.65C908.27,2192.67,1064.26,2107.89,952.45,1771.16Z"/><g class="cls-5"><path d="M1373.82,2323.65c396.24,205.72,645.47-144.14,681.22-206.24l-128.35-136.57c-15.44,36.76-33,71.64-53.23,103.34-16.58,25.93-34.94,49.6-55.12,70.05a335.75,335.75,0,0,1-31.5,28.28c-5.47,4.29-11.06,8.33-16.73,12.22l-8.61,5.61-9.81,5.86c-52.42,31.16-108.39,50.79-162,52.62A233.44,233.44,0,0,1,1441.48,2214c-43.67-31.36-78.93-78.65-102.61-133.07-23.84-54.53-36.29-116-38.5-178.64a613,613,0,0,1,3.92-94.79,680.85,680.85,0,0,1,17.83-94.65c2-7.83,4.12-15.64,6.49-23.41,2.18-7.8,4.72-15.53,7.24-23.26l17-51.9c11.26-35.35,21.77-71.14,31.25-107.53s17.86-73.39,24.45-111.29,11.55-76.69,13.3-116.89.48-81.8-7.72-125c-8.15-42.9-23.94-88.34-52.67-128.62A270.23,270.23,0,0,0,1311,971.12a294.34,294.34,0,0,0-60.9-37.74c-10.51-4.86-21.48-9.17-30.87-12.47-9.64-3.65-19.83-6.72-29.9-9.86a403.1,403.1,0,0,0-64.5-13.34,295.25,295.25,0,0,0-70.85-.2c-7.76,1-15.58,2.32-23.4,4,93.89-8.11,233.16,19.74,301.93,228.82C1441.8,1462.82,949.43,2103.32,1373.82,2323.65Z"/><path d="M2059.81,2110.76l-.38-2a59.12,59.12,0,0,1-4.39,8.62l.88.94C2057.24,2115.82,2058.52,2113.29,2059.81,2110.76Z"/></g><path class="cls-4" d="M1639.71,1046.91a349.08,349.08,0,0,0-45.45,87.59c-15.43,54.89-14.29,121.64,10.65,200.8,149.47,474.38,659.24,320.89,771.41,313.29s110.84,11.72,133.91,37,35.27-30.7,35.27-30.7c30.78-82.19,157.28-47.79,157.28-47.79a42.91,42.91,0,0,0-.46-7c-52.81-15.86-125-33.08-151.79-27.11-29.26,6.5-50.16,29.73-81.19,41.52l-115.93-6-148.8-2.8q6.67-36.72,13.25-72.92l4.87-26.44c1.74-10.05,3.56-20.09,4.86-30.22,2.95-20.19,4.75-40.55,5.92-61s1.18-40.89.63-61.37c-.81-20.49-2.39-41-4.93-61.45q-2.14-16.62-5.13-33.21c-16.1-31.21-27.21-66.37-31.54-106.29-.31-2.85-.78-5.62-1.2-8.42a457.26,457.26,0,0,0-48.76-90.79,342.15,342.15,0,0,0-46.52-53.89c-4-3.71-8.16-7.36-12.47-10.94C1952.8,909.17,1740,924.72,1639.71,1046.91Zm248.4,36.85c23.11,1.49,47,8.53,70.42,20.25,14.42,7.34,31.65,23.57,46.09,45.25s26.79,47.78,35.83,75.74c4.51,14,8.36,28.44,11.62,43.13,3.08,14.76,5.5,29.77,7.33,44.92s2.69,30.52,3.14,45.9c.2,15.39.06,30.83-1,46.25s-2.58,30.83-5,46.12c-1,7.67-2.57,15.27-3.95,22.89l-5.17,26.45c-6.63,34.4-12.9,68.37-19.27,102l-1.16-.06c-15.85-1.18-31.67-3.2-47.22-5.92-31.13-5.26-61.27-13.62-88.93-25.33s-52.83-26.69-74.16-44.94a237.44,237.44,0,0,1-52.68-63.76c-13.86-24.14-23.81-50.82-30.44-79.94-7-30.38-11-60.84-11.17-90.39-.75-59,15.13-114.92,45.94-153.27C1798.73,1100.33,1841.94,1080.6,1888.11,1083.76Z"/><path class="cls-3" d="M668,2135l1.1.68a212.91,212.91,0,0,0,41.29,17.7,241.08,241.08,0,0,0,88.69,11c29.7-2.12,59.11-10,84.37-25.33,25.33-15.15,45.95-37.46,60.22-63.41,14.61-25.77,22.46-55,24.42-84.75s-1.19-60-6.72-89.8c-11.42-59.63-31.22-117.76-50.45-175.94-19.47-58.16-39-116.54-54.92-176.06-8-29.77-15.25-59.66-21-90.09a826.36,826.36,0,0,1-11.73-91.89c-4.47-61.62-2.09-123.57,5.74-184.71,4-30.56,9.3-61,16.11-91q4.25-18.5,9.17-36.81C841.93,1082,833.43,1109.74,827,1137c-9.26,39.71-14.13,78.88-16.48,117.53-4.59,77.3.19,152.7,9.67,226.85A1741.34,1741.34,0,0,0,863.44,1700q7.06,26.88,15,53.51,3.93,13.34,8.18,26.56l7.8,24.78c9.66,32.17,17.38,64.58,21.84,96.63s5.47,63.72,1.29,92.88c-4,29.18-13.89,55.23-29.37,74s-36.82,30.72-62.29,34c-25.3,3.55-53.52-2.12-78.14-14.78a144.88,144.88,0,0,1-33.86-24A127,127,0,0,1,700,2048.27c-2.19-2.68-4.07-5.56-6-8.4l-2.78-4.36-1.9-3.28c-4.68-8.83-7.5-21.52-8.15-36s.55-30.58,2.76-47c4.46-33,12.59-67.64,19.85-103.45,7-35.92,14.54-73.1,13.09-114.67-1-20.64-4.8-43.16-15.93-64.54a112.05,112.05,0,0,0-21.64-28.94,117.57,117.57,0,0,0-28.66-20.13,156.43,156.43,0,0,0-30.52-11.38,137.9,137.9,0,0,0-32.3-4.72,107.38,107.38,0,0,0-34.52,4.49,92.54,92.54,0,0,0-31.57,16.76,98.08,98.08,0,0,0-13,12.81c20-16.68,47.07-25.06,77-23.3,36.11,2.13,67.58,18.75,82.14,43.39,34.49,58.41,6.42,109.72-16.13,151-6.62,12.11-13,23.79-17.25,34.67-8.19,30.71-17.18,62.16-23.75,96-3.59,18.94-6.49,38.67-6.74,60.09-.16,21.25,2.21,44.91,12.61,68.81,1.36,2.9,2.84,6,4.24,8.69l4,7.25c2.83,4.74,5.67,9.51,8.87,14a209.34,209.34,0,0,0,20.73,25.79C658.76,2126.39,663.32,2130.76,668,2135Z"/><path class="cls-2" d="M579.07,1796.57a10.65,10.65,0,0,0-12.8-7.93l-.31.07c-7.41,1.74-14.59,1.88-20.58-.13a31.45,31.45,0,0,1-15.18-11c-8.29-10.63-12.37-26.22-13-41.59a110.07,110.07,0,0,1,7.54-45.08c5.51-13.79,14.07-25.37,24.38-31.89s22.12-8.64,35.42-6.83a105.06,105.06,0,0,1,20.49,5.14,102.34,102.34,0,0,1,19.34,8.66c11.55,6.87,19.14,15.52,23.88,26.47s6.68,24.78,6.45,39.88c-.4,23.73-5.39,49.44-11.74,75.68.89-1.64,1.78-3.28,2.69-4.94,22.84-41.75,48.74-89.07,16.23-144.11-13.18-22.33-43.24-38-76.58-40-35.5-2.09-66.67,10.9-85.52,35.64a3.41,3.41,0,0,1-4.33.9,120.92,120.92,0,0,0-8.86,22.89,147,147,0,0,0-3.23,61.27c3.37,20,10.41,40.48,26.3,56.78A56.4,56.4,0,0,0,540,1812.65c11.59,2.08,22.85-.05,32.49-3.69A10.66,10.66,0,0,0,579.07,1796.57Z"/><path class="cls-6" d="M2702.78,1607.12s-29.53-32.57-59-14.52C2642.28,1612.91,2682.33,1624.39,2702.78,1607.12Z"/><path class="cls-6" d="M2699.83,1726.26s-29.53,32.57-59,14.52C2639.33,1720.47,2679.38,1709,2699.83,1726.26Z"/><path class="cls-7" d="M2756.9,1627.51s13.29,6.66,11.82,13.7S2756.9,1627.51,2756.9,1627.51Z"/><path class="cls-7" d="M2756.9,1700.77s13.29-6.66,11.82-13.7S2756.9,1700.77,2756.9,1700.77Z"/><path class="cls-3" d="M1979,1597.28a3.4,3.4,0,0,1-1.81-1.11c-30.21-5.29-59.46-13.45-86.35-24.83-27.68-11.67-52.83-26.69-74.16-44.94a237.44,237.44,0,0,1-52.68-63.76c-13.86-24.14-23.81-50.82-30.44-79.94-7-30.38-11-60.84-11.17-90.39-.75-59,15.13-114.92,45.94-153.27,30.44-38.71,73.65-58.44,119.82-55.28,23.11,1.49,47,8.53,70.42,20.25,14.42,7.34,31.65,23.57,46.09,45.25s26.79,47.78,35.83,75.74c4.51,14,8.36,28.44,11.62,43.13,3.08,14.76,5.5,29.77,7.33,44.92s2.69,30.52,3.14,45.9c.2,15.39.06,30.83-1,46.25s-2.58,30.83-5,46.12c-1,7.67-2.57,15.27-3.95,22.89l-5.17,26.45c-6.19,32.15-12.08,63.89-18,95.35,0,0,.12,2.79.26,6.81l175,2.94.87.94c4.24-25.5,9.52-58.28,12.38-73.86l4.87-26.44c1.74-10.05,3.56-20.09,4.86-30.22,2.95-20.19,4.75-40.55,5.92-61s1.18-40.89.63-61.37c-.81-20.49-2.39-41-4.93-61.45-5.28-40.89-14.09-81.68-28-121.72-.24-.68-.5-1.35-.74-2l-7.93-15.76-4.81-9.56-5.62-9.1c-3.81-6-7.35-12.21-11.29-18.13L2158.09,1099c-17.78-22.08-37.79-42.53-61-58.72a296.43,296.43,0,0,0-75.16-38.12c-26.67-9.16-54.85-13.46-82.92-14-56.14-1-112.76,14.08-159.81,44.48-47,30.07-84.76,75.18-102.86,128.09l-3.62,9.81-2.62,10.13-2.64,10.13-1.3,5.07-.81,5.18-3.27,20.7-1.31,21c-.69,7-.28,14-.1,21l.28,10.52a75.53,75.53,0,0,0,.7,10.51c1.67,14,3,28,6,41.92a491.66,491.66,0,0,0,22.13,82,337.09,337.09,0,0,0,38,75.23c30.94,46.71,76.55,83.92,130.31,101.51,43.19,14.94,90.28,19.3,136.17,14.51C1988.42,1599.12,1983.2,1598.26,1979,1597.28Z"/><path class="cls-3" d="M1692.25,2363.79a458.3,458.3,0,0,0,91.91-24.79c59.52-22.85,114-58.33,161.78-101.22s90.07-92.67,123.68-147.47l.1-.17a3.36,3.36,0,0,1,.51-.55c19.67-41.4,36-83.42,50.13-125.37,23.74-71.53,49.85-166.63,66.33-241.94l-182.29,3.31c-1.64,4.39-2.9,7.73-3,7.71-13.46,60.07-28.85,118.85-47.59,175.16-21.24,63.38-47.19,123.78-80.38,175.72-16.58,25.93-34.94,49.6-55.12,70.05a335.75,335.75,0,0,1-31.5,28.28c-5.47,4.29-11.06,8.33-16.73,12.22l-8.61,5.61-9.81,5.86c-52.42,31.16-108.39,50.79-162,52.62A233.44,233.44,0,0,1,1441.48,2214c-43.67-31.36-78.93-78.65-102.61-133.07-23.84-54.53-36.29-116-38.5-178.64a613,613,0,0,1,3.92-94.79,680.85,680.85,0,0,1,17.83-94.65c.38-1.48.79-3,1.18-4.44-6.84,23.42-12.7,47.13-17.69,71-13.24,63.11-20.83,127.48-20.58,191.76a706.75,706.75,0,0,0,6.64,95.87c4.48,31.64,11.16,63,21.46,93s23.72,58.92,41.39,84.94a268.47,268.47,0,0,0,64.84,67.23c25.28,18.36,54.05,31.6,84.15,40.48,15,4.55,30.58,7.51,46.32,10.14a460.37,460.37,0,0,0,47.39,5.31A439.21,439.21,0,0,0,1692.25,2363.79Z"/><path class="cls-3" d="M2742.13,1615.54l-10.2,27.18s0,.06-.08.08l-55.45,22.89a.19.19,0,0,1-.18,0l-49.42-38,.32,0-41.48,38a.24.24,0,0,1-.34,0l0,0-39.92-58.88a.18.18,0,0,1,0-.25h0a210.49,210.49,0,0,1,37.43-18.59q4.92-1.8,9.93-3.32t10.13-2.61c3.41-.71,6.85-1.29,10.32-1.69a91,91,0,0,1,10.44-.52,93.09,93.09,0,0,0-10.43.58c-3.46.43-6.9,1-10.3,1.76s-6.77,1.66-10.11,2.67-6.62,2.16-9.88,3.38a204.57,204.57,0,0,0-19.13,8.4,198.2,198.2,0,0,0-18.2,10.25l.05-.26,40,58.82-.36,0,41.48-38a.24.24,0,0,1,.31,0l49.34,38-.18,0,55.48-22.8-.07.08Z"/><path class="cls-3" d="M2626.68,1627.44a90.05,90.05,0,0,0,1.94-9.92c.44-3.35.77-6.72,1-10.09a180.52,180.52,0,0,0,0-20.28,180.87,180.87,0,0,1,.24,20.3q-.24,5.07-.83,10.12a92.14,92.14,0,0,1-1.82,10,.28.28,0,0,1-.33.21.28.28,0,0,1-.21-.34h0Z"/><path class="cls-3" d="M2475,1614.8a114.25,114.25,0,0,1,16.94-6.25,125.5,125.5,0,0,1,17.69-3.71c1.5-.17,3-.42,4.49-.53l4.51-.33c1.51-.12,3-.07,4.53-.11l2.26,0c.76,0,1.51.06,2.26.09l4.53.24,4.49.56,2.25.29,2.22.45,4.44.92a.28.28,0,0,1-.11.55h0l-4.4-.94-2.2-.48-2.24-.3-4.46-.59-4.5-.27c-.75,0-1.5-.11-2.25-.11h-2.26c-1.5,0-3,0-4.51.08l-4.5.29c-1.5.1-3,.34-4.49.5a125.52,125.52,0,0,0-17.68,3.56A115.73,115.73,0,0,0,2475,1614.8Z"/><path class="cls-3" d="M2742.13,1715.49l-10.46-26.58.07.08-55.48-23.3.18,0-49.34,38a.24.24,0,0,1-.31,0l-41.48-38,.36,0-40,58.82-.05-.25a211.63,211.63,0,0,0,37.33,18.64q4.89,1.85,9.88,3.39t10.11,2.66q5.1,1.11,10.3,1.76a88.57,88.57,0,0,0,10.43.58,91,91,0,0,1-10.44-.51q-5.21-.62-10.32-1.7t-10.13-2.6q-5-1.51-9.93-3.33a210.49,210.49,0,0,1-37.43-18.59.18.18,0,0,1-.06-.25h0l39.92-58.89a.24.24,0,0,1,.34-.06l0,0,41.48,38h-.32l49.42-38a.19.19,0,0,1,.18,0l55.45,23.39a.15.15,0,0,1,.08.08Z"/><path class="cls-3" d="M2627.22,1703.45a112.71,112.71,0,0,1,2.72,21.31,213.54,213.54,0,0,1-.16,21.47c.32-7.15.28-14.32-.11-21.46a112.59,112.59,0,0,0-3-21.18h0a.28.28,0,0,1,.54-.14Z"/><path class="cls-3" d="M2475,1716.24a116.89,116.89,0,0,0,17,6.12,125.52,125.52,0,0,0,17.68,3.56c1.5.16,3,.4,4.49.49l4.5.3c1.5.11,3,0,4.51.07l2.26,0c.75,0,1.5-.08,2.25-.12l4.5-.27,4.46-.59,2.24-.3,2.2-.47,4.4-1h0a.28.28,0,0,1,.12.54h0l-4.44.92-2.22.46-2.25.29-4.49.55-4.53.24c-.75,0-1.5.1-2.26.1l-2.26,0c-1.51-.05-3,0-4.53-.11l-4.51-.33c-1.5-.11-3-.36-4.49-.54a125.47,125.47,0,0,1-17.69-3.7A116.54,116.54,0,0,1,2475,1716.24Z"/><path class="cls-3" d="M2458.59,1614a118.29,118.29,0,0,0-10.78,5.74c-3.5,2.09-6.92,4.3-10.23,6.67a109.09,109.09,0,0,0-9.5,7.64,86.49,86.49,0,0,0-8.42,8.81.25.25,0,0,1-.34,0h0a180.44,180.44,0,0,0-14.55-12.07,158.67,158.67,0,0,0-15.77-10.43,105.3,105.3,0,0,0-17.11-8,73.61,73.61,0,0,0-9.09-2.6,55.81,55.81,0,0,0-9.38-1.17,60.09,60.09,0,0,1,18.56,3.49,105.64,105.64,0,0,1,17.22,7.93,159.66,159.66,0,0,1,15.88,10.37,157.89,157.89,0,0,1,14.57,12.15l-.35,0a86.37,86.37,0,0,1,8.52-8.8,106.34,106.34,0,0,1,9.58-7.62c3.33-2.35,6.76-4.57,10.31-6.59S2454.86,1615.61,2458.59,1614Z"/><path class="cls-3" d="M2419.48,1642.67a11.55,11.55,0,0,1-2.11,2.72l-.6.62-.65.56a17.23,17.23,0,0,1-1.33,1.1l-1.39,1-1.44.94c-.95.65-2,1.17-3,1.75a79.77,79.77,0,0,1-12.73,5.32c-2.2.67-4.41,1.34-6.63,1.93s-4.46,1.16-6.72,1.61-4.5,1-6.77,1.34l-6.82,1.13,0-.44a56.24,56.24,0,0,1,25.68,5.89,26.63,26.63,0,0,1,2.93,1.58c.94.58,1.91,1.12,2.83,1.73a53.36,53.36,0,0,1,5.24,4.09,54.56,54.56,0,0,1,8.8,9.91.2.2,0,0,1,0,.27,49.92,49.92,0,0,1-10.17,6.72,74.17,74.17,0,0,1-11.28,4.61c-2,.54-3.89,1.18-5.89,1.56-1,.21-2,.45-3,.63l-3,.49-1.5.24-1.51.15-3,.31c-2,.15-4.06.19-6.08.3,2-.13,4.05-.2,6.07-.39l3-.35,1.51-.17,1.5-.26,3-.52c1-.2,2-.46,3-.68,2-.41,3.91-1.05,5.86-1.59a75.05,75.05,0,0,0,11.2-4.64,50.18,50.18,0,0,0,10-6.71l0,.27a54.12,54.12,0,0,0-8.77-9.79,53.14,53.14,0,0,0-5.21-4c-.92-.6-1.88-1.14-2.82-1.71a27.75,27.75,0,0,0-2.9-1.55,56.52,56.52,0,0,0-12.36-4.46,54.34,54.34,0,0,0-13.06-1.47h0a.22.22,0,0,1-.23-.22.22.22,0,0,1,.19-.22l6.8-1.09c2.27-.37,4.51-.88,6.77-1.31s4.47-1.05,6.71-1.57,4.42-1.24,6.62-1.9a87.58,87.58,0,0,0,12.75-5.19c1-.56,2-1.06,3-1.7l1.46-.92,1.39-1c.47-.33.9-.71,1.34-1.08l.66-.56.61-.6A11.85,11.85,0,0,0,2419.48,1642.67Z"/><path class="cls-3" d="M2458.23,1713.77a51.5,51.5,0,0,0-7.84-11.07,53.75,53.75,0,0,0-10.27-8.83,51.15,51.15,0,0,0-5.92-3.31,49,49,0,0,0-19.64-4.67.28.28,0,0,1,0-.56h0c2.21-.26,4.44-.43,6.63-.78l3.27-.65,1.64-.33,1.6-.47,3.2-.95c1.05-.37,2.08-.8,3.11-1.2l1.56-.62,1.49-.74c1-.51,2-1,3-1.53a49.48,49.48,0,0,0,10.6-8.06,40.66,40.66,0,0,0,8-10.67,40.89,40.89,0,0,1-7.78,10.86,50,50,0,0,1-10.61,8.19c-1,.58-2,1-3,1.56l-1.5.76-1.56.63c-1,.41-2.07.85-3.12,1.24l-3.22,1-1.61.49-1.65.34-3.29.68c-2.21.37-4.45.55-6.68.84v-.56a52.91,52.91,0,0,1,13.45,2.33,49.94,49.94,0,0,1,12.29,5.9,53.51,53.51,0,0,1,10.27,9A51.68,51.68,0,0,1,2458.23,1713.77Z"/><path class="cls-3" d="M2327.34,1634.72a52,52,0,0,0,7.84,11.07,53.7,53.7,0,0,0,10.27,8.82,48.83,48.83,0,0,0,12.22,5.77,53,53,0,0,0,13.34,2.22.26.26,0,0,1,.26.28.28.28,0,0,1-.24.27h0c-2.2.27-4.43.43-6.62.78l-3.28.66-1.63.32-1.6.48-3.21.94c-1,.38-2.07.81-3.11,1.21l-1.55.61-1.49.74c-1,.52-2,1-3,1.53a50.14,50.14,0,0,0-10.6,8.06,40.87,40.87,0,0,0-8,10.68,41.13,41.13,0,0,1,7.77-10.87,50,50,0,0,1,10.62-8.19c1-.58,2-1,3-1.56l1.51-.76,1.56-.62c1-.42,2.07-.86,3.12-1.24l3.22-1,1.61-.48,1.65-.35,3.29-.68c2.21-.37,4.45-.55,6.68-.83v.55a52.91,52.91,0,0,1-13.44-2.33,48.57,48.57,0,0,1-12.29-5.9,53.87,53.87,0,0,1-10.28-9A52,52,0,0,1,2327.34,1634.72Z"/><path class="cls-3" d="M2283.32,1607.5a52.36,52.36,0,0,0,7.84,11.07,54,54,0,0,0,10.27,8.82,52,52,0,0,0,5.92,3.31,50.88,50.88,0,0,0,6.31,2.46,52.89,52.89,0,0,0,13.33,2.22.28.28,0,0,1,.27.28.29.29,0,0,1-.25.27h0c-2.21.27-4.43.43-6.63.78l-3.27.66-1.64.32-1.6.48-3.2.94c-1,.38-2.07.81-3.11,1.21l-1.56.61-1.49.74c-1,.52-2,1-3,1.53a50.14,50.14,0,0,0-10.6,8.06,41.1,41.1,0,0,0-8,10.68,40.94,40.94,0,0,1,7.78-10.87,50,50,0,0,1,10.61-8.19c1-.58,2-1,3-1.56l1.5-.76,1.56-.63c1-.41,2.07-.85,3.13-1.23l3.22-1,1.61-.48,1.64-.35,3.3-.68c2.21-.37,4.45-.55,6.67-.83v.55a53,53,0,0,1-13.45-2.33,51.15,51.15,0,0,1-6.35-2.52,51.93,51.93,0,0,1-5.94-3.38,54.11,54.11,0,0,1-10.27-9A52,52,0,0,1,2283.32,1607.5Z"/><path class="cls-3" d="M2249.94,1640.39a43.8,43.8,0,0,0,14.38,15.69l1.12.73c.37.25.78.44,1.17.66.79.41,1.56.86,2.37,1.24a39.22,39.22,0,0,0,5,1.9l1.28.39a8.58,8.58,0,0,0,1.3.34l2.63.51a19.56,19.56,0,0,0,2.65.32l2.67.23a.28.28,0,0,1,0,.56c-1.75.21-3.51.33-5.24.61l-2.59.51-1.3.26-1.26.37-2.54.75c-.82.29-1.63.63-2.46,1l-1.22.48-1.19.59c-.78.41-1.59.76-2.34,1.21a39.46,39.46,0,0,0-8.4,6.36,32.39,32.39,0,0,0-6.32,8.43,32.62,32.62,0,0,1,6.13-8.62,39.79,39.79,0,0,1,8.4-6.49c.76-.46,1.58-.83,2.36-1.24l1.19-.6,1.24-.5c.82-.33,1.64-.68,2.47-1l2.55-.77,1.28-.39,1.3-.27,2.61-.54c1.75-.29,3.53-.44,5.29-.67v.56l-2.7-.26a18.68,18.68,0,0,1-2.69-.35l-2.65-.54a7.45,7.45,0,0,1-1.31-.35l-1.3-.4a39.57,39.57,0,0,1-5-2c-.81-.39-1.59-.86-2.39-1.28-.39-.23-.8-.42-1.17-.67l-1.13-.75a41.49,41.49,0,0,1-14.17-16Z"/><path class="cls-3" d="M2349,1622.65a11.59,11.59,0,0,1-3,6.18,18.15,18.15,0,0,1-5.48,4.29,22.57,22.57,0,0,1-6.62,2.17,30.86,30.86,0,0,1-3.45.39c-1.16,0-2.32,0-3.47,0,1.15-.1,2.3-.1,3.45-.24a29.89,29.89,0,0,0,3.39-.54,23.56,23.56,0,0,0,6.44-2.24,18.82,18.82,0,0,0,5.42-4.08,15.59,15.59,0,0,0,2.05-2.73A9.08,9.08,0,0,0,2349,1622.65Z"/><path class="cls-3" d="M2226.4,1665.86c1.12.39,2.3.53,3.45.81s2.31.54,3.45.89a37.32,37.32,0,0,1,6.57,2.73,32,32,0,0,1,5.88,4,36.52,36.52,0,0,1,4.95,5.15h0a.23.23,0,0,1,.05.22,14.83,14.83,0,0,1-3.17,5.38,20.4,20.4,0,0,1-4.8,3.94l-1.35.76-1.41.66a28.73,28.73,0,0,1-2.89,1.11c-1,.31-2,.53-3,.8l-3,.55,3-.67c1-.31,2-.57,2.93-.92s1.93-.69,2.83-1.18l1.37-.67,1.32-.79a21.5,21.5,0,0,0,4.64-3.91,14.35,14.35,0,0,0,3-5.18l.05.23a39,39,0,0,0-4.85-5.1c-.86-.8-1.84-1.46-2.77-2.17s-2-1.3-3-1.87a36.77,36.77,0,0,0-6.45-2.85q-1.68-.57-3.39-1A33.27,33.27,0,0,1,2226.4,1665.86Z"/><path class="cls-3" d="M2278.39,1687.24c1.11.39,2.3.53,3.45.81s2.31.54,3.44.89a37.42,37.42,0,0,1,6.58,2.73,32,32,0,0,1,5.88,4,36.45,36.45,0,0,1,4.94,5.15h0a.22.22,0,0,1,0,.22,14.67,14.67,0,0,1-3.16,5.38,20.4,20.4,0,0,1-4.8,3.94l-1.36.76c-.46.23-.94.44-1.4.66a30.71,30.71,0,0,1-2.89,1.11c-1,.31-2,.53-3,.8l-3,.55,3-.67c1-.31,2-.57,2.93-.92s1.93-.69,2.84-1.18l1.37-.67,1.31-.79a21.8,21.8,0,0,0,4.65-3.91,14.64,14.64,0,0,0,3-5.18l.05.22a39.65,39.65,0,0,0-4.86-5.09,34.36,34.36,0,0,0-2.77-2.17c-1-.65-2-1.3-3-1.87a36.45,36.45,0,0,0-6.45-2.85q-1.67-.57-3.39-1A33.8,33.8,0,0,1,2278.39,1687.24Z"/><path class="cls-3" d="M2462.92,1626.86a23.46,23.46,0,0,0,2.41.55c.8.17,1.61.36,2.41.6a25.84,25.84,0,0,1,4.6,1.88,21.86,21.86,0,0,1,4.11,2.82,24.11,24.11,0,0,1,3.47,3.6h0a.22.22,0,0,1,0,.22,10.52,10.52,0,0,1-2.23,3.78,13.93,13.93,0,0,1-3.38,2.74,18.8,18.8,0,0,1-4,1.75c-.69.21-1.4.36-2.09.55l-2.12.36,2.09-.49c.68-.22,1.37-.41,2-.66a19.81,19.81,0,0,0,3.82-1.85,15.28,15.28,0,0,0,3.21-2.73,9.9,9.9,0,0,0,2.08-3.58l0,.23a28.21,28.21,0,0,0-3.37-3.54,22.68,22.68,0,0,0-4-2.81,24.55,24.55,0,0,0-4.47-2c-.78-.28-1.56-.52-2.36-.73A21.44,21.44,0,0,1,2462.92,1626.86Z"/><path class="cls-3" d="M2310.19,1679.73a22.07,22.07,0,0,0,2.41.54c.81.17,1.62.36,2.41.6a26,26,0,0,1,4.61,1.89,22,22,0,0,1,4.11,2.82,24,24,0,0,1,3.46,3.59h0a.23.23,0,0,1,0,.22,10.28,10.28,0,0,1-2.23,3.79,13.92,13.92,0,0,1-3.37,2.74,19.17,19.17,0,0,1-4,1.75c-.68.21-1.39.36-2.08.54l-2.13.37,2.1-.49c.68-.22,1.37-.41,2-.66a19.65,19.65,0,0,0,3.83-1.86,15.23,15.23,0,0,0,3.21-2.72,10.13,10.13,0,0,0,2.08-3.58l.05.23a27.55,27.55,0,0,0-3.37-3.54,23.27,23.27,0,0,0-4-2.82,26,26,0,0,0-4.47-2c-.78-.27-1.57-.51-2.36-.73S2311,1680,2310.19,1679.73Z"/><path class="cls-3" d="M2352.92,1694.09c.78.27,1.61.36,2.41.55s1.62.36,2.41.6a26.38,26.38,0,0,1,4.61,1.88,21.86,21.86,0,0,1,4.11,2.82,24.62,24.62,0,0,1,3.47,3.6h0a.25.25,0,0,1,.05.22,10.44,10.44,0,0,1-2.23,3.78,13.93,13.93,0,0,1-3.38,2.74,18.8,18.8,0,0,1-3.95,1.75c-.69.21-1.4.36-2.09.55l-2.12.36,2.09-.49c.68-.22,1.37-.41,2-.66a19.61,19.61,0,0,0,3.83-1.85,15.28,15.28,0,0,0,3.21-2.73,9.9,9.9,0,0,0,2.08-3.58l.05.23a28.21,28.21,0,0,0-3.37-3.54,23.21,23.21,0,0,0-4-2.81,24.55,24.55,0,0,0-4.47-2c-.78-.27-1.56-.52-2.36-.73A22.26,22.26,0,0,1,2352.92,1694.09Z"/><path class="cls-3" d="M2232.87,1631c.78.27,1.61.36,2.41.55s1.62.36,2.41.59a25.58,25.58,0,0,1,4.6,1.89,22.26,22.26,0,0,1,4.12,2.82,24.55,24.55,0,0,1,3.46,3.6h0a.24.24,0,0,1,0,.22,10.52,10.52,0,0,1-2.23,3.78,14.11,14.11,0,0,1-3.37,2.74,18.65,18.65,0,0,1-4,1.75c-.69.21-1.39.36-2.09.55l-2.12.36,2.09-.49c.68-.22,1.37-.41,2-.66a19.89,19.89,0,0,0,3.83-1.85,15.28,15.28,0,0,0,3.21-2.73,10,10,0,0,0,2.07-3.58l.05.23a27.51,27.51,0,0,0-3.37-3.54,22.81,22.81,0,0,0-4-2.82,25.75,25.75,0,0,0-4.48-2c-.77-.27-1.56-.51-2.35-.72S2233.64,1631.28,2232.87,1631Z"/><path class="cls-3" d="M2191,1615.57c-3.69,1.72-7.28,3.67-10.78,5.74s-6.92,4.3-10.22,6.67a106.06,106.06,0,0,0-9.51,7.65,85.26,85.26,0,0,0-8.41,8.8.24.24,0,0,1-.34,0h0a180.82,180.82,0,0,0-14.56-12.06,157.61,157.61,0,0,0-15.77-10.44,104,104,0,0,0-17.11-8,75.28,75.28,0,0,0-9.08-2.61,55.93,55.93,0,0,0-9.39-1.17,60.11,60.11,0,0,1,18.57,3.5,103.89,103.89,0,0,1,17.21,7.93,163.85,163.85,0,0,1,30.46,22.51l-.35,0a86.27,86.27,0,0,1,8.51-8.8,106.36,106.36,0,0,1,9.59-7.61,122.23,122.23,0,0,1,10.3-6.59C2183.7,1619.11,2187.32,1617.22,2191,1615.57Z"/><path class="cls-3" d="M2151.93,1644.28a11.57,11.57,0,0,1-2.1,2.72l-.61.62-.65.57c-.43.37-.86.76-1.33,1.1l-1.38,1-1.45.94c-.95.66-2,1.18-3,1.75a80.26,80.26,0,0,1-12.74,5.32c-2.2.67-4.4,1.35-6.63,1.94s-4.46,1.16-6.71,1.6-4.51,1-6.78,1.34l-6.81,1.13-.05-.44a56.24,56.24,0,0,1,25.69,5.89,27.43,27.43,0,0,1,2.92,1.58c.95.58,1.91,1.13,2.84,1.73a53.36,53.36,0,0,1,5.24,4.09,55,55,0,0,1,8.8,9.92.19.19,0,0,1,0,.26,49.84,49.84,0,0,1-10.17,6.73,75.52,75.52,0,0,1-11.27,4.61c-2,.53-3.9,1.17-5.9,1.55-1,.21-2,.45-3,.64l-3,.48-1.51.24-1.51.15-3,.31c-2,.16-4.05.2-6.08.3,2-.13,4.06-.2,6.07-.38l3-.35,1.51-.18,1.5-.26,3-.52c1-.2,2-.45,3-.67,2-.42,3.91-1,5.86-1.6a74.44,74.44,0,0,0,11.2-4.64,49,49,0,0,0,10-6.71l0,.27a54.85,54.85,0,0,0-8.78-9.79,51.85,51.85,0,0,0-5.2-4c-.92-.6-1.88-1.14-2.82-1.71a27.79,27.79,0,0,0-2.9-1.54,55.4,55.4,0,0,0-12.37-4.46,53.71,53.71,0,0,0-13.05-1.48h0a.22.22,0,0,1,0-.44l6.81-1.09c2.27-.37,4.51-.88,6.77-1.31s4.47-1,6.71-1.57,4.42-1.24,6.62-1.9a85.92,85.92,0,0,0,12.74-5.19c1-.55,2-1.06,3-1.7l1.46-.92,1.39-1a15.57,15.57,0,0,0,1.35-1.08l.65-.56.61-.6A11.32,11.32,0,0,0,2151.93,1644.28Z"/><path class="cls-3" d="M2190.68,1715.38a51.71,51.71,0,0,0-7.83-11.07,53.76,53.76,0,0,0-10.28-8.82,48.83,48.83,0,0,0-12.22-5.77,52.52,52.52,0,0,0-13.33-2.22.27.27,0,0,1-.27-.29.27.27,0,0,1,.24-.26h0c2.21-.27,4.43-.44,6.63-.78l3.27-.66,1.64-.33,1.6-.47,3.2-.94c1-.38,2.07-.81,3.11-1.21l1.55-.61,1.5-.75c1-.51,2-1,3-1.52a50.2,50.2,0,0,0,10.61-8.06,40.84,40.84,0,0,0,8-10.68,40.84,40.84,0,0,1-7.77,10.87,50,50,0,0,1-10.61,8.19c-1,.57-2,1-3,1.55l-1.5.76-1.56.63c-1,.41-2.08.86-3.13,1.24l-3.22,1-1.61.48-1.65.34-3.29.69c-2.21.36-4.45.55-6.67.83V1687a49.28,49.28,0,0,1,19.8,4.85,50.47,50.47,0,0,1,5.94,3.38,53.76,53.76,0,0,1,10.27,9A51.63,51.63,0,0,1,2190.68,1715.38Z"/><path class="cls-3" d="M2059.79,1636.33a52.1,52.1,0,0,0,7.84,11.07,54,54,0,0,0,10.27,8.82,48.69,48.69,0,0,0,12.23,5.78,52.87,52.87,0,0,0,13.33,2.21.29.29,0,0,1,.27.29.27.27,0,0,1-.25.26h0c-2.21.27-4.43.44-6.63.79l-3.27.65-1.64.33-1.6.47-3.2.94c-1.05.38-2.07.81-3.11,1.21l-1.55.61-1.5.75c-1,.51-2,1-3,1.52a50.4,50.4,0,0,0-10.6,8.06,41.1,41.1,0,0,0-8,10.68,41.1,41.1,0,0,1,7.78-10.87,50.28,50.28,0,0,1,10.61-8.19c1-.57,2-1,3-1.55l1.5-.76,1.56-.63c1-.41,2.07-.85,3.13-1.24l3.22-1,1.61-.49,1.64-.34,3.3-.69c2.21-.36,4.45-.55,6.67-.83v.56a53.43,53.43,0,0,1-13.45-2.33,51.83,51.83,0,0,1-6.35-2.53,50.47,50.47,0,0,1-5.94-3.38,53.42,53.42,0,0,1-10.27-9A52,52,0,0,1,2059.79,1636.33Z"/><path class="cls-3" d="M2015.78,1609.11a51.75,51.75,0,0,0,7.84,11.07,53.4,53.4,0,0,0,10.27,8.82,51.93,51.93,0,0,0,5.91,3.32,50.83,50.83,0,0,0,6.31,2.45,52.52,52.52,0,0,0,13.33,2.22.27.27,0,0,1,.27.29.26.26,0,0,1-.24.26h0c-2.2.27-4.43.44-6.62.79l-3.28.65-1.63.33-1.6.47-3.21.94c-1,.38-2.07.81-3.11,1.21l-1.55.61-1.49.75c-1,.51-2,1-3,1.52a50.14,50.14,0,0,0-10.6,8.06,40.87,40.87,0,0,0-8,10.68,41.29,41.29,0,0,1,7.77-10.87,50.54,50.54,0,0,1,10.61-8.19c1-.57,2-1,3-1.55l1.5-.76,1.56-.63c1.05-.41,2.08-.86,3.13-1.24l3.22-1,1.61-.49,1.65-.34,3.29-.69c2.21-.36,4.45-.55,6.67-.83v.55a53,53,0,0,1-13.45-2.32,54.16,54.16,0,0,1-6.35-2.53,51.29,51.29,0,0,1-5.94-3.38,53.42,53.42,0,0,1-10.27-9A51.63,51.63,0,0,1,2015.78,1609.11Z"/><path class="cls-3" d="M1982.4,1642a43.65,43.65,0,0,0,14.37,15.69l1.12.74c.37.24.78.43,1.17.65.79.41,1.57.87,2.37,1.25a38.8,38.8,0,0,0,5,1.9l1.28.39a8.13,8.13,0,0,0,1.29.33l2.63.51a18.23,18.23,0,0,0,2.66.32l2.66.24a.27.27,0,0,1,.26.3.29.29,0,0,1-.25.25c-1.74.21-3.5.34-5.24.61l-2.59.52-1.29.25-1.27.38-2.53.74c-.83.3-1.64.64-2.46,1l-1.23.49-1.18.58c-.78.41-1.59.76-2.35,1.21a39.44,39.44,0,0,0-8.39,6.37,32.1,32.1,0,0,0-6.33,8.43,32.11,32.11,0,0,1,6.14-8.62,39.26,39.26,0,0,1,8.4-6.5c.76-.46,1.57-.82,2.36-1.24l1.18-.6,1.24-.5c.83-.33,1.64-.68,2.48-1l2.55-.78,1.27-.38,1.31-.28,2.61-.54c1.75-.29,3.52-.44,5.28-.66v.55l-2.7-.25a18.56,18.56,0,0,1-2.68-.36l-2.66-.54a8.4,8.4,0,0,1-1.31-.34l-1.29-.41a38.81,38.81,0,0,1-5-2c-.81-.39-1.59-.85-2.38-1.28-.39-.22-.8-.42-1.18-.67l-1.12-.75a41.09,41.09,0,0,1-14.17-16Z"/><path class="cls-3" d="M2081.44,1624.26a11.64,11.64,0,0,1-3,6.19,18.63,18.63,0,0,1-5.49,4.29,22.49,22.49,0,0,1-6.61,2.16,26.94,26.94,0,0,1-3.46.39c-1.16,0-2.31,0-3.47,0,1.16-.11,2.31-.11,3.45-.25a29.19,29.19,0,0,0,3.39-.54,23.12,23.12,0,0,0,6.44-2.24,18.55,18.55,0,0,0,5.43-4.08,16.23,16.23,0,0,0,2.05-2.73A8.88,8.88,0,0,0,2081.44,1624.26Z"/><path class="cls-3" d="M1958.85,1667.47a31.57,31.57,0,0,0,3.46.81c1.15.26,2.31.54,3.44.89a36.72,36.72,0,0,1,6.58,2.74,31.47,31.47,0,0,1,5.88,4,35.84,35.84,0,0,1,4.94,5.14h0a.25.25,0,0,1,0,.22,14.71,14.71,0,0,1-3.16,5.39,20.45,20.45,0,0,1-4.81,3.93l-1.35.77c-.46.23-.94.43-1.4.65a28.18,28.18,0,0,1-2.89,1.11c-1,.31-2,.54-3,.81l-3,.55,3-.68c1-.31,2-.57,2.93-.92s1.93-.69,2.84-1.17c.45-.23.92-.44,1.37-.68l1.31-.79a21.8,21.8,0,0,0,4.65-3.91,14.47,14.47,0,0,0,3-5.18l.06.23a39,39,0,0,0-4.86-5.09,32.37,32.37,0,0,0-2.77-2.18c-1-.65-2-1.3-3-1.86a36.49,36.49,0,0,0-6.45-2.86q-1.67-.57-3.39-1A34.74,34.74,0,0,1,1958.85,1667.47Z"/><path class="cls-3" d="M2010.84,1688.85a31.4,31.4,0,0,0,3.45.81c1.16.26,2.31.54,3.45.89a37.32,37.32,0,0,1,6.57,2.73,32,32,0,0,1,5.88,4,35.91,35.91,0,0,1,5,5.14h0a.25.25,0,0,1,0,.22,14.87,14.87,0,0,1-3.17,5.39,20.4,20.4,0,0,1-4.8,3.93l-1.35.77c-.46.23-.94.43-1.41.65a26.51,26.51,0,0,1-2.89,1.11c-1,.31-2,.54-3,.81l-3,.55,3-.68c1-.31,2-.57,2.93-.92s1.93-.69,2.83-1.17c.46-.23.92-.44,1.37-.68l1.32-.79a21.5,21.5,0,0,0,4.64-3.91,14.35,14.35,0,0,0,3-5.18l0,.23a38.93,38.93,0,0,0-4.85-5.09,34,34,0,0,0-2.77-2.18c-1-.65-2-1.3-3-1.86a36.81,36.81,0,0,0-6.45-2.86q-1.68-.57-3.39-1A33.27,33.27,0,0,1,2010.84,1688.85Z"/><path class="cls-3" d="M2195.37,1628.48c.78.26,1.61.35,2.41.54s1.62.36,2.41.6a25.58,25.58,0,0,1,4.6,1.89,22.21,22.21,0,0,1,4.12,2.81,25.06,25.06,0,0,1,3.46,3.6h0a.25.25,0,0,1,0,.22,10.44,10.44,0,0,1-2.23,3.78,14.11,14.11,0,0,1-3.37,2.75,19.72,19.72,0,0,1-4,1.75c-.69.21-1.39.36-2.09.54l-2.12.36,2.09-.48c.68-.23,1.37-.42,2-.66a20.54,20.54,0,0,0,3.83-1.86,15.23,15.23,0,0,0,3.21-2.72,10,10,0,0,0,2.07-3.58l.05.23a26.88,26.88,0,0,0-3.37-3.54,22.29,22.29,0,0,0-4-2.82,25.75,25.75,0,0,0-4.48-2c-.77-.27-1.56-.52-2.35-.73S2196.14,1628.79,2195.37,1628.48Z"/><path class="cls-3" d="M2042.65,1681.34a24.07,24.07,0,0,0,2.41.55c.81.16,1.61.36,2.41.59a25.88,25.88,0,0,1,4.6,1.89,22.26,22.26,0,0,1,4.12,2.82,24.55,24.55,0,0,1,3.46,3.6h0a.24.24,0,0,1,0,.22,10.52,10.52,0,0,1-2.23,3.78,14.31,14.31,0,0,1-3.37,2.74,18.88,18.88,0,0,1-4,1.75c-.69.21-1.4.36-2.09.55l-2.12.36,2.09-.49c.68-.22,1.37-.41,2-.66a19.81,19.81,0,0,0,3.82-1.85,15.33,15.33,0,0,0,3.22-2.73,9.87,9.87,0,0,0,2.07-3.58l0,.23a27.51,27.51,0,0,0-3.37-3.54,22.89,22.89,0,0,0-4-2.82,25.66,25.66,0,0,0-4.47-2c-.77-.27-1.56-.51-2.36-.72A23.85,23.85,0,0,1,2042.65,1681.34Z"/><path class="cls-3" d="M2085.38,1695.71a22.07,22.07,0,0,0,2.41.54c.81.17,1.61.36,2.41.6a25.58,25.58,0,0,1,4.6,1.89,22.21,22.21,0,0,1,4.12,2.81,25.06,25.06,0,0,1,3.46,3.6h0a.25.25,0,0,1,0,.22,10.44,10.44,0,0,1-2.23,3.78,14.11,14.11,0,0,1-3.37,2.75,19.17,19.17,0,0,1-4,1.75c-.69.21-1.39.36-2.09.54l-2.12.36,2.09-.48c.68-.22,1.37-.41,2-.66a19.93,19.93,0,0,0,3.83-1.86,15.23,15.23,0,0,0,3.21-2.72,10,10,0,0,0,2.07-3.58l0,.23a26.88,26.88,0,0,0-3.37-3.54,23.19,23.19,0,0,0-4-2.82,25.75,25.75,0,0,0-4.48-2c-.77-.27-1.56-.51-2.35-.73A24,24,0,0,1,2085.38,1695.71Z"/><path class="cls-3" d="M1965.32,1632.57a24.27,24.27,0,0,0,2.42.55c.8.17,1.61.36,2.41.6a25.88,25.88,0,0,1,4.6,1.89,21.35,21.35,0,0,1,4.11,2.81,25.13,25.13,0,0,1,3.47,3.6h0a.25.25,0,0,1,.05.22,10.44,10.44,0,0,1-2.23,3.78,14,14,0,0,1-3.38,2.75,19.29,19.29,0,0,1-4,1.74c-.69.21-1.4.37-2.09.55l-2.12.36,2.09-.48c.68-.23,1.37-.42,2-.67a19.81,19.81,0,0,0,3.82-1.85,15.23,15.23,0,0,0,3.21-2.72,10,10,0,0,0,2.08-3.59l.05.23a28.92,28.92,0,0,0-3.37-3.54,23.21,23.21,0,0,0-4-2.81,26,26,0,0,0-4.47-2c-.78-.27-1.56-.52-2.36-.73A22.26,22.26,0,0,1,1965.32,1632.57Z"/><path class="cls-3" d="M1918.65,1613.37a121.94,121.94,0,0,0-12,2.37c-4,1-7.87,2.11-11.72,3.42a106.43,106.43,0,0,0-11.31,4.56,85.66,85.66,0,0,0-10.61,6,.23.23,0,0,1-.33-.07h0a180.62,180.62,0,0,0-10.43-15.77,158.51,158.51,0,0,0-12.07-14.56,105.17,105.17,0,0,0-14-12.62,76.23,76.23,0,0,0-7.94-5.13,55.58,55.58,0,0,0-8.64-3.84,59.87,59.87,0,0,1,16.75,8.73,104.58,104.58,0,0,1,14.18,12.58,162.93,162.93,0,0,1,22.61,30.38l-.34-.08a86.18,86.18,0,0,1,10.71-6,107.19,107.19,0,0,1,11.38-4.5c3.87-1.29,7.79-2.42,11.77-3.32S1914.61,1613.87,1918.65,1613.37Z"/><path class="cls-3" d="M1872.9,1629.51a12,12,0,0,1-2.8,2l-.76.41-.79.36c-.53.23-1,.48-1.59.66l-1.63.6-1.66.47c-1.1.36-2.23.56-3.35.81a79.14,79.14,0,0,1-13.74,1.4c-2.3,0-4.6,0-6.9-.07s-4.61-.18-6.9-.41-4.59-.39-6.87-.68l-6.85-.9.09-.43A56.21,56.21,0,0,1,1842,1646.8a29,29,0,0,1,2.34,2.36c.74.83,1.5,1.64,2.21,2.49a51.1,51.1,0,0,1,3.83,5.43,54.78,54.78,0,0,1,5.55,12,.2.2,0,0,1-.1.24,50.08,50.08,0,0,1-11.69,3.49A74.68,74.68,0,0,1,1832,1674c-2-.06-4.06,0-6.08-.22-1-.08-2-.14-3-.25l-3-.41-1.51-.21-1.49-.29-3-.58c-2-.44-3.93-1-5.9-1.48,2,.46,3.94,1,5.92,1.39l3,.54,1.5.27,1.51.19,3,.37c1,.1,2,.14,3,.21,2,.18,4,.13,6.07.18a75.14,75.14,0,0,0,12.07-1.2,49.81,49.81,0,0,0,11.56-3.5l-.11.24a54.73,54.73,0,0,0-5.55-11.91,53.14,53.14,0,0,0-3.82-5.36c-.71-.84-1.47-1.63-2.2-2.45a30,30,0,0,0-2.33-2.32,56.25,56.25,0,0,0-10.54-7.86,53.9,53.9,0,0,0-12.07-5.19h0a.24.24,0,0,1-.16-.28.24.24,0,0,1,.25-.16l6.83.93c2.28.31,4.57.47,6.85.71s4.59.29,6.88.45,4.59.09,6.89.1a87.37,87.37,0,0,0,13.7-1.27c1.12-.24,2.26-.43,3.36-.76l1.66-.46,1.62-.56c.55-.18,1.07-.42,1.6-.65l.79-.34.76-.4A12,12,0,0,0,1872.9,1629.51Z"/><path class="cls-3" d="M1889.37,1708.79a51.71,51.71,0,0,0-4.3-12.87,53.28,53.28,0,0,0-7.27-11.42,50.48,50.48,0,0,0-4.7-4.89,49.13,49.13,0,0,0-17.44-10.17.28.28,0,0,1-.17-.35.27.27,0,0,1,.31-.18h0c2.19.38,4.37.87,6.57,1.17l3.32.33,1.67.16H1869l3.34,0c1.11-.06,2.22-.18,3.33-.26l1.66-.13,1.65-.28c1.09-.21,2.2-.34,3.28-.6a50.23,50.23,0,0,0,12.49-4.64,41.18,41.18,0,0,0,10.72-7.91,41.26,41.26,0,0,1-10.59,8.15,50.53,50.53,0,0,1-12.53,4.76c-1.09.27-2.21.41-3.31.62l-1.65.3-1.68.14c-1.12.1-2.23.22-3.35.28h-5.05l-1.67-.15-3.35-.3c-2.22-.29-4.42-.77-6.63-1.14l.15-.53A53,53,0,0,1,1868,1675a54.9,54.9,0,0,1,5.35,4.26,51.55,51.55,0,0,1,11.93,16.5A52.1,52.1,0,0,1,1889.37,1708.79Z"/><path class="cls-3" d="M1758.42,1544.87a89.21,89.21,0,0,0-8.84-2.21c-3-.59-6-1.09-9-1.43a79,79,0,0,0-9.09-.53,63.88,63.88,0,0,0-9.06.65.24.24,0,0,1-.27-.21h0a140.64,140.64,0,0,0-2-14,116.93,116.93,0,0,0-3.47-13.67,78,78,0,0,0-5.42-13,46.18,46.18,0,0,0-8.28-11.38,45,45,0,0,1,8.54,11.23,77.9,77.9,0,0,1,5.55,13,120.58,120.58,0,0,1,5.55,27.74l-.27-.22a63.43,63.43,0,0,1,9.13-.58,79.67,79.67,0,0,1,9.13.6c3,.38,6,.87,9,1.55A88.73,88.73,0,0,1,1758.42,1544.87Z"/><path class="cls-3" d="M1722.39,1541.12a13.48,13.48,0,0,1-5.1.42l-1.29-.12-1.27-.2c-.86-.12-1.69-.34-2.53-.53a59.06,59.06,0,0,1-9.72-3.43c-1.56-.73-3.11-1.47-4.64-2.26s-3-1.59-4.52-2.48-3-1.72-4.43-2.65l-4.33-2.8.26-.35a41.89,41.89,0,0,1,11.27,16.16,42,42,0,0,1,1.52,4.73,38.92,38.92,0,0,1,.85,4.9,41.07,41.07,0,0,1-.12,9.91.2.2,0,0,1-.2.18,37.51,37.51,0,0,1-9-1.39,55,55,0,0,1-8.55-3.12,59.17,59.17,0,0,1-7.9-4.5l-1-.63-.92-.67-1.82-1.36c-1.2-.93-2.34-1.93-3.51-2.89,1.19.94,2.35,1.92,3.56,2.83l1.85,1.31.92.66,1,.61,1.92,1.21c.65.38,1.32.73,2,1.1,1.3.77,2.68,1.38,4,2.06a55,55,0,0,0,8.52,3,37,37,0,0,0,8.91,1.33l-.2.18a40.68,40.68,0,0,0,0-9.8,39.38,39.38,0,0,0-.86-4.83,43.77,43.77,0,0,0-1.53-4.66,42,42,0,0,0-4.59-8.66,40.13,40.13,0,0,0-6.46-7.36h0a.22.22,0,0,1,.27-.35l4.3,2.81c1.44.93,2.93,1.78,4.4,2.68s3,1.66,4.49,2.5,3.06,1.53,4.61,2.27a65.11,65.11,0,0,0,9.64,3.54c.83.2,1.66.44,2.5.57l1.27.22,1.28.14A13.22,13.22,0,0,0,1722.39,1541.12Z"/><path class="cls-3" d="M1708.14,1599.87a39.2,39.2,0,0,0,1.19-10,38.8,38.8,0,0,0-1.32-10,20.42,20.42,0,0,0-.73-2.42c-.29-.79-.54-1.59-.86-2.37a38,38,0,0,0-2.28-4.5,22.54,22.54,0,0,0-1.34-2.14l-1.5-2a16.62,16.62,0,0,0-1.65-1.91l-1.71-1.86a.28.28,0,0,1,.37-.41c1.35,1,2.66,2,4,2.88l2.14,1.28,1.06.64,1.12.54,2.24,1.08c.77.31,1.55.59,2.33.89l1.16.44,1.2.33c.8.22,1.59.49,2.4.66a37.29,37.29,0,0,0,9.88.9,30.51,30.51,0,0,0,9.77-1.87,30.76,30.76,0,0,1-9.75,2.14,37.34,37.34,0,0,1-10-.76c-.82-.16-1.62-.42-2.43-.62l-1.22-.33-1.18-.44c-.78-.3-1.57-.57-2.35-.89l-2.27-1.08-1.14-.54-1.08-.64-2.17-1.28c-1.4-.91-2.73-1.93-4.11-2.9l.37-.41,1.73,1.88a17.92,17.92,0,0,1,1.65,2l1.52,2.06a25.55,25.55,0,0,1,1.35,2.18,36.11,36.11,0,0,1,2.29,4.57c.32.79.57,1.6.85,2.41a17.53,17.53,0,0,1,.7,2.45,39.18,39.18,0,0,1-.28,20.17Z"/><path class="cls-3" d="M1787,1595.18a51.63,51.63,0,0,0,4.3,12.86,53.35,53.35,0,0,0,7.27,11.43,50.37,50.37,0,0,0,4.7,4.88,48.7,48.7,0,0,0,17.44,10.17.28.28,0,0,1,.17.35.27.27,0,0,1-.31.19h0c-2.19-.38-4.37-.87-6.57-1.17l-3.32-.32-1.67-.16-1.66,0-3.34,0c-1.11.06-2.22.17-3.33.25l-1.66.14-1.65.28c-1.09.2-2.2.33-3.28.6a50.23,50.23,0,0,0-12.49,4.64,40.92,40.92,0,0,0-10.72,7.9,40.88,40.88,0,0,1,10.6-8.14,49.85,49.85,0,0,1,12.53-4.76c1.08-.27,2.2-.42,3.3-.63l1.65-.29,1.68-.15c1.12-.09,2.23-.21,3.35-.28h5l1.67.15,3.35.31c2.22.29,4.42.76,6.63,1.13l-.15.54a53.45,53.45,0,0,1-12.2-6.13,50.87,50.87,0,0,1-5.34-4.26,52.41,52.41,0,0,1-4.71-5,53.83,53.83,0,0,1-7.23-11.55A52,52,0,0,1,1787,1595.18Z"/><path class="cls-3" d="M1773.27,1549.7a51.52,51.52,0,0,0-1.12,13.51,53.6,53.6,0,0,0,2.18,13.37,52.56,52.56,0,0,0,2.39,6.34,51,51,0,0,0,3.25,5.94,52.91,52.91,0,0,0,8.78,10.28.28.28,0,0,1,0,.39.29.29,0,0,1-.36,0h0c-1.86-1.22-3.67-2.52-5.58-3.67l-2.92-1.61-1.47-.8-1.53-.67-3.05-1.34c-1-.38-2.11-.71-3.16-1.07l-1.58-.53-1.63-.4c-1.08-.24-2.15-.56-3.25-.74a50.27,50.27,0,0,0-13.3-.65,40.52,40.52,0,0,0-13,3,41,41,0,0,1,12.94-3.31,49.75,49.75,0,0,1,13.4.56c1.1.18,2.18.49,3.28.72l1.64.39,1.59.52c1.07.36,2.14.68,3.19,1.06l3.09,1.33,1.55.67,1.48.79,3,1.6c1.93,1.14,3.76,2.45,5.65,3.66l-.35.43a49.7,49.7,0,0,1-12-16.46,51.82,51.82,0,0,1-2.37-6.41,53.35,53.35,0,0,1-2.09-13.46A52,52,0,0,1,1773.27,1549.7Z"/><path class="cls-3" d="M1678.84,1483.51a46.91,46.91,0,0,0-2.68,11.76,45.72,45.72,0,0,0,.28,12l.22,1.49c.07.5.22,1,.33,1.47.24,1,.44,2,.72,2.92a44.34,44.34,0,0,0,2.16,5.62l.63,1.37a10,10,0,0,0,.69,1.34l1.54,2.58a19.84,19.84,0,0,0,1.72,2.47l1.8,2.41a.28.28,0,0,1-.41.38c-1.48-1.31-2.91-2.68-4.44-3.93l-2.37-1.79-1.19-.89-1.26-.78-2.52-1.57c-.87-.47-1.76-.89-2.64-1.34l-1.33-.67-1.38-.55c-.92-.35-1.82-.77-2.77-1.07a44.63,44.63,0,0,0-11.62-2.26,36.37,36.37,0,0,0-11.8,1,36.45,36.45,0,0,1,11.81-1.3,45.08,45.08,0,0,1,11.73,2.18c1,.3,1.87.71,2.8,1.06l1.39.54,1.35.66c.89.45,1.79.87,2.67,1.34l2.56,1.56,1.28.78,1.2.89,2.41,1.78c1.55,1.25,3,2.63,4.51,3.93l-.41.38-1.81-2.45a22.21,22.21,0,0,1-1.71-2.51l-1.54-2.63a9.64,9.64,0,0,1-.69-1.36l-.62-1.39a43.72,43.72,0,0,1-2.14-5.69c-.28-1-.47-2-.71-3-.1-.49-.25-1-.32-1.48l-.21-1.51a46.46,46.46,0,0,1,2.77-23.84Z"/><path class="cls-3" d="M1693.68,1431.4a90.22,90.22,0,0,0-7.08-5.75c-2.46-1.8-5-3.52-7.55-5.11a79.22,79.22,0,0,0-8-4.32,62.68,62.68,0,0,0-8.49-3.25.24.24,0,0,1-.15-.3h0a135.4,135.4,0,0,0,4.1-13.5,116.79,116.79,0,0,0,2.65-13.86,78,78,0,0,0,.59-14.08,45.86,45.86,0,0,0-2.69-13.81,44.56,44.56,0,0,1,3,13.79,78.72,78.72,0,0,1-.48,14.15,118.16,118.16,0,0,1-2.55,13.94,115,115,0,0,1-4.17,13.54l-.15-.31a64.29,64.29,0,0,1,8.52,3.33,79.86,79.86,0,0,1,8,4.42c2.58,1.62,5.1,3.34,7.51,5.21A90.88,90.88,0,0,1,1693.68,1431.4Z"/><path class="cls-3" d="M1662.62,1412.74a13.27,13.27,0,0,1-4.8-1.77l-1.12-.65-1.07-.73c-.72-.46-1.38-1-2.06-1.54a59.14,59.14,0,0,1-7.36-7.23c-1.1-1.32-2.2-2.64-3.25-4s-2.09-2.73-3-4.16-2-2.82-2.88-4.28l-2.75-4.36.39-.21a40.06,40.06,0,0,1,2.84,9.51,40.56,40.56,0,0,1,.54,9.9,42.86,42.86,0,0,1-.63,4.93,39.57,39.57,0,0,1-1.31,4.8,41.27,41.27,0,0,1-4.3,8.93.21.21,0,0,1-.26.08,37.27,37.27,0,0,1-7.57-5.08,56.76,56.76,0,0,1-6.43-6.45,58.15,58.15,0,0,1-5.25-7.42l-.6-1-.54-1-1.08-2c-.69-1.34-1.3-2.73-1.95-4.1.68,1.36,1.31,2.73,2,4.07l1.12,2,.56,1,.61,1,1.23,1.91c.42.63.88,1.23,1.32,1.84.86,1.24,1.85,2.39,2.79,3.57a56,56,0,0,0,6.43,6.36,36.5,36.5,0,0,0,7.51,5l-.26.08a40.18,40.18,0,0,0,5.46-13.59,43.7,43.7,0,0,0,.09-14.66,40.23,40.23,0,0,0-2.73-9.4h0a.22.22,0,0,1,.12-.29.24.24,0,0,1,.28.09l2.71,4.37c.9,1.46,1.9,2.85,2.84,4.28s2,2.78,3,4.17,2.12,2.69,3.21,4a67.25,67.25,0,0,0,7.24,7.28c.67.53,1.31,1.1,2,1.58l1,.74,1.09.67A13.34,13.34,0,0,0,1662.62,1412.74Z"/><path class="cls-3" d="M1624.84,1459.94a40.69,40.69,0,0,0,8.37-18.23,18.9,18.9,0,0,0,.36-2.49c.07-.84.19-1.68.23-2.52a36.86,36.86,0,0,0-.16-5,23.38,23.38,0,0,0-.31-2.5l-.51-2.47a16.82,16.82,0,0,0-.68-2.43l-.76-2.41a.27.27,0,0,1,.5-.22c.82,1.44,1.58,2.92,2.45,4.33l1.4,2.06.7,1,.78,1,1.58,1.92c.56.61,1.15,1.19,1.72,1.79l.87.89.94.81c.64.54,1.24,1.11,1.9,1.61a37.21,37.21,0,0,0,8.58,5,30.46,30.46,0,0,0,9.63,2.43,30.67,30.67,0,0,1-9.74-2.18,37.75,37.75,0,0,1-8.73-4.92c-.68-.49-1.29-1.07-1.94-1.6l-1-.81-.88-.9c-.59-.6-1.19-1.18-1.76-1.8l-1.6-1.94-.8-1-.71-1-1.42-2.08c-.89-1.41-1.67-2.91-2.5-4.36l.51-.22.76,2.44a18,18,0,0,1,.68,2.46l.5,2.51a22,22,0,0,1,.3,2.54,37.93,37.93,0,0,1,.14,5.11c0,.86-.16,1.7-.24,2.55a19.46,19.46,0,0,1-.41,2.52,38.52,38.52,0,0,1-3.22,9.66A39,39,0,0,1,1624.84,1459.94Z"/><path class="cls-3" d="M1647.55,1342.12a48.84,48.84,0,0,0-12.25,20.53l-.44,1.45c-.14.48-.21,1-.32,1.47-.19,1-.43,2-.58,3a44.71,44.71,0,0,0-.42,6V1376a9.41,9.41,0,0,0,.06,1.5l.3,3a21.44,21.44,0,0,0,.51,3l.61,3a.28.28,0,0,1-.21.33.29.29,0,0,1-.31-.17c-.8-1.81-1.51-3.66-2.36-5.44l-1.4-2.62-.7-1.31-.81-1.24-1.62-2.49c-.59-.79-1.22-1.56-1.82-2.34l-.92-1.16-1-1.09c-.69-.7-1.33-1.46-2-2.13a44.33,44.33,0,0,0-9.58-7,36.51,36.51,0,0,0-11.13-4.07,36.7,36.7,0,0,1,11.26,3.83,44.59,44.59,0,0,1,9.7,6.94c.74.67,1.39,1.43,2.09,2.14l1,1.08.94,1.17c.62.78,1.26,1.55,1.86,2.35l1.65,2.49.83,1.25.72,1.31,1.42,2.63c.88,1.79,1.61,3.65,2.42,5.48l-.52.17-.6-3a21.83,21.83,0,0,1-.5-3l-.27-3a9.71,9.71,0,0,1-.06-1.52l0-1.53a45.68,45.68,0,0,1,.48-6.06c.16-1,.41-2,.61-3,.11-.49.19-1,.34-1.48l.44-1.45a46.4,46.4,0,0,1,12.61-20.43Z"/><path class="cls-3" d="M1919.05,1627c.67.48,1.44.8,2.15,1.22s1.44.81,2.13,1.27a25.84,25.84,0,0,1,3.86,3.14,22.09,22.09,0,0,1,3.12,3.89,24.14,24.14,0,0,1,2.27,4.44v0a.24.24,0,0,1,0,.22,10.54,10.54,0,0,1-3.24,3,14,14,0,0,1-4,1.65,18.94,18.94,0,0,1-4.29.53c-.72,0-1.44-.06-2.16-.09l-2.13-.27,2.14.15c.71,0,1.43,0,2.14,0a20.42,20.42,0,0,0,4.2-.66,15.42,15.42,0,0,0,3.86-1.68,10,10,0,0,0,3-2.82l0,.23a28.27,28.27,0,0,0-2.2-4.36,22.89,22.89,0,0,0-3-3.86,25.28,25.28,0,0,0-3.7-3.22q-1-.72-2-1.38A23.77,23.77,0,0,1,1919.05,1627Z"/><path class="cls-3" d="M1697,1463.05a21.41,21.41,0,0,0,.89,2.3c.31.77.6,1.55.84,2.34a25.22,25.22,0,0,1,1,4.87,21.91,21.91,0,0,1,0,5,24.68,24.68,0,0,1-1,4.88h0a.22.22,0,0,1-.16.16,10.49,10.49,0,0,1-4.38.26,14.05,14.05,0,0,1-4.16-1.28,18.82,18.82,0,0,1-3.66-2.31c-.55-.45-1.07-1-1.61-1.43l-1.48-1.56,1.56,1.47c.57.44,1.11.9,1.69,1.32a19.54,19.54,0,0,0,3.67,2.14,14.85,14.85,0,0,0,4.05,1.15,10,10,0,0,0,4.13-.27l-.16.17a27.85,27.85,0,0,0,1.06-4.77,22.84,22.84,0,0,0,.11-4.89,24.76,24.76,0,0,0-.82-4.83c-.21-.8-.44-1.59-.71-2.37A21.4,21.4,0,0,1,1697,1463.05Z"/><path class="cls-3" d="M1606.69,1376.68a23.75,23.75,0,0,0,.89,2.3c.31.77.6,1.55.85,2.34a26,26,0,0,1,1,4.87,21.91,21.91,0,0,1,0,5,24.71,24.71,0,0,1-1.06,4.88h0a.25.25,0,0,1-.16.16,10.54,10.54,0,0,1-4.39.26,13.9,13.9,0,0,1-4.15-1.28,18.82,18.82,0,0,1-3.66-2.31c-.56-.45-1.08-1-1.62-1.43l-1.48-1.56,1.57,1.47c.56.44,1.1.9,1.68,1.32a19.86,19.86,0,0,0,3.67,2.14,14.82,14.82,0,0,0,4.06,1.15,9.88,9.88,0,0,0,4.13-.27l-.17.17a27.87,27.87,0,0,0,1.07-4.77,23.51,23.51,0,0,0,.11-4.89,25.56,25.56,0,0,0-.83-4.83c-.2-.8-.44-1.59-.7-2.37A23.84,23.84,0,0,1,1606.69,1376.68Z"/><path class="cls-3" d="M1653.45,1316.78c-.11,1,0,2.11,0,3.17s0,2.12-.08,3.18a32.65,32.65,0,0,1-1.08,6.27,28.37,28.37,0,0,1-2.35,5.94,32.5,32.5,0,0,1-3.51,5.33h0a.21.21,0,0,1-.2.09,13.38,13.38,0,0,1-5.34-1.69,18.41,18.41,0,0,1-4.38-3.42l-.93-1c-.29-.36-.57-.73-.85-1.1a23.63,23.63,0,0,1-1.54-2.3c-.46-.8-.86-1.63-1.29-2.45l-1.07-2.54,1.19,2.49c.46.79.89,1.6,1.39,2.37a25.53,25.53,0,0,0,3.39,4.28,19.6,19.6,0,0,0,4.33,3.26,12.92,12.92,0,0,0,5.1,1.59l-.21.1a34.47,34.47,0,0,0,3.47-5.24,28.85,28.85,0,0,0,2.38-5.81,32.35,32.35,0,0,0,1.22-6.18c.12-1,.19-2.1.23-3.16A30.25,30.25,0,0,1,1653.45,1316.78Z"/><path class="cls-3" d="M1654.18,1305c-1.71-2.52-3.57-4.94-5.51-7.27s-4-4.59-6.12-6.75a78,78,0,0,0-6.75-6.11,62.85,62.85,0,0,0-7.47-5.17.25.25,0,0,1-.08-.34h0a138.12,138.12,0,0,0,7.19-12.13,117.75,117.75,0,0,0,5.88-12.83,78.19,78.19,0,0,0,3.92-13.54,46.34,46.34,0,0,0,.68-14.05,44.5,44.5,0,0,1-.39,14.1,78.37,78.37,0,0,1-3.83,13.63,117.77,117.77,0,0,1-5.79,12.93,116,116,0,0,1-7.27,12.17l-.08-.34a64.15,64.15,0,0,1,7.49,5.26,78.82,78.82,0,0,1,6.72,6.2,91.26,91.26,0,0,1,6,6.84C1650.73,1300,1652.53,1302.47,1654.18,1305Z"/><path class="cls-3" d="M1628.45,1279.52a13.25,13.25,0,0,1-4.24-2.87l-.93-.9-.86-1c-.6-.63-1.1-1.33-1.64-2a57.71,57.71,0,0,1-5.43-8.77c-.75-1.54-1.51-3.09-2.2-4.66s-1.38-3.16-2-4.77-1.24-3.21-1.78-4.84l-1.63-4.9.43-.11a40.72,40.72,0,0,1,.49,9.92,39.91,39.91,0,0,1-1.84,9.74,42.66,42.66,0,0,1-1.78,4.64,39.15,39.15,0,0,1-2.41,4.35,41.31,41.31,0,0,1-6.31,7.65.19.19,0,0,1-.26,0,37,37,0,0,1-6.15-6.73,56.61,56.61,0,0,1-4.71-7.79,59.72,59.72,0,0,1-3.34-8.46l-.35-1.08-.28-1.1-.58-2.2c-.35-1.48-.61-3-.92-4.45.34,1.48.63,3,1,4.43l.62,2.18.3,1.1.37,1.07.74,2.14c.26.71.57,1.4.85,2.11.54,1.41,1.23,2.75,1.86,4.13a54.37,54.37,0,0,0,4.73,7.71,36.53,36.53,0,0,0,6.11,6.61l-.27,0a40.69,40.69,0,0,0,6.18-7.61,39,39,0,0,0,2.36-4.3,43.94,43.94,0,0,0,3.58-14.21,40,40,0,0,0-.43-9.78h0a.23.23,0,0,1,.18-.26.22.22,0,0,1,.25.15l1.6,4.9c.53,1.63,1.16,3.22,1.74,4.83s1.3,3.18,1.94,4.77,1.42,3.12,2.16,4.66a66.48,66.48,0,0,0,5.3,8.8c.52.68,1,1.38,1.59,2l.85,1,.9.91A13.26,13.26,0,0,0,1628.45,1279.52Z"/><path class="cls-3" d="M1580.52,1316.37a39.15,39.15,0,0,0,7.23-7.09,38.57,38.57,0,0,0,5.24-8.62,20.47,20.47,0,0,0,1-2.34c.27-.8.58-1.58.82-2.39a37.7,37.7,0,0,0,1-4.94,23.05,23.05,0,0,0,.3-2.5l.09-2.52a17.69,17.69,0,0,0-.08-2.52l-.17-2.52a.28.28,0,0,1,.26-.3.27.27,0,0,1,.28.21c.46,1.59.84,3.21,1.35,4.78l.87,2.34.43,1.16.53,1.13,1.07,2.24c.4.73.84,1.44,1.25,2.15l.64,1.07.72,1c.49.67.93,1.37,1.46,2a37.59,37.59,0,0,0,7.13,6.9,30.55,30.55,0,0,0,8.79,4.66,30.39,30.39,0,0,1-8.94-4.44,37.75,37.75,0,0,1-7.32-6.85c-.54-.64-1-1.35-1.5-2l-.74-1-.64-1.08c-.43-.72-.88-1.43-1.28-2.16l-1.1-2.27-.54-1.13-.45-1.18-.88-2.36c-.53-1.59-.92-3.22-1.39-4.83l.55-.09.16,2.55a16.72,16.72,0,0,1,.07,2.55l-.11,2.56a21.74,21.74,0,0,1-.31,2.54,39.07,39.07,0,0,1-1.08,5c-.25.81-.56,1.61-.84,2.41a19.5,19.5,0,0,1-1,2.35,39.19,39.19,0,0,1-12.86,15.54Z"/><path class="cls-3" d="M1630.62,1207.33a49,49,0,0,0-16.79,17l-.76,1.3c-.25.43-.44.9-.66,1.35-.42.91-.89,1.8-1.27,2.73a43.41,43.41,0,0,0-1.84,5.73l-.37,1.46a9.44,9.44,0,0,0-.29,1.48l-.43,3a21.51,21.51,0,0,0-.21,3l-.1,3a.29.29,0,0,1-.29.27.3.3,0,0,1-.27-.24c-.33-1.94-.58-3.91-1-5.85l-.73-2.87-.37-1.44-.49-1.4-1-2.8c-.39-.91-.82-1.8-1.22-2.71L1602,1229l-.73-1.29c-.5-.85-1-1.74-1.49-2.57a44.67,44.67,0,0,0-7.64-9,36.53,36.53,0,0,0-9.84-6.6,36.45,36.45,0,0,1,10,6.4,44.54,44.54,0,0,1,7.77,9c.55.82,1,1.71,1.52,2.57l.74,1.3.64,1.36c.41.9.85,1.8,1.24,2.72l1,2.81.5,1.41.38,1.45.76,2.89c.43,2,.7,3.93,1.05,5.9l-.55,0,.13-3a20.51,20.51,0,0,1,.24-3l.45-3a8.39,8.39,0,0,1,.31-1.49l.38-1.47a43.45,43.45,0,0,1,1.91-5.78c.39-.93.87-1.83,1.3-2.75.22-.45.42-.92.68-1.36l.78-1.3a46.3,46.3,0,0,1,7.45-9.56A46.9,46.9,0,0,1,1630.62,1207.33Z"/><path class="cls-3" d="M1670.44,1168.57a82.56,82.56,0,0,0-1.8-8.37c-.74-2.75-1.56-5.48-2.52-8.17a76.53,76.53,0,0,0-3.31-7.87,59.94,59.94,0,0,0-4.3-7.36.24.24,0,0,1,.06-.34h0a130.16,130.16,0,0,0,10.93-7.47,108.47,108.47,0,0,0,10.09-8.57,73,73,0,0,0,8.72-10,43.36,43.36,0,0,0,6.16-11.67,41.73,41.73,0,0,1-5.92,11.84,73,73,0,0,1-8.67,10.07,112.87,112.87,0,0,1-21.08,16.16l.08-.34a61,61,0,0,1,4.27,7.45,76.07,76.07,0,0,1,3.26,7.94c.93,2.71,1.76,5.45,2.42,8.23A83.23,83.23,0,0,1,1670.44,1168.57Z"/><path class="cls-3" d="M1658.7,1136.66a12.61,12.61,0,0,1-2.47-4.12l-.43-1.13-.36-1.16c-.26-.77-.41-1.56-.6-2.35a54.56,54.56,0,0,1-1.13-9.61c0-1.61-.06-3.23,0-4.84s.09-3.23.22-4.84.23-3.22.41-4.83l.56-4.81.44.08a38,38,0,0,1-3.52,8.63,37.6,37.6,0,0,1-5.44,7.56,39.49,39.49,0,0,1-3.36,3.24,37.47,37.47,0,0,1-3.78,2.74,38.53,38.53,0,0,1-8.4,4,.2.2,0,0,1-.25-.1A34.73,34.73,0,0,1,1628,1117a51.63,51.63,0,0,1-.91-8.5,55.15,55.15,0,0,1,.52-8.52c.14-1.41.49-2.8.72-4.2s.66-2.77,1-4.15c-.3,1.39-.65,2.77-.91,4.16s-.52,2.8-.63,4.21l-.22,2.12c-.06.71-.08,1.42-.12,2.12-.1,1.42,0,2.84,0,4.26a50.86,50.86,0,0,0,1,8.43,35.13,35.13,0,0,0,2.56,8l-.24-.1a38.3,38.3,0,0,0,8.27-4,36.48,36.48,0,0,0,3.71-2.73,38.34,38.34,0,0,0,3.29-3.21,39.92,39.92,0,0,0,5.4-7.44,38.15,38.15,0,0,0,3.52-8.49h0a.24.24,0,0,1,.28-.16.23.23,0,0,1,.16.24l-.59,4.8c-.19,1.59-.29,3.2-.44,4.8s-.16,3.22-.25,4.82,0,3.22,0,4.83a62.75,62.75,0,0,0,1,9.58c.18.79.32,1.58.56,2.35l.33,1.16.41,1.13A12.49,12.49,0,0,0,1658.7,1136.66Z"/><path class="cls-3" d="M1603.31,1149a37.26,37.26,0,0,0,9-3.17,36.68,36.68,0,0,0,7.88-5.25,16.68,16.68,0,0,0,1.74-1.62c.54-.57,1.12-1.11,1.64-1.7a34.54,34.54,0,0,0,2.84-3.78,22.31,22.31,0,0,0,1.25-2l1.08-2.11a15.4,15.4,0,0,0,.93-2.17l.86-2.21a.27.27,0,0,1,.36-.16.28.28,0,0,1,.17.3c-.24,1.54-.56,3.07-.75,4.61l-.2,2.33-.09,1.16v3.5c0,.78.14,1.55.21,2.32l.12,1.16.2,1.15c.15.76.25,1.54.44,2.29a35.23,35.23,0,0,0,3.33,8.71,28.56,28.56,0,0,0,5.61,7.45,28.63,28.63,0,0,1-5.85-7.32,35.2,35.2,0,0,1-3.5-8.74c-.2-.76-.32-1.54-.48-2.31l-.22-1.16-.12-1.17c-.08-.79-.17-1.57-.23-2.35l0-2.37v-1.18l.09-1.18.18-2.35c.18-1.56.5-3.11.74-4.66l.53.14-.87,2.24a15.92,15.92,0,0,1-1,2.2l-1.11,2.13a20.42,20.42,0,0,1-1.27,2,35.64,35.64,0,0,1-2.91,3.82c-.53.59-1.12,1.14-1.68,1.72a16.92,16.92,0,0,1-1.78,1.6,36,36,0,0,1-8,5.17A36.84,36.84,0,0,1,1603.31,1149Z"/><path class="cls-3" d="M1689.22,1076.14a43.85,43.85,0,0,0-11,2.61,43.39,43.39,0,0,0-10,5.21l-1.17.81c-.38.26-.73.59-1.1.88-.71.61-1.47,1.19-2.16,1.82a42.88,42.88,0,0,0-3.84,4.14l-.89,1.1a9.57,9.57,0,0,0-.84,1.14l-1.54,2.36a21.25,21.25,0,0,0-1.37,2.47l-1.28,2.51a.28.28,0,0,1-.38.13.29.29,0,0,1-.14-.33c.49-1.78,1.06-3.56,1.48-5.36l.52-2.74.26-1.37.14-1.38.27-2.77c0-.93,0-1.86,0-2.79v-1.39l-.1-1.39c-.09-.92-.11-1.85-.25-2.77a41.59,41.59,0,0,0-2.9-10.73,34.25,34.25,0,0,0-5.74-9.52,34.27,34.27,0,0,1,6,9.42,41.55,41.55,0,0,1,3,10.78c.15.93.18,1.87.28,2.8l.11,1.4v1.4c0,.94,0,1.88,0,2.81l-.25,2.8-.13,1.4L1656,1093l-.51,2.77c-.4,1.82-1,3.62-1.44,5.43l-.52-.2,1.32-2.54a20.4,20.4,0,0,1,1.41-2.49l1.58-2.38a8.66,8.66,0,0,1,.85-1.14l.91-1.1a41.62,41.62,0,0,1,3.92-4.15c.71-.64,1.47-1.22,2.2-1.83.37-.29.72-.61,1.12-.88l1.18-.8a43.62,43.62,0,0,1,21.24-7.52Z"/><path class="cls-3" d="M1872.32,965a46.12,46.12,0,0,0-20.7-8.66l-1.4-.21c-.47-.07-.94-.07-1.41-.1-.94,0-1.88-.14-2.82-.15a40.81,40.81,0,0,0-5.64.4l-1.4.19a9.32,9.32,0,0,0-1.38.26l-2.75.67a19.94,19.94,0,0,0-2.68.87l-2.66,1a.3.3,0,0,1-.36-.17.28.28,0,0,1,.12-.33c1.58-1,3.21-1.88,4.75-2.91l2.25-1.64,1.12-.82,1.05-.92,2.09-1.83c.66-.65,1.29-1.34,1.94-2l1-1,.87-1.09c.57-.73,1.19-1.43,1.71-2.19a42.08,42.08,0,0,0,5.22-9.82,34.3,34.3,0,0,0,2.31-10.87,34.26,34.26,0,0,1-2.06,11,41.59,41.59,0,0,1-5.17,9.94c-.52.77-1.14,1.48-1.71,2.23l-.87,1.1-1,1c-.64.68-1.27,1.38-1.93,2l-2.1,1.87-1,.94-1.13.83-2.26,1.68c-1.54,1-3.18,2-4.76,3l-.24-.49,2.69-1a22.09,22.09,0,0,1,2.73-.85l2.78-.66a8.32,8.32,0,0,1,1.41-.25l1.41-.18a40.3,40.3,0,0,1,5.7-.35c1,0,1.9.11,2.85.16.48.05,1,.05,1.42.12l1.41.23a42.93,42.93,0,0,1,10.93,3.16A43.43,43.43,0,0,1,1872.32,965Z"/><path class="cls-3" d="M1694.5,1049.39a12.72,12.72,0,0,1,.42-4.79l.31-1.17.39-1.15c.24-.77.59-1.51.89-2.26a55,55,0,0,1,4.73-8.44c.92-1.33,1.84-2.65,2.82-3.94s2-2.56,3-3.79,2.07-2.47,3.16-3.67l3.28-3.56.31.32a37.05,37.05,0,0,1-26,8.51,38.57,38.57,0,0,1-9.15-1.7.18.18,0,0,1-.14-.22,35,35,0,0,1,2.73-8.12,51.83,51.83,0,0,1,4.25-7.41,54.4,54.4,0,0,1,5.42-6.59c.95-1.07,2-2,3-3s2.16-1.85,3.23-2.78c-1.05,1-2.14,1.87-3.18,2.84s-2,2-3,3l-1.43,1.59c-.46.54-.89,1.1-1.34,1.65-.91,1.09-1.7,2.27-2.54,3.41a52.66,52.66,0,0,0-4.17,7.39,35,35,0,0,0-2.64,8l-.14-.23a38.21,38.21,0,0,0,9,1.61,37.16,37.16,0,0,0,4.6,0,41.15,41.15,0,0,0,13.29-3.54,37.14,37.14,0,0,0,7.83-4.8h0a.22.22,0,0,1,.31,0,.24.24,0,0,1,0,.3l-3.29,3.53c-1.09,1.18-2.11,2.43-3.18,3.64s-2,2.5-3,3.75-1.91,2.59-2.84,3.9a63.43,63.43,0,0,0-4.81,8.35c-.31.74-.67,1.46-.92,2.23l-.41,1.13-.34,1.16A12.63,12.63,0,0,0,1694.5,1049.39Z"/><path class="cls-3" d="M1754.73,1018.28a44.11,44.11,0,0,0-10.46-4.34,43.13,43.13,0,0,0-11.17-1.66l-1.41,0c-.47,0-.94,0-1.41.08-.94.07-1.89.09-2.82.2a41.44,41.44,0,0,0-5.54,1.1l-1.37.37a8,8,0,0,0-1.34.43l-2.64,1a19.14,19.14,0,0,0-2.56,1.19l-2.51,1.28a.28.28,0,0,1-.38-.12.28.28,0,0,1,.08-.34c1.44-1.16,2.94-2.26,4.34-3.48l2-1.91,1-.95.93-1,1.85-2.09c.57-.72,1.11-1.48,1.67-2.23l.82-1.11.73-1.19c.48-.8,1-1.57,1.43-2.39a41.88,41.88,0,0,0,4-10.39,34.15,34.15,0,0,0,.93-11.08,34.22,34.22,0,0,1-.67,11.14,41.47,41.47,0,0,1-3.89,10.5c-.42.84-.94,1.62-1.41,2.43l-.73,1.2-.83,1.14c-.55.75-1.09,1.52-1.66,2.26l-1.85,2.12-.92,1-1,1-2,1.94c-1.4,1.24-2.91,2.36-4.36,3.55l-.3-.47,2.56-1.28a19.74,19.74,0,0,1,2.6-1.19l2.67-1a9.05,9.05,0,0,1,1.37-.42l1.38-.36a41.09,41.09,0,0,1,5.61-1.06c.95-.1,1.9-.12,2.85-.19.47,0,1-.07,1.42-.06l1.43,0a43.22,43.22,0,0,1,11.24,1.77A44.22,44.22,0,0,1,1754.73,1018.28Z"/><path class="cls-3" d="M1657.59,1202.77a20.9,20.9,0,0,0-.75,2.36c-.24.79-.5,1.57-.81,2.34a25.72,25.72,0,0,1-2.27,4.43,22.54,22.54,0,0,1-3.17,3.86,24.39,24.39,0,0,1-3.88,3.13h0a.22.22,0,0,1-.22,0,10.43,10.43,0,0,1-3.58-2.54,14.12,14.12,0,0,1-2.44-3.6,18.83,18.83,0,0,1-1.4-4.09c-.15-.71-.24-1.42-.36-2.13l-.18-2.15.3,2.13c.17.7.29,1.4.48,2.09a20.08,20.08,0,0,0,1.52,4,15.38,15.38,0,0,0,2.44,3.43,9.9,9.9,0,0,0,3.39,2.38l-.23,0a28,28,0,0,0,3.81-3,23,23,0,0,0,3.15-3.74,25.29,25.29,0,0,0,2.39-4.29c.34-.74.65-1.51.93-2.28A23.93,23.93,0,0,1,1657.59,1202.77Z"/><path class="cls-3" d="M1261,1959.13c-2.21-3.45-4.64-6.77-7.18-10s-5.23-6.32-8-9.3a106.21,106.21,0,0,0-8.91-8.46,86.53,86.53,0,0,0-9.92-7.21.23.23,0,0,1-.07-.33h0a179.33,179.33,0,0,0,10.08-16.15,159,159,0,0,0,8.28-17.14,104.18,104.18,0,0,0,5.68-18.16,74.62,74.62,0,0,0,1.38-9.41,57.1,57.1,0,0,0-.1-9.52,60.3,60.3,0,0,1-1,19,104.82,104.82,0,0,1-5.59,18.25,164.29,164.29,0,0,1-18.35,33.42l-.07-.34a86.6,86.6,0,0,1,9.93,7.31,106.88,106.88,0,0,1,8.89,8.53c2.8,3,5.47,6.13,8,9.4S1258.87,1955.64,1261,1959.13Z"/><path class="cls-3" d="M1227.09,1924a11.77,11.77,0,0,1-3-1.73l-.7-.52-.65-.58a14.31,14.31,0,0,1-1.28-1.18l-1.22-1.23-1.13-1.32c-.79-.86-1.44-1.82-2.15-2.74a80.89,80.89,0,0,1-7-12c-1-2.11-1.94-4.22-2.82-6.36s-1.76-4.29-2.51-6.48-1.57-4.37-2.25-6.58l-2-6.65.44-.1a55.26,55.26,0,0,1,.36,13.35,54.59,54.59,0,0,1-2.78,13.07,26.8,26.8,0,0,1-1.18,3.13c-.45,1-.87,2.06-1.35,3.06a51.88,51.88,0,0,1-3.37,5.78,55.27,55.27,0,0,1-8.7,10.12.2.2,0,0,1-.27,0,49.67,49.67,0,0,1-8.08-9.24,75.34,75.34,0,0,1-6.13-10.63c-.79-1.88-1.69-3.72-2.34-5.67-.34-1-.72-1.91-1-2.88l-.88-2.94-.45-1.47-.35-1.49-.72-3c-.43-2-.74-4-1.12-6,.41,2,.75,4,1.2,6l.76,3,.38,1.48.46,1.46.92,2.92c.33,1,.72,1.91,1.08,2.86.68,1.93,1.57,3.76,2.37,5.63a75.7,75.7,0,0,0,6.15,10.56,50.3,50.3,0,0,0,8,9.12h-.26a54.64,54.64,0,0,0,8.58-10.07,51.79,51.79,0,0,0,3.31-5.74c.47-1,.88-2,1.32-3a28.13,28.13,0,0,0,1.16-3.1,56.15,56.15,0,0,0,2.78-12.94,54.21,54.21,0,0,0-.29-13.23h0a.22.22,0,0,1,.18-.26.23.23,0,0,1,.25.16l2,6.64c.67,2.22,1.48,4.38,2.22,6.58s1.65,4.32,2.47,6.48,1.83,4.25,2.79,6.35a86.75,86.75,0,0,0,6.9,12c.68.92,1.33,1.89,2.09,2.75l1.12,1.34,1.2,1.25a15.66,15.66,0,0,0,1.25,1.19l.65.58.68.53A11.92,11.92,0,0,0,1227.09,1924Z"/><path class="cls-3" d="M1161.38,1972.24a52.27,52.27,0,0,0,10-9.32,54.45,54.45,0,0,0,7.42-11.44,51.52,51.52,0,0,0,2.5-6.34,52.48,52.48,0,0,0,1.61-6.63,53.48,53.48,0,0,0,.41-13.61.29.29,0,0,1,.25-.3.27.27,0,0,1,.29.21h0c.56,2.17,1,4.37,1.67,6.51l1.1,3.18.54,1.59.69,1.53,1.37,3.07c.52,1,1.09,2,1.63,2.94l.82,1.47.94,1.39c.65.91,1.23,1.87,1.93,2.75a50.07,50.07,0,0,0,9.47,9.49,40.88,40.88,0,0,0,11.73,6.51,41.14,41.14,0,0,1-11.89-6.29,50.75,50.75,0,0,1-9.61-9.48c-.7-.89-1.3-1.85-2-2.77l-1-1.39-.84-1.47c-.55-1-1.13-2-1.66-3l-1.4-3.08-.71-1.54-.56-1.59-1.12-3.2c-.67-2.15-1.15-4.36-1.74-6.55l.55-.08a50.07,50.07,0,0,1-2.17,20.41,50.31,50.31,0,0,1-2.57,6.38,53.6,53.6,0,0,1-7.55,11.46A52.38,52.38,0,0,1,1161.38,1972.24Z"/><path class="cls-3" d="M1247.53,2080.73a11.92,11.92,0,0,1-3.28-1.13l-.78-.38-.75-.44a17.27,17.27,0,0,1-1.48-.91l-1.43-1-1.36-1.08c-.94-.69-1.76-1.51-2.63-2.28a81.38,81.38,0,0,1-9.18-10.44c-1.35-1.88-2.7-3.77-4-5.7s-2.54-3.88-3.69-5.89-2.37-4-3.46-6l-3.27-6.14.4-.18a54.06,54.06,0,0,1,2.89,13,54.8,54.8,0,0,1-.24,13.36,30.54,30.54,0,0,1-.56,3.29c-.25,1.09-.47,2.19-.75,3.27a51.81,51.81,0,0,1-2.21,6.31,55.42,55.42,0,0,1-6.62,11.59.2.2,0,0,1-.27.06,49.94,49.94,0,0,1-9.68-7.54,74.56,74.56,0,0,1-8-9.27c-1.14-1.7-2.38-3.34-3.38-5.12-.52-.88-1.07-1.74-1.57-2.64l-1.43-2.71-.71-1.36-.63-1.39-1.27-2.79c-.8-1.88-1.49-3.81-2.24-5.7.77,1.88,1.49,3.8,2.32,5.66l1.3,2.77.65,1.39.73,1.34,1.47,2.69c.5.88,1.06,1.74,1.59,2.61,1,1.76,2.26,3.39,3.41,5.07a75.61,75.61,0,0,0,8,9.2,50.13,50.13,0,0,0,9.64,7.42l-.27.06a54.38,54.38,0,0,0,6.52-11.52,53.18,53.18,0,0,0,2.16-6.26c.27-1.07.48-2.16.72-3.24a27.52,27.52,0,0,0,.54-3.27,56.3,56.3,0,0,0,.28-13.23,54.27,54.27,0,0,0-2.8-12.93h0a.23.23,0,0,1,.13-.29.21.21,0,0,1,.27.11l3.24,6.14c1.08,2,2.28,4,3.42,6s2.45,3.93,3.66,5.9,2.61,3.82,4,5.71a86.79,86.79,0,0,0,9,10.48c.85.78,1.67,1.61,2.59,2.31l1.34,1.1,1.42,1a15.7,15.7,0,0,0,1.46.93l.74.45.77.39A12.22,12.22,0,0,0,1247.53,2080.73Z"/><path class="cls-3" d="M1192.17,2140.59a51.85,51.85,0,0,0,8-11,54.12,54.12,0,0,0,5.11-12.64,48.73,48.73,0,0,0,1.57-13.52,52.86,52.86,0,0,0-2.18-13.44.28.28,0,0,1,.52-.19h0c1,2,1.84,4.09,2.88,6.07l1.67,2.91.84,1.46,1,1.37,1.93,2.75c.7.88,1.44,1.72,2.15,2.58l1.09,1.29,1.19,1.18c.81.78,1.56,1.61,2.41,2.34a50.58,50.58,0,0,0,11.1,7.52,41.33,41.33,0,0,0,12.75,4.17,41.31,41.31,0,0,1-12.86-3.92,50.68,50.68,0,0,1-11.23-7.49c-.86-.73-1.63-1.56-2.45-2.34l-1.21-1.19-1.1-1.28c-.73-.87-1.48-1.71-2.19-2.59l-2-2.76-1-1.38-.86-1.46-1.71-2.92c-1.06-2-2-4.07-3-6.1l.53-.18a53.78,53.78,0,0,1,2.11,13.58,52.63,52.63,0,0,1-.37,6.87,51.89,51.89,0,0,1-1.31,6.75,54.24,54.24,0,0,1-5.23,12.68A52.16,52.16,0,0,1,1192.17,2140.59Z"/><path class="cls-3" d="M1536.53,2365.55a13.5,13.5,0,0,1-3.7,3.68l-1.08.75-1.13.67c-.74.47-1.53.84-2.31,1.25a60.26,60.26,0,0,1-9.83,3.69c-1.69.45-3.39.9-5.1,1.28s-3.42.76-5.15,1-3.45.61-5.19.83l-5.21.66,0-.44a41.24,41.24,0,0,1,10,1.46,40.64,40.64,0,0,1,9.37,3.76,43.39,43.39,0,0,1,4.29,2.69,41.45,41.45,0,0,1,3.87,3.26,42.15,42.15,0,0,1,6.4,7.81.19.19,0,0,1,0,.26,37.91,37.91,0,0,1-7.94,4.82,56,56,0,0,1-8.71,3.17c-1.5.35-3,.78-4.52,1-.76.13-1.52.28-2.29.39l-2.3.27-1.15.14-1.15.07-2.31.14c-1.54.06-3.09,0-4.63,0,1.54,0,3.08,0,4.62-.12l2.31-.19,1.15-.09,1.14-.15,2.29-.32c.76-.12,1.51-.29,2.27-.43,1.52-.26,3-.69,4.49-1.05a56.32,56.32,0,0,0,8.64-3.2,37.36,37.36,0,0,0,7.81-4.81l0,.27a42,42,0,0,0-6.38-7.68,40.44,40.44,0,0,0-3.84-3.2,41.17,41.17,0,0,0-4.25-2.63,42.49,42.49,0,0,0-9.25-3.74,41.23,41.23,0,0,0-9.86-1.51h0a.22.22,0,0,1-.22-.22.22.22,0,0,1,.2-.22l5.2-.63c1.73-.21,3.45-.53,5.18-.79s3.42-.67,5.14-1,3.4-.82,5.08-1.25a68.35,68.35,0,0,0,9.84-3.56c.78-.39,1.58-.74,2.32-1.2l1.14-.65,1.09-.73A13.4,13.4,0,0,0,1536.53,2365.55Z"/><path class="cls-3" d="M1563.92,2420.7a41.32,41.32,0,0,0-13.25-15.55,16.93,16.93,0,0,0-2.15-1.41c-.74-.43-1.46-.9-2.22-1.29a35.71,35.71,0,0,0-4.73-2l-1.21-.43a8.71,8.71,0,0,0-1.23-.37l-2.5-.59a19.76,19.76,0,0,0-2.54-.41l-2.55-.32a.28.28,0,0,1,0-.56c1.69-.14,3.38-.2,5.06-.4l2.5-.41,1.25-.2,1.23-.31,2.45-.63c.81-.26,1.6-.55,2.39-.83l1.2-.42,1.15-.52c.77-.36,1.56-.66,2.3-1.06a37.87,37.87,0,0,0,8.3-5.78,30.88,30.88,0,0,0,6.39-7.86,31.1,31.1,0,0,1-6.2,8.06,38.06,38.06,0,0,1-8.29,5.95c-.75.42-1.54.74-2.31,1.11l-1.16.54-1.21.43c-.8.28-1.6.59-2.42.85l-2.48.65-1.24.32-1.26.21-2.53.42c-1.69.21-3.4.29-5.1.44v-.56l2.59.34a18.63,18.63,0,0,1,2.57.43l2.53.61a8.49,8.49,0,0,1,1.24.38l1.23.44a37.42,37.42,0,0,1,4.78,2.06c.77.41,1.5.88,2.25,1.32a18.47,18.47,0,0,1,2.15,1.46,39.47,39.47,0,0,1,7.55,7.11A39.93,39.93,0,0,1,1563.92,2420.7Z"/><path class="cls-3" d="M1307.72,2224.3a12.14,12.14,0,0,1-4.6-.92L1302,2223l-1.07-.5c-.72-.32-1.39-.73-2.09-1.11a53.9,53.9,0,0,1-7.68-5.49c-1.18-1-2.37-2.09-3.51-3.17s-2.28-2.18-3.35-3.33-2.18-2.28-3.22-3.47l-3.11-3.56.36-.27a37.06,37.06,0,0,1,3.92,8.21,36.59,36.59,0,0,1,1.89,8.9,40.61,40.61,0,0,1,.13,4.55,36.29,36.29,0,0,1-.51,4.53,37.74,37.74,0,0,1-2.63,8.69.2.2,0,0,1-.24.12,33.76,33.76,0,0,1-7.58-3.53,50.66,50.66,0,0,1-6.73-4.92,54.68,54.68,0,0,1-5.81-6c-.93-1-1.71-2.19-2.57-3.28s-1.56-2.3-2.34-3.44c.81,1.13,1.58,2.28,2.41,3.39s1.68,2.21,2.63,3.22l1.38,1.55c.48.51,1,1,1.46,1.48,1,1,2,1.89,3,2.83a51.38,51.38,0,0,0,6.72,4.85,34.07,34.07,0,0,0,7.5,3.43l-.24.11a37,37,0,0,0,3-13.07,39.64,39.64,0,0,0-.16-4.49,38.86,38.86,0,0,0-1.83-8.78,37.16,37.16,0,0,0-3.81-8.12h0a.22.22,0,0,1,.07-.31.23.23,0,0,1,.29,0l3.07,3.58c1,1.19,2.12,2.31,3.18,3.47s2.21,2.23,3.32,3.35,2.3,2.13,3.47,3.18a61.53,61.53,0,0,0,7.58,5.57c.68.39,1.34.81,2.06,1.14l1,.52,1.09.45A12.05,12.05,0,0,0,1307.72,2224.3Z"/><path class="cls-3" d="M1306.13,2190.65a12.34,12.34,0,0,1-4.6-.92l-1.11-.43-1.07-.51c-.72-.31-1.39-.73-2.09-1.1a52.65,52.65,0,0,1-7.68-5.5c-1.18-1-2.37-2.08-3.51-3.16s-2.28-2.19-3.35-3.34-2.18-2.28-3.22-3.46l-3.11-3.57.36-.27a37.28,37.28,0,0,1,3.92,8.21,36.69,36.69,0,0,1,1.89,8.9,40.79,40.79,0,0,1,.13,4.56,36.14,36.14,0,0,1-.51,4.52,37.81,37.81,0,0,1-2.63,8.7.22.22,0,0,1-.24.12,34.66,34.66,0,0,1-7.58-3.53,51.64,51.64,0,0,1-6.73-4.93,53.8,53.8,0,0,1-5.81-6c-.93-1-1.71-2.19-2.57-3.28s-1.56-2.29-2.34-3.44c.81,1.13,1.58,2.29,2.41,3.39s1.68,2.21,2.63,3.22l1.38,1.55c.47.51,1,1,1.46,1.48,1,1,2,1.9,3,2.84a52.25,52.25,0,0,0,6.72,4.84,33.62,33.62,0,0,0,7.5,3.43l-.24.12a37.08,37.08,0,0,0,3-13.07,39.55,39.55,0,0,0-.16-4.49,38.75,38.75,0,0,0-1.83-8.78,36.94,36.94,0,0,0-3.81-8.12h0a.21.21,0,0,1,.07-.3.23.23,0,0,1,.29,0l3.07,3.57c1,1.19,2.12,2.32,3.18,3.48s2.21,2.23,3.32,3.35,2.3,2.13,3.47,3.17a60.51,60.51,0,0,0,7.58,5.57,22.94,22.94,0,0,0,2.06,1.14l1,.53,1.09.45A12.24,12.24,0,0,0,1306.13,2190.65Z"/><path class="cls-3" d="M1280.2,2272.38a35.84,35.84,0,0,0,3.6-8.55,35.42,35.42,0,0,0,1.38-9.14,16.19,16.19,0,0,0,0-2.31c-.05-.77-.06-1.54-.15-2.31a32.9,32.9,0,0,0-.86-4.53,20.86,20.86,0,0,0-.63-2.22l-.81-2.17a16.54,16.54,0,0,0-1-2.1l-1-2.06a.28.28,0,0,1,.12-.38.28.28,0,0,1,.34.08c.95,1.18,1.84,2.42,2.83,3.57l1.56,1.67.77.83.85.76,1.69,1.52c.6.47,1.22.92,1.82,1.37l.91.69,1,.6c.65.39,1.27.83,1.94,1.19a34.54,34.54,0,0,0,8.47,3.32,27.9,27.9,0,0,0,9.06.85,28.08,28.08,0,0,1-9.13-.59,34.19,34.19,0,0,1-8.6-3.21c-.69-.35-1.33-.78-2-1.17l-1-.6-.93-.69c-.62-.46-1.24-.9-1.85-1.38l-1.72-1.53-.86-.77-.8-.83-1.58-1.68c-1-1.16-1.91-2.4-2.88-3.6l.47-.3,1,2.1a15.73,15.73,0,0,1,1,2.14l.81,2.2a20,20,0,0,1,.63,2.26,34.3,34.3,0,0,1,.85,4.61c.08.78.09,1.56.14,2.34a18.27,18.27,0,0,1,0,2.34,35.84,35.84,0,0,1-5.41,17.68Z"/><path class="cls-3" d="M1232.17,1826.72a62.17,62.17,0,0,0-13,9.78,64.42,64.42,0,0,0-10.22,12.63,61,61,0,0,0-3.77,7.21,62.25,62.25,0,0,0-2.73,7.66,63.2,63.2,0,0,0-2.19,16.07.29.29,0,0,1-.28.28.28.28,0,0,1-.27-.24h0l-.56-4-.28-2a16.38,16.38,0,0,0-.34-2l-.91-3.9-.45-2-.62-1.9-1.25-3.81c-.49-1.24-1-2.46-1.57-3.69l-.79-1.84-.94-1.77c-.65-1.16-1.23-2.37-1.94-3.5a59.91,59.91,0,0,0-10.06-12.43,49.33,49.33,0,0,0-13.1-9.15,49.11,49.11,0,0,1,13.29,9,59.69,59.69,0,0,1,10.18,12.43c.73,1.13,1.31,2.34,2,3.51l1,1.77.8,1.85c.53,1.24,1.1,2.46,1.6,3.7l1.28,3.83.64,1.91.46,2,.94,3.92a16.56,16.56,0,0,1,.35,2l.29,2,.59,4-.56,0a63.81,63.81,0,0,1,2.3-16.2,62.13,62.13,0,0,1,2.8-7.7,63.32,63.32,0,0,1,3.83-7.24A64.46,64.46,0,0,1,1219,1836.3,62.09,62.09,0,0,1,1232.17,1826.72Z"/><path class="cls-3" d="M1166.86,1857.45c0,1.11.23,2.21.33,3.31s.23,2.22.26,3.34a34.78,34.78,0,0,1-.43,6.68,30.26,30.26,0,0,1-1.81,6.46,34.4,34.4,0,0,1-3.08,6h0a.26.26,0,0,1-.19.12,14.08,14.08,0,0,1-5.76-1.19,19.25,19.25,0,0,1-5-3.08l-1.09-1c-.34-.34-.67-.7-1-1a25.1,25.1,0,0,1-1.86-2.24c-.58-.78-1.08-1.61-1.62-2.41l-1.41-2.54,1.52,2.47c.57.78,1.11,1.58,1.71,2.33a26.88,26.88,0,0,0,4,4.1,20.32,20.32,0,0,0,4.89,2.94,13.61,13.61,0,0,0,5.51,1.11l-.2.12a36.27,36.27,0,0,0,3.06-5.86,31,31,0,0,0,1.85-6.35,34.7,34.7,0,0,0,.59-6.6c0-1.11,0-2.22-.12-3.32A31,31,0,0,1,1166.86,1857.45Z"/><path class="cls-3" d="M1248.72,1795.79a41,41,0,0,0-1.15,4.11c-.36,1.38-.77,2.75-1.24,4.1a44.7,44.7,0,0,1-3.62,7.78,37.94,37.94,0,0,1-5.14,6.88,43.63,43.63,0,0,1-6.43,5.71h0a.24.24,0,0,1-.23,0,17.83,17.83,0,0,1-6.31-4,24.45,24.45,0,0,1-4.51-6l-.86-1.66c-.26-.57-.49-1.15-.73-1.72a33.37,33.37,0,0,1-1.21-3.53c-.33-1.19-.56-2.42-.84-3.63l-.53-3.68.65,3.66c.33,1.19.59,2.4,1,3.58s.74,2.36,1.28,3.47c.25.56.49,1.13.75,1.69l.88,1.62a26.15,26.15,0,0,0,4.5,5.8,17.36,17.36,0,0,0,6.12,3.88l-.23,0a47.19,47.19,0,0,0,6.36-5.62,42.37,42.37,0,0,0,2.76-3.23c.82-1.16,1.65-2.31,2.38-3.53a43.91,43.91,0,0,0,3.73-7.64c.51-1.33,1-2.68,1.37-4.05A40.93,40.93,0,0,1,1248.72,1795.79Z"/><path class="cls-3" d="M1253.77,1780.74a119.76,119.76,0,0,0-4.6-11.41c-1.72-3.72-3.57-7.39-5.59-10.95a106.66,106.66,0,0,0-6.64-10.33,85.36,85.36,0,0,0-7.92-9.36.24.24,0,0,1,0-.34h0a181.83,181.83,0,0,0,13.63-13.29,159,159,0,0,0,12.12-14.68,104.88,104.88,0,0,0,9.84-16.28,75,75,0,0,0,3.58-8.82,56.48,56.48,0,0,0,2.17-9.27,60.71,60.71,0,0,1-5.48,18.22,106.79,106.79,0,0,1-9.77,16.39,165.17,165.17,0,0,1-25.79,28.09l0-.35a87.13,87.13,0,0,1,7.9,9.47,107.4,107.4,0,0,1,6.61,10.4c2,3.59,3.86,7.26,5.5,11S1252.51,1776.83,1253.77,1780.74Z"/><path class="cls-3" d="M1229.19,1738.52a11.85,11.85,0,0,1-2.5-2.4l-.55-.67-.5-.71a15.82,15.82,0,0,1-1-1.45l-.89-1.49-.79-1.56c-.55-1-1-2.1-1.43-3.17a79.89,79.89,0,0,1-4-13.31c-.44-2.28-.88-4.56-1.23-6.85s-.69-4.59-.9-6.9-.48-4.61-.62-6.92l-.4-6.94h.44a56.77,56.77,0,0,1-8.63,25.09,28.65,28.65,0,0,1-1.89,2.76c-.68.88-1.33,1.79-2,2.65a54.18,54.18,0,0,1-4.65,4.81,55.37,55.37,0,0,1-10.86,7.76.22.22,0,0,1-.27-.06,50.5,50.5,0,0,1-5.65-10.89,75.85,75.85,0,0,1-3.41-11.78c-.33-2-.76-4-.93-6.07-.1-1-.24-2-.32-3.05l-.16-3.06-.08-1.53v-1.53l0-3.07c.06-2,.23-4.08.35-6.12-.09,2-.24,4.08-.27,6.12l0,3.06,0,1.53.1,1.53.2,3c.09,1,.24,2,.36,3,.21,2,.63,4,1,6a74.88,74.88,0,0,0,3.46,11.71,49.78,49.78,0,0,0,5.64,10.77l-.26-.06a54.63,54.63,0,0,0,10.73-7.74,53.12,53.12,0,0,0,4.59-4.78c.69-.86,1.33-1.76,2-2.64a27.51,27.51,0,0,0,1.86-2.74,56,56,0,0,0,5.78-11.91,53.69,53.69,0,0,0,2.87-12.91h0a.22.22,0,0,1,.24-.2.22.22,0,0,1,.2.21l.37,6.93c.13,2.31.4,4.61.59,6.91s.58,4.59.86,6.89.77,4.56,1.2,6.83a86.54,86.54,0,0,0,3.84,13.31c.45,1.07.84,2.16,1.38,3.18l.76,1.56.87,1.5a17.26,17.26,0,0,0,.94,1.46l.49.72.54.67A11.57,11.57,0,0,0,1229.19,1738.52Z"/><path class="cls-3" d="M1153.88,1769.75a52.45,52.45,0,0,0,11.92-6.67,54,54,0,0,0,9.93-9.35,52.69,52.69,0,0,0,3.94-5.56,49.24,49.24,0,0,0,6.77-19.17.29.29,0,0,1,.32-.24.28.28,0,0,1,.23.27v0c0,2.23,0,4.48.08,6.72l.31,3.34.15,1.68.3,1.65.61,3.31c.26,1.08.59,2.16.88,3.24l.45,1.62.58,1.57c.41,1,.75,2.12,1.21,3.14a50.41,50.41,0,0,0,6.94,11.47,41,41,0,0,0,9.85,9.11,41.24,41.24,0,0,1-10.06-8.94,50.57,50.57,0,0,1-7.06-11.49c-.48-1-.83-2.1-1.25-3.15l-.6-1.59-.46-1.62c-.3-1.09-.63-2.17-.91-3.27l-.63-3.32-.32-1.67-.16-1.68-.34-3.37c-.13-2.26-.07-4.52-.12-6.77l.55,0a49.68,49.68,0,0,1-11,24.89,53.9,53.9,0,0,1-10,9.33A52.78,52.78,0,0,1,1153.88,1769.75Z"/><path class="cls-3" d="M1257.26,1645.26a62,62,0,0,0-15,6.4A61.36,61.36,0,0,0,1224,1667.6a62.61,62.61,0,0,0-4.47,6.79,63.49,63.49,0,0,0-6,15.09.28.28,0,0,1-.55-.1h0l.4-4,.21-2a16.49,16.49,0,0,0,.13-2l0-4,0-2-.15-2-.31-4c-.18-1.33-.43-2.64-.64-4l-.33-2-.5-1.94c-.36-1.29-.63-2.6-1.05-3.87a59.94,59.94,0,0,0-6.81-14.46,49,49,0,0,0-10.55-12,49.12,49.12,0,0,1,10.78,11.86,60.42,60.42,0,0,1,6.93,14.5c.44,1.27.71,2.59,1.08,3.88l.51,2,.35,2c.22,1.32.48,2.64.66,4l.34,4,.16,2v2l0,4a16.94,16.94,0,0,1-.12,2l-.2,2-.38,4-.54-.11a59.57,59.57,0,0,1,10.63-22,62,62,0,0,1,5.45-6.12,64.43,64.43,0,0,1,13.06-9.81A62.35,62.35,0,0,1,1257.26,1645.26Z"/><path class="cls-3" d="M1299,1585.82a121.35,121.35,0,0,0-2.16-12.11c-.92-4-2-8-3.23-11.86a108.77,108.77,0,0,0-4.38-11.47,88.34,88.34,0,0,0-5.83-10.79.24.24,0,0,1,.07-.33h0a180.79,180.79,0,0,0,16.07-10.21,158.91,158.91,0,0,0,14.87-11.88,105.48,105.48,0,0,0,13-13.92,73.57,73.57,0,0,0,5.3-7.9,56.92,56.92,0,0,0,4-8.63,60.59,60.59,0,0,1-9.1,16.71,104.74,104.74,0,0,1-12.92,14,164.06,164.06,0,0,1-31,22.21l.08-.34a86.12,86.12,0,0,1,5.8,10.89,107.35,107.35,0,0,1,4.34,11.53c1.22,3.92,2.29,7.9,3.12,11.92A121.9,121.9,0,0,1,1299,1585.82Z"/><path class="cls-3" d="M1283.6,1539.46a11.66,11.66,0,0,1-2-2.85l-.4-.77-.35-.8c-.22-.54-.47-1.06-.64-1.62l-.56-1.64-.46-1.68c-.33-1.12-.51-2.26-.75-3.4a79.34,79.34,0,0,1-1.15-13.85c0-2.32.07-4.64.19-6.95s.27-4.63.54-6.93.47-4.62.81-6.91l1-6.88.43.09a56.45,56.45,0,0,1-13.59,22.79,27.77,27.77,0,0,1-2.41,2.32c-.85.72-1.68,1.48-2.54,2.18a54.39,54.39,0,0,1-5.54,3.75,55.69,55.69,0,0,1-12.22,5.37.21.21,0,0,1-.25-.11,50.45,50.45,0,0,1-3.3-11.82,76,76,0,0,1-.93-12.23c.1-2,.08-4.1.34-6.13.1-1,.18-2,.31-3.05l.47-3,.23-1.52.33-1.49.64-3c.47-2,1.06-4,1.59-5.92-.5,2-1.06,3.95-1.51,5.94l-.6,3-.3,1.5-.21,1.52-.43,3c-.12,1-.18,2-.27,3-.22,2-.2,4.07-.29,6.11a75.21,75.21,0,0,0,1,12.17,50.16,50.16,0,0,0,3.31,11.7l-.24-.11a54.33,54.33,0,0,0,12.09-5.38,53.37,53.37,0,0,0,5.47-3.74c.85-.7,1.67-1.45,2.5-2.17a27.34,27.34,0,0,0,2.38-2.31,56.28,56.28,0,0,0,8.1-10.46,54,54,0,0,0,5.45-12.06h0a.21.21,0,0,1,.27-.15.23.23,0,0,1,.16.25l-1.06,6.85c-.35,2.29-.56,4.6-.84,6.89s-.38,4.61-.57,6.92-.18,4.62-.23,6.93a87.63,87.63,0,0,0,1,13.82c.22,1.13.39,2.28.7,3.39l.43,1.68.54,1.65c.17.55.4,1.08.62,1.62l.33.8.39.77A11.4,11.4,0,0,0,1283.6,1539.46Z"/><path class="cls-3" d="M1330.18,1453.94a62.11,62.11,0,0,0-16,3.19,64.6,64.6,0,0,0-14.68,7,58.86,58.86,0,0,0-21.2,24.15.27.27,0,0,1-.37.13.27.27,0,0,1-.14-.33h0l1.21-3.82.61-1.91a16.26,16.26,0,0,0,.54-1.93l.87-3.91.44-2,.26-2,.51-4c.1-1.34.12-2.67.19-4l.08-2-.09-2c-.09-1.33-.08-2.67-.24-4a59.48,59.48,0,0,0-3.7-15.55,49.19,49.19,0,0,0-7.86-13.91,49.2,49.2,0,0,1,8.11,13.81,59.63,59.63,0,0,1,3.82,15.61c.16,1.34.17,2.69.26,4l.1,2-.07,2c0,1.35-.07,2.69-.16,4l-.5,4-.25,2-.42,2-.86,3.94a16.37,16.37,0,0,1-.53,1.94l-.6,1.92-1.2,3.85-.51-.21a63.74,63.74,0,0,1,9.07-13.62,64.57,64.57,0,0,1,5.85-5.73,62.55,62.55,0,0,1,6.58-4.88,64.83,64.83,0,0,1,14.8-6.92A62.66,62.66,0,0,1,1330.18,1453.94Z"/><path class="cls-3" d="M1322.69,1608.7c.41-3.82.58-7.68.61-11.52s-.1-7.7-.41-11.53a99.46,99.46,0,0,0-1.54-11.42,81.75,81.75,0,0,0-3-11.11.24.24,0,0,1,.15-.3h0a170.9,170.9,0,0,0,16.87-5.88,148.92,148.92,0,0,0,16.14-7.67,98.39,98.39,0,0,0,14.84-9.92,71,71,0,0,0,6.54-6.08,52.07,52.07,0,0,0,5.53-7,56.5,56.5,0,0,1-11.89,13.32,98.06,98.06,0,0,1-14.82,10.06,153.76,153.76,0,0,1-33.08,13.65l.16-.31a82,82,0,0,1,3,11.19,100.77,100.77,0,0,1,1.48,11.47c.27,3.85.4,7.71.29,11.56S1323.17,1604.88,1322.69,1608.7Z"/><path class="cls-3" d="M1294,1648.75a30.34,30.34,0,0,0-1.82,2.79c-.6.94-1.22,1.87-1.89,2.76a34.71,34.71,0,0,1-4.53,4.94,29.3,29.3,0,0,1-5.46,3.9,34.26,34.26,0,0,1-6.13,2.72h0a.22.22,0,0,1-.22,0,13.83,13.83,0,0,1-3.74-4.53,19,19,0,0,1-1.93-5.51l-.24-1.44c-.06-.48-.08-1-.13-1.45a28.31,28.31,0,0,1,0-2.91c0-1,.17-1.94.25-2.9l.5-2.86-.37,2.87c0,1-.12,1.93-.13,2.89a26.75,26.75,0,0,0,.57,5.72,20.4,20.4,0,0,0,2,5.36,13.59,13.59,0,0,0,3.61,4.31l-.23,0a36.62,36.62,0,0,0,6-2.65,31.75,31.75,0,0,0,5.42-3.79,34.59,34.59,0,0,0,4.6-4.77c.69-.86,1.36-1.75,2-2.67A30.36,30.36,0,0,1,1294,1648.75Z"/><path class="cls-3" d="M1353.67,1434.69a30.34,30.34,0,0,0-1.82,2.79c-.6.94-1.22,1.87-1.89,2.76a34.76,34.76,0,0,1-4.53,4.94,30,30,0,0,1-5.46,3.9,34,34,0,0,1-6.14,2.72h0a.22.22,0,0,1-.22,0,13.71,13.71,0,0,1-3.74-4.53,19,19,0,0,1-1.93-5.51l-.24-1.44c-.06-.48-.09-1-.13-1.45a28.31,28.31,0,0,1,0-2.91c0-1,.17-1.94.25-2.9l.5-2.86-.37,2.87c0,1-.13,1.93-.13,2.89a27.4,27.4,0,0,0,.56,5.72,20.79,20.79,0,0,0,2,5.36,13.59,13.59,0,0,0,3.61,4.31l-.23,0a37.37,37.37,0,0,0,6-2.65,31.2,31.2,0,0,0,5.42-3.79,33.94,33.94,0,0,0,4.59-4.77c.7-.86,1.36-1.75,2-2.67A32.63,32.63,0,0,1,1353.67,1434.69Z"/><path class="cls-3" d="M1307,1365a32.57,32.57,0,0,0-1.82,2.79c-.59.94-1.21,1.87-1.88,2.76a35.31,35.31,0,0,1-4.53,4.94,30.42,30.42,0,0,1-5.46,3.89,33,33,0,0,1-6.14,2.72h0a.24.24,0,0,1-.22,0,14.07,14.07,0,0,1-3.75-4.53,19.32,19.32,0,0,1-1.93-5.51l-.24-1.44c0-.49-.08-1-.12-1.46a23.56,23.56,0,0,1-.05-2.91c0-1,.17-1.93.25-2.89l.49-2.86-.37,2.87c0,1-.12,1.93-.12,2.89a26.74,26.74,0,0,0,.56,5.72,20.72,20.72,0,0,0,2,5.35,13.62,13.62,0,0,0,3.6,4.32l-.23,0a36.29,36.29,0,0,0,6.06-2.66,30.7,30.7,0,0,0,5.41-3.78,35.16,35.16,0,0,0,4.6-4.77c.7-.87,1.36-1.76,2-2.67A32.52,32.52,0,0,1,1307,1365Z"/><path class="cls-3" d="M1246.15,1993.33a33.32,33.32,0,0,0-.33,3.32c-.09,1.11-.21,2.22-.39,3.32a34.75,34.75,0,0,1-1.74,6.47,30,30,0,0,1-3,6,33.06,33.06,0,0,1-4.19,5.25h0a.27.27,0,0,1-.22.08,14.09,14.09,0,0,1-5.41-2.29,19.05,19.05,0,0,1-4.26-4l-.88-1.16c-.27-.41-.52-.83-.78-1.24a25.18,25.18,0,0,1-1.39-2.55c-.41-.88-.75-1.8-1.12-2.69l-.88-2.76,1,2.72c.41.87.78,1.76,1.22,2.61a27,27,0,0,0,3.15,4.82,20.75,20.75,0,0,0,4.21,3.84,13.71,13.71,0,0,0,5.2,2.16l-.22.08a37.2,37.2,0,0,0,4.14-5.15,31.71,31.71,0,0,0,3.06-5.86,35.73,35.73,0,0,0,1.87-6.36c.22-1.09.39-2.18.53-3.29A30.83,30.83,0,0,1,1246.15,1993.33Z"/><path class="cls-3" d="M933.17,1270.32a112.11,112.11,0,0,0-4.74-10.27c-1.74-3.34-3.6-6.62-5.62-9.8a98.88,98.88,0,0,0-6.56-9.19,78.78,78.78,0,0,0-7.68-8.24.24.24,0,0,1,0-.34h0a167.91,167.91,0,0,0,11.92-12.81,146,146,0,0,0,10.49-14,95.93,95.93,0,0,0,8.32-15.38,70.77,70.77,0,0,0,2.9-8.25,52.42,52.42,0,0,0,1.59-8.61,55.43,55.43,0,0,1-4.22,17,96.58,96.58,0,0,1-8.24,15.49,150.32,150.32,0,0,1-22.44,27v-.35a79.81,79.81,0,0,1,7.68,8.34,101,101,0,0,1,6.52,9.27c2,3.2,3.86,6.49,5.53,9.88S931.84,1266.79,933.17,1270.32Z"/><path class="cls-3" d="M908.73,1232.64a10.66,10.66,0,0,1-2.41-2.09,12,12,0,0,1-1-1.22,14.75,14.75,0,0,1-.95-1.29l-.88-1.33-.8-1.39c-.55-.91-1-1.89-1.45-2.85a72.72,72.72,0,0,1-4.24-12c-.51-2.07-1-4.15-1.44-6.23s-.83-4.19-1.13-6.3-.64-4.21-.88-6.33l-.67-6.36.44,0a52.14,52.14,0,0,1-6.82,23.43,24.2,24.2,0,0,1-1.61,2.62c-.59.84-1.15,1.71-1.76,2.53a49.63,49.63,0,0,1-4.06,4.63,51,51,0,0,1-9.64,7.6.2.2,0,0,1-.26,0,46.08,46.08,0,0,1-5.67-9.77,67.85,67.85,0,0,1-3.66-10.67c-.39-1.84-.88-3.66-1.12-5.53-.14-.92-.31-1.85-.42-2.78l-.29-2.81-.14-1.4-.06-1.41-.12-2.81c0-1.88,0-3.76.05-5.64,0,1.88,0,3.76,0,5.63l.17,2.81L858,1193l.16,1.4.33,2.79c.12.93.31,1.85.46,2.77.28,1.86.76,3.67,1.16,5.5a69.63,69.63,0,0,0,3.69,10.6,45.84,45.84,0,0,0,5.66,9.64l-.26,0a50.05,50.05,0,0,0,9.51-7.58,48.53,48.53,0,0,0,4-4.6c.6-.81,1.15-1.67,1.73-2.51a23.69,23.69,0,0,0,1.58-2.6,51.42,51.42,0,0,0,4.79-11.18,50.37,50.37,0,0,0,2.06-12h0a.22.22,0,0,1,.23-.21.22.22,0,0,1,.21.2l.64,6.35c.22,2.11.57,4.21.85,6.32s.73,4.19,1.09,6.29.91,4.15,1.4,6.22a80,80,0,0,0,4.11,12.05c.46,1,.87,1.94,1.41,2.86l.77,1.4.86,1.34c.27.45.6.87.92,1.3a13.2,13.2,0,0,0,1,1.23A10.88,10.88,0,0,0,908.73,1232.64Z"/><path class="cls-3" d="M841,1264.65a50.89,50.89,0,0,0,19.31-15.7l.94-1.26c.31-.42.56-.88.84-1.32.53-.9,1.12-1.77,1.62-2.69a44.36,44.36,0,0,0,2.56-5.72l.54-1.47a8.36,8.36,0,0,0,.48-1.49l.78-3a23.14,23.14,0,0,0,.56-3.08l.45-3.11a.28.28,0,0,1,.55,0c.13,2,.16,4.12.37,6.16l.43,3.06.21,1.53.35,1.51.7,3c.29,1,.64,2,1,2.93l.48,1.47.61,1.42c.42.94.78,1.91,1.25,2.83a46,46,0,0,0,6.88,10.22,37.69,37.69,0,0,0,9.43,8,38.13,38.13,0,0,1-9.63-7.76,46.31,46.31,0,0,1-7-10.25c-.48-.92-.85-1.89-1.28-2.84l-.62-1.42-.5-1.48c-.33-1-.68-2-1-3l-.73-3-.36-1.52-.23-1.54-.46-3.08c-.22-2.06-.27-4.14-.41-6.22l.55,0-.48,3.13a21.86,21.86,0,0,1-.59,3.11l-.8,3.06a9.89,9.89,0,0,1-.5,1.51l-.56,1.48a45.16,45.16,0,0,1-2.63,5.75c-.51.92-1.1,1.8-1.65,2.7-.29.44-.54.91-.86,1.33l-1,1.26A48.53,48.53,0,0,1,841,1264.65Z"/><path class="cls-3" d="M899.64,1377.69a11,11,0,0,1-2.76-1.59,14.78,14.78,0,0,1-1.24-1,15,15,0,0,1-1.17-1.08l-1.12-1.14-1-1.22c-.72-.79-1.33-1.67-2-2.52a73.31,73.31,0,0,1-6.46-11c-.89-1.93-1.78-3.87-2.59-5.84s-1.61-4-2.3-6-1.44-4-2.07-6l-1.87-6.11.43-.11a52.17,52.17,0,0,1-2.24,24.3,26.24,26.24,0,0,1-1.09,2.88c-.42.94-.8,1.9-1.25,2.82a49.36,49.36,0,0,1-3.1,5.31,50.84,50.84,0,0,1-8,9.3.21.21,0,0,1-.27,0,46.22,46.22,0,0,1-7.42-8.51,70.33,70.33,0,0,1-5.62-9.78c-.73-1.74-1.55-3.43-2.15-5.22-.31-.89-.66-1.76-.94-2.66l-.82-2.7-.4-1.35-.33-1.37-.65-2.74c-.39-1.83-.68-3.69-1-5.54.37,1.84.68,3.7,1.1,5.52l.7,2.73.34,1.36.43,1.35.85,2.68c.3.88.65,1.75,1,2.63.63,1.77,1.44,3.46,2.18,5.18a69.44,69.44,0,0,0,5.64,9.7,45.88,45.88,0,0,0,7.39,8.39h-.27a50.54,50.54,0,0,0,7.9-9.25,49.38,49.38,0,0,0,3.05-5.27c.43-.92.8-1.87,1.21-2.8a23.75,23.75,0,0,0,1.06-2.85,51.93,51.93,0,0,0,2.58-11.89,49.88,49.88,0,0,0-.26-12.15h0a.23.23,0,0,1,.19-.25.22.22,0,0,1,.25.16l1.83,6.11c.62,2,1.36,4,2,6s1.52,4,2.27,6,1.68,3.9,2.56,5.84a80.47,80.47,0,0,0,6.32,11c.63.86,1.22,1.74,1.93,2.54l1,1.23,1.1,1.15c.35.39.76.74,1.15,1.1a13.18,13.18,0,0,0,1.22,1A10.68,10.68,0,0,0,899.64,1377.69Z"/><path class="cls-3" d="M839.17,1422a50.75,50.75,0,0,0,16-19.08l.68-1.42c.23-.47.38-1,.58-1.46.35-1,.76-1.94,1.08-2.94a47.36,47.36,0,0,0,1.43-6.1l.25-1.55a10.1,10.1,0,0,0,.19-1.55l.18-3.13a23.36,23.36,0,0,0,0-3.13l-.15-3.13a.29.29,0,0,1,.27-.29.27.27,0,0,1,.28.21c.52,2,.94,4,1.53,6l1,2.92.5,1.46.63,1.41,1.26,2.83c.47.91,1,1.8,1.49,2.7l.75,1.35.87,1.28c.59.84,1.13,1.73,1.76,2.53a46.46,46.46,0,0,0,8.7,8.74,37.86,37.86,0,0,0,10.77,6,37.88,37.88,0,0,1-10.93-5.79,46.5,46.5,0,0,1-8.83-8.73c-.65-.81-1.19-1.7-1.8-2.54l-.88-1.29-.77-1.35c-.5-.91-1-1.8-1.52-2.72l-1.29-2.83-.65-1.42-.51-1.47-1-2.94c-.61-2-1.06-4-1.59-6l.54-.08.13,3.16a22.36,22.36,0,0,1,0,3.17l-.21,3.16a8.33,8.33,0,0,1-.2,1.57l-.27,1.56a45.15,45.15,0,0,1-1.49,6.15c-.32,1-.74,2-1.11,3-.2.49-.36,1-.59,1.47l-.7,1.42A48.36,48.36,0,0,1,839.17,1422Z"/><path class="cls-3" d="M928.75,1517.83a11.24,11.24,0,0,1-4-1.64l-.92-.58L923,1515c-.6-.41-1.13-.9-1.7-1.36a50.19,50.19,0,0,1-6-6.31c-.88-1.15-1.77-2.29-2.61-3.47s-1.68-2.37-2.44-3.6-1.57-2.44-2.3-3.69l-2.18-3.76.4-.2a34,34,0,0,1,2.1,8.1,33.5,33.5,0,0,1,.14,8.37,30,30,0,0,1-1.93,8.13,34.84,34.84,0,0,1-3.91,7.39.2.2,0,0,1-.26.07,31.21,31.21,0,0,1-6.22-4.52,46.28,46.28,0,0,1-5.21-5.63,49.47,49.47,0,0,1-4.19-6.42c-.66-1.09-1.15-2.28-1.74-3.41s-1-2.35-1.5-3.52c.53,1.16,1,2.34,1.58,3.48s1.13,2.29,1.81,3.37a57.37,57.37,0,0,0,4.27,6.32,47.23,47.23,0,0,0,5.22,5.55,30.89,30.89,0,0,0,6.16,4.4l-.26.07A34.31,34.31,0,0,0,906,1517a32.63,32.63,0,0,0,1.2-4,33,33,0,0,0,.64-4.08,35.49,35.49,0,0,0-.1-8.24,33.68,33.68,0,0,0-2-8h0a.22.22,0,0,1,.4-.2l2.14,3.77c.72,1.25,1.51,2.46,2.27,3.69s1.6,2.4,2.4,3.61,1.7,2.33,2.58,3.48a56.75,56.75,0,0,0,5.85,6.36c.55.47,1.07,1,1.66,1.39l.86.66.9.59A11.09,11.09,0,0,0,928.75,1517.83Z"/><path class="cls-3" d="M933.22,1487.18a11.24,11.24,0,0,1-4-1.64l-.92-.58-.88-.64c-.59-.41-1.13-.9-1.69-1.36a48.79,48.79,0,0,1-6-6.31c-.89-1.15-1.78-2.3-2.62-3.47s-1.67-2.37-2.44-3.6-1.57-2.44-2.3-3.69l-2.17-3.76.39-.2a35.24,35.24,0,0,1,2.25,16.47,36.31,36.31,0,0,1-.69,4.13,30.9,30.9,0,0,1-1.25,4,34.39,34.39,0,0,1-3.91,7.39.2.2,0,0,1-.26.07,31.91,31.91,0,0,1-6.22-4.52,47.1,47.1,0,0,1-5.21-5.63,49,49,0,0,1-4.18-6.42c-.66-1.1-1.16-2.28-1.74-3.41s-1-2.35-1.51-3.52c.53,1.16,1,2.34,1.58,3.48s1.13,2.29,1.81,3.37a56.4,56.4,0,0,0,4.28,6.31,45.63,45.63,0,0,0,5.21,5.55,30.82,30.82,0,0,0,6.16,4.41l-.26.07a34.26,34.26,0,0,0,5-11.26,37.61,37.61,0,0,0,.64-4.08,35.49,35.49,0,0,0-.11-8.24,33.66,33.66,0,0,0-2-8h0a.21.21,0,0,1,.12-.28.22.22,0,0,1,.28.09l2.14,3.77c.72,1.25,1.51,2.46,2.26,3.69s1.6,2.4,2.4,3.61,1.71,2.33,2.58,3.47a55.15,55.15,0,0,0,5.86,6.36c.54.47,1.07,1,1.65,1.4l.86.65.9.6A11.28,11.28,0,0,0,933.22,1487.18Z"/><path class="cls-3" d="M895.48,1556.38a34.51,34.51,0,0,0,7.58-15.09,16.34,16.34,0,0,0,.38-2.09c.08-.7.21-1.4.27-2.1a31.72,31.72,0,0,0,0-4.25,33.3,33.3,0,0,0-1.6-8.31.28.28,0,0,1,.52-.2c.65,1.23,1.23,2.5,1.93,3.72l1.1,1.77.56.89.63.83,1.26,1.68c.45.53.93,1,1.4,1.55l.7.78.76.71c.52.47,1,1,1.55,1.42a31.43,31.43,0,0,0,7.05,4.48,25.58,25.58,0,0,0,8,2.37,25.57,25.57,0,0,1-8.13-2.12,31.84,31.84,0,0,1-7.22-4.41c-.55-.43-1-.93-1.59-1.4l-.78-.72-.71-.78c-.48-.52-1-1-1.43-1.57l-1.29-1.69-.64-.84-.57-.89-1.13-1.8c-.71-1.22-1.31-2.5-2-3.75l.51-.21a34,34,0,0,1,1.58,8.47,31,31,0,0,1-.05,4.31,30.62,30.62,0,0,1-.7,4.25,33.13,33.13,0,0,1-8,15Z"/><path class="cls-3" d="M930.38,1145.76a57.53,57.53,0,0,0-13.45,6.54,59.84,59.84,0,0,0-11.44,9.61,56.8,56.8,0,0,0-4.66,5.84,55.58,55.58,0,0,0-3.81,6.44,58.2,58.2,0,0,0-4.8,14.11.27.27,0,0,1-.32.22.27.27,0,0,1-.22-.28v0c.1-2.45.32-4.9.33-7.35l-.13-3.68-.07-1.84-.23-1.83-.45-3.65c-.23-1.21-.51-2.4-.77-3.61l-.39-1.8-.54-1.75c-.38-1.17-.69-2.36-1.13-3.51a55.37,55.37,0,0,0-6.89-13,45.1,45.1,0,0,0-10.21-10.56,45,45,0,0,1,10.43,10.41,55.14,55.14,0,0,1,7,13c.46,1.15.77,2.35,1.16,3.52l.56,1.77.41,1.81c.26,1.21.56,2.41.79,3.62l.48,3.68.24,1.84.08,1.85.15,3.71c0,2.47-.19,4.93-.28,7.4l-.55-.08a58.12,58.12,0,0,1,4.93-14.21,53.71,53.71,0,0,1,8.61-12.32,59.39,59.39,0,0,1,11.56-9.59A57.77,57.77,0,0,1,930.38,1145.76Z"/><path class="cls-3" d="M866.06,1162a25.8,25.8,0,0,0-.28,3c-.08,1-.19,2-.35,3.06a32.69,32.69,0,0,1-1.56,6,27.09,27.09,0,0,1-2.77,5.51,30.83,30.83,0,0,1-3.83,4.85h0a.26.26,0,0,1-.22.07,12.9,12.9,0,0,1-5-2.08,17.41,17.41,0,0,1-3.94-3.67l-.81-1.07c-.25-.37-.48-.75-.72-1.13a24.27,24.27,0,0,1-1.29-2.34c-.38-.81-.69-1.65-1-2.47l-.81-2.54.93,2.49c.39.8.73,1.62,1.14,2.4a24.61,24.61,0,0,0,2.92,4.41,18.75,18.75,0,0,0,3.89,3.5,12.24,12.24,0,0,0,4.78,2l-.22.08a34,34,0,0,0,3.78-4.75,28.05,28.05,0,0,0,2.78-5.39,31.35,31.35,0,0,0,1.7-5.85c.2-1,.36-2,.48-3A28.15,28.15,0,0,1,866.06,1162Z"/><path class="cls-3" d="M950.76,1120.75a37.09,37.09,0,0,0-1.76,3.51c-.57,1.19-1.17,2.35-1.84,3.49a40.25,40.25,0,0,1-4.62,6.39,35.1,35.1,0,0,1-5.85,5.31,39.87,39.87,0,0,1-6.81,4h0a.23.23,0,0,1-.23,0,16.47,16.47,0,0,1-5-4.76,22.73,22.73,0,0,1-3-6.18l-.49-1.65c-.13-.55-.23-1.12-.35-1.68a32,32,0,0,1-.47-3.4c-.08-1.14-.07-2.28-.11-3.42l.17-3.42,0,3.42c.09,1.13.12,2.27.25,3.4s.25,2.26.54,3.35c.13.56.24,1.11.38,1.66l.52,1.62a24.1,24.1,0,0,0,3,6,16,16,0,0,0,4.83,4.57h-.23a43.6,43.6,0,0,0,6.73-4c1.08-.73,2-1.61,3.05-2.44s1.9-1.79,2.77-2.76a40.51,40.51,0,0,0,4.71-6.24c.69-1.11,1.34-2.24,2-3.4A37.17,37.17,0,0,1,950.76,1120.75Z"/><path class="cls-3" d="M958,1108.05a112.7,112.7,0,0,0-2.16-11.1c-.9-3.66-1.92-7.29-3.13-10.86a97.74,97.74,0,0,0-4.18-10.48,78.25,78.25,0,0,0-5.5-9.84.24.24,0,0,1,.07-.33h0a168.14,168.14,0,0,0,14.63-9.6,145.35,145.35,0,0,0,13.52-11.11,96.77,96.77,0,0,0,11.74-13,67.73,67.73,0,0,0,4.78-7.33,52,52,0,0,0,3.6-8,55.69,55.69,0,0,1-8.14,15.48A96.78,96.78,0,0,1,971.51,1045a150.76,150.76,0,0,1-28.21,20.83l.08-.34a79.47,79.47,0,0,1,5.48,9.94A101.59,101.59,0,0,1,953,1086c1.17,3.59,2.2,7.23,3,10.91S957.51,1104.31,958,1108.05Z"/><path class="cls-3" d="M943.19,1065.64a11,11,0,0,1-1.84-2.6,12.82,12.82,0,0,1-.71-1.44c-.21-.48-.44-1-.61-1.47l-.54-1.51-.44-1.54c-.32-1-.5-2.07-.74-3.11a74.19,74.19,0,0,1-1.25-12.72c0-2.13,0-4.26.09-6.39s.19-4.26.41-6.38.37-4.25.65-6.36l.85-6.34.44.09a50.16,50.16,0,0,1-4.85,11.29,49.39,49.39,0,0,1-7.35,9.84,24.8,24.8,0,0,1-2.19,2.16c-.77.68-1.52,1.39-2.31,2a50.07,50.07,0,0,1-5,3.53,51.52,51.52,0,0,1-11.18,5.09.19.19,0,0,1-.24-.11,46.28,46.28,0,0,1-3.19-10.83,69.36,69.36,0,0,1-1-11.23c.06-1.88,0-3.77.23-5.64.08-.93.14-1.87.25-2.81l.39-2.79.2-1.39.28-1.39.55-2.76c.41-1.83.93-3.64,1.39-5.46-.43,1.83-.92,3.64-1.31,5.48l-.51,2.77-.25,1.38-.18,1.39-.35,2.8c-.1.93-.14,1.87-.21,2.8-.17,1.87-.13,3.74-.18,5.62a69.82,69.82,0,0,0,1.06,11.17,46.11,46.11,0,0,0,3.21,10.71l-.25-.11a50.07,50.07,0,0,0,11-5.1,50.73,50.73,0,0,0,5-3.51c.77-.66,1.51-1.36,2.27-2a24.35,24.35,0,0,0,2.16-2.15,52,52,0,0,0,7.3-9.72,49.74,49.74,0,0,0,4.86-11.15h0a.22.22,0,0,1,.43.09l-.88,6.32c-.29,2.1-.45,4.23-.69,6.34s-.28,4.24-.43,6.36-.11,4.25-.12,6.38a80.55,80.55,0,0,0,1.12,12.69c.22,1,.38,2.09.69,3.11l.41,1.54.52,1.5a14.71,14.71,0,0,0,.59,1.48,11.86,11.86,0,0,0,.68,1.44A10.77,10.77,0,0,0,943.19,1065.64Z"/><path class="cls-3" d="M869.74,1080.59a50.72,50.72,0,0,0,22.49-10.65l1.21-1c.4-.33.75-.73,1.13-1.09.74-.74,1.51-1.45,2.21-2.22a45.79,45.79,0,0,0,3.85-4.94l.88-1.3a10.11,10.11,0,0,0,.82-1.33l1.48-2.77a22.2,22.2,0,0,0,1.27-2.86l1.18-2.9a.28.28,0,0,1,.36-.15.26.26,0,0,1,.17.3c-.36,2-.82,4-1.11,6.08l-.31,3.07-.16,1.54v1.54l0,3.09c.05,1,.15,2,.22,3.08l.12,1.54.25,1.53c.19,1,.3,2,.54,3a46.48,46.48,0,0,0,4.25,11.57,37.9,37.9,0,0,0,7.27,10,37.92,37.92,0,0,1-7.51-9.83,46.05,46.05,0,0,1-4.36-11.62c-.25-1-.38-2-.57-3.06l-.27-1.54-.13-1.55c-.08-1-.19-2.07-.25-3.1v-4.68l.15-1.55.29-3.1c.27-2,.72-4.09,1.07-6.13l.53.15-1.2,2.93a23.39,23.39,0,0,1-1.32,2.88l-1.51,2.78a9.83,9.83,0,0,1-.84,1.35l-.9,1.3a43.58,43.58,0,0,1-3.92,5c-.71.78-1.5,1.49-2.25,2.23-.38.36-.74.75-1.15,1.09l-1.23,1a48,48,0,0,1-10.69,6.69A48.52,48.52,0,0,1,869.74,1080.59Z"/><path class="cls-3" d="M913.74,1298.58c-.39.94-.57,2-.87,2.93s-.57,2-.93,2.93a31.53,31.53,0,0,1-2.7,5.54,27.09,27.09,0,0,1-3.79,4.87,30.48,30.48,0,0,1-4.71,4h0a.24.24,0,0,1-.23,0,12.94,12.94,0,0,1-4.49-3,17.72,17.72,0,0,1-3.14-4.36l-.59-1.21c-.17-.41-.33-.84-.49-1.25a23,23,0,0,1-.8-2.56c-.22-.86-.35-1.75-.53-2.62l-.31-2.65.43,2.63c.22.86.4,1.73.65,2.58a24.51,24.51,0,0,0,2,4.89,18.68,18.68,0,0,0,3.13,4.2,12.48,12.48,0,0,0,4.3,2.85l-.23,0a34,34,0,0,0,4.64-3.92,28.48,28.48,0,0,0,3.78-4.75,31.1,31.1,0,0,0,2.81-5.4c.39-.94.75-1.9,1.07-2.87A29,29,0,0,1,913.74,1298.58Z"/><path class="cls-3" d="M938.87,1603.08c-.25,1-.28,2-.43,3s-.28,2-.5,3a32.54,32.54,0,0,1-1.85,5.87,27.64,27.64,0,0,1-3.05,5.37A30.55,30.55,0,0,1,929,1625h0a.3.3,0,0,1-.22.06,12.94,12.94,0,0,1-4.89-2.33,17.78,17.78,0,0,1-3.74-3.86l-.76-1.11c-.23-.38-.44-.78-.67-1.16-.46-.77-.78-1.61-1.16-2.41s-.61-1.68-.91-2.52l-.69-2.58.81,2.54c.34.82.65,1.65,1,2.45a24.76,24.76,0,0,0,2.69,4.55,18.85,18.85,0,0,0,3.71,3.7,12.5,12.5,0,0,0,4.67,2.19l-.23.07a33.39,33.39,0,0,0,4-4.55,28.68,28.68,0,0,0,3.06-5.25,32.32,32.32,0,0,0,2-5.75q.36-1.48.63-3A28,28,0,0,1,938.87,1603.08Z"/><path class="cls-3" d="M947,1694.26c-.25,1-.28,2-.43,3s-.28,2-.5,3a32.1,32.1,0,0,1-1.85,5.88,27.94,27.94,0,0,1-3.05,5.37,31,31,0,0,1-4.07,4.64h0a.23.23,0,0,1-.22.06A12.68,12.68,0,0,1,932,1714a17.33,17.33,0,0,1-3.75-3.85l-.76-1.11c-.23-.39-.44-.78-.66-1.17a23.29,23.29,0,0,1-1.17-2.41c-.34-.83-.61-1.68-.91-2.51l-.69-2.58.81,2.54c.34.81.65,1.65,1,2.45a24.35,24.35,0,0,0,2.69,4.54,18.58,18.58,0,0,0,3.71,3.7,12.37,12.37,0,0,0,4.67,2.2l-.22.07a34.64,34.64,0,0,0,4-4.55,29,29,0,0,0,3.06-5.25,32.42,32.42,0,0,0,2-5.76c.25-1,.46-2,.63-3S946.68,1695.24,947,1694.26Z"/><path class="cls-3" d="M1639,1077.38c-.52,1.45-.86,3-1.45,4.42a24.36,24.36,0,0,1-2.13,4.16,21,21,0,0,1-3,3.62,23,23,0,0,1-3.65,3h0a.25.25,0,0,1-.22,0,9.76,9.76,0,0,1-3.36-2.39,13.18,13.18,0,0,1-2.3-3.39,18.72,18.72,0,0,1-1.31-3.84c-.14-.66-.22-1.33-.34-2l-.16-2,.3,2c.15.65.27,1.31.45,2a18.22,18.22,0,0,0,1.43,3.72,14.33,14.33,0,0,0,2.28,3.22,9.37,9.37,0,0,0,3.18,2.23l-.23,0a26.64,26.64,0,0,0,3.58-2.87,21.53,21.53,0,0,0,3-3.5,23.63,23.63,0,0,0,2.25-4c.32-.7.61-1.41.87-2.14A21.14,21.14,0,0,1,1639,1077.38Z"/><path class="cls-3" d="M1708.45,1061.08a29.48,29.48,0,0,0-1.87,2.31c-.62.79-1.25,1.55-1.93,2.28a30.74,30.74,0,0,1-4.48,4,26.81,26.81,0,0,1-5.21,3,30.67,30.67,0,0,1-5.71,1.84h0a.25.25,0,0,1-.22-.06,12.47,12.47,0,0,1-2.9-4.38,16.89,16.89,0,0,1-1.2-5.08l-.07-1.31,0-1.3a22.46,22.46,0,0,1,.24-2.59c.13-.86.33-1.7.5-2.55l.71-2.49-.59,2.52c-.12.85-.29,1.7-.37,2.55a23.78,23.78,0,0,0,0,5.13,18.21,18.21,0,0,0,1.24,4.93,12.27,12.27,0,0,0,2.8,4.15l-.23,0a33.7,33.7,0,0,0,5.62-1.79,27.89,27.89,0,0,0,5.16-2.84,31,31,0,0,0,4.52-3.8c.7-.7,1.38-1.43,2-2.18A29.62,29.62,0,0,1,1708.45,1061.08Z"/><path class="cls-3" d="M1802.51,1015a26.82,26.82,0,0,0-3,.12c-1,0-2,.08-3,0a30.47,30.47,0,0,1-5.93-.76,26.93,26.93,0,0,1-5.66-2,30,30,0,0,1-5.14-3.08h0a.21.21,0,0,1-.1-.2,12.4,12.4,0,0,1,1.38-5.07,16.9,16.9,0,0,1,3-4.25l.92-.92,1-.84a23.93,23.93,0,0,1,2.1-1.53c.73-.46,1.5-.86,2.25-1.3l2.34-1.1-2.28,1.21c-.72.47-1.46.91-2.16,1.4a24,24,0,0,0-3.88,3.36,18.31,18.31,0,0,0-2.88,4.18,12.12,12.12,0,0,0-1.29,4.84l-.11-.21a32.82,32.82,0,0,0,5,3.05,27.4,27.4,0,0,0,5.54,2,30.31,30.31,0,0,0,5.85.9c1,.07,2,.1,3,.09A29.62,29.62,0,0,1,1802.51,1015Z"/><path class="cls-3" d="M1830.83,982a29.81,29.81,0,0,0-3,.12c-1,.05-2,.08-3,.05a31.25,31.25,0,0,1-5.93-.75,26.4,26.4,0,0,1-5.66-2,29.86,29.86,0,0,1-5.15-3.08h0a.25.25,0,0,1-.1-.2,12.5,12.5,0,0,1,1.39-5.07,17,17,0,0,1,3-4.25l.93-.91,1-.84a24.61,24.61,0,0,1,2.1-1.54c.73-.46,1.5-.86,2.25-1.3l2.34-1.1-2.28,1.21c-.73.47-1.47.91-2.17,1.4a24.37,24.37,0,0,0-3.87,3.36,18.2,18.2,0,0,0-2.89,4.19,12,12,0,0,0-1.28,4.83l-.11-.2a34,34,0,0,0,5,3,28,28,0,0,0,5.54,2,31.14,31.14,0,0,0,5.84.91c1,.06,2,.09,3,.08S1829.84,981.91,1830.83,982Z"/><path class="cls-8" d="M1910.18,1086.86a199.13,199.13,0,0,1,48.35,17.15c14.42,7.34,31.65,23.57,46.09,45.25s26.79,47.78,35.83,75.74c4.51,14,8.36,28.44,11.62,43.13,3.08,14.76,5.5,29.77,7.33,44.92s2.69,30.52,3.14,45.9c.2,15.39.06,30.83-1,46.25s-2.58,30.83-5,46.12c-1,7.67-2.57,15.27-3.95,22.89l-5.17,26.45c-1.31,6.79-2.56,13.49-3.84,20.24a370.76,370.76,0,0,0,119.55-36.51c9.75-4.91,20.6-16.91,13-24.72-3-3.07-7.67-3.58-11.95-3.91l-96.35-7.41a336.61,336.61,0,0,0,98.14-46.07c7.57-5.2,15.21-11,19.19-19.3s3-19.62-4.44-25c-4.61-3.28-10.59-3.69-16.24-3.94q-46.95-2.1-94-.23a558.56,558.56,0,0,0,126.5-57.82c8.2-5.06,17.43-14,13.2-22.67-2.79-5.71-10-7.4-16.28-8.37a960.24,960.24,0,0,0-136.64-11.11c40.21-13.18,84.19-29.41,104.16-66.71,1.54-2.87,2.9-6.42,1.29-9.25-1.27-2.24-4-3.2-6.47-3.76-23.2-5.27-46.12,7.44-68.52,15.45s-52.37,9-64.85-11.22a221.65,221.65,0,0,0,66.89-61.38c5.36-7.5,10.47-16.69,7.73-25.49-2.54-8.19-11.49-13.11-20.06-13.36s-16.8,3.26-24.36,7.3a162.11,162.11,0,0,0-51.06,42.88,179.57,179.57,0,0,0,27.82-84.79c.5-7.75.06-16.57-5.76-21.7-10.44-9.21-26.41,1.32-35,12.26a194.54,194.54,0,0,0-32.16,60.22,94.9,94.9,0,0,0-3.56-48.6c-3.15-9.08-11-19.22-20.17-16.39-5.3,1.64-8.36,7.06-10.62,12.13A154.4,154.4,0,0,0,1910.18,1086.86Z"/><path class="cls-8" d="M1764,1462.64c-13.86-24.14-23.81-50.82-30.44-79.94a440.74,440.74,0,0,1-8.94-52.48c-15.61,4.43-32.28,24.71-16.62,37.79,19,15.86,8.49,14.83,3.66,34.38-4.72,19.1,1.65,31.53,23.41,27.66,2.68-.48,5-3.14,7.73-1.77.25,2.38-5.77,7.09-7.27,9.54-4.52,7.39-17.55,30.51-9.85,39.21,9,10.16,28.25-1.54,42.86-6.8C1767,1467.72,1765.43,1465.2,1764,1462.64Z"/><path class="cls-8" d="M1846.48,1055.39c-2.5,10.29,0,21,2.63,31.32a135.79,135.79,0,0,1,39-3,153.9,153.9,0,0,1,18.24,2.31c-16.85-11.82-15.15-46.48-36.2-49.68C1859.16,1034.72,1849.1,1044.59,1846.48,1055.39Z"/><path class="cls-8" d="M1869.4,1561.36c1.67,10.88,6.24,21.25,18,20.82,5.63-.2,10.72-2.87,15.37-6.22-4-1.52-8.08-3-12-4.62Q1879.82,1566.72,1869.4,1561.36Z"/><path class="cls-8" d="M1724.5,1329.47c-1.32-12.49-2.08-24.91-2.15-37.16-.75-59,15.13-114.92,45.94-153.27.41-.53.85-1,1.27-1.52a78.69,78.69,0,0,0-62.13-3.2,262.25,262.25,0,0,0,38.94,35.59,85.33,85.33,0,0,0-40.46,6.43c-5.79,2.45-11.73,6-14,11.88-3.32,8.64,3.23,18.54,11.72,22.23s18.18,2.83,27.39,1.91a161.79,161.79,0,0,0-43.12,20.41c-2.38,1.6-4.82,3.37-6.11,5.93-3.38,6.76,2.86,14.48,9.46,18.19,30.8,17.31-5.61,22.41,3.42,50.59C1698.72,1320.05,1711.38,1329.09,1724.5,1329.47Z"/><path class="cls-8" d="M1792,1078.2c1.93,10.22,7.75,19.51,8.75,29.86-8.09-17.39-28.32-28.24-47.29-25.37-2.76.42-5.64,1.18-7.58,3.2-3.9,4-2.14,10.71.18,15.82a133.11,133.11,0,0,0,23.71,35.59c21.31-26.35,48.63-43.59,78.75-50.46a100.7,100.7,0,0,0-29.21-28.69c-4.39-2.8-9.4-5.34-14.56-4.66C1794.41,1054.85,1790,1068,1792,1078.2Z"/><path class="cls-8" d="M2159.12,1549.2c-3.12-3.83-8.36-5-13.2-6l-102.62-21q-6.87,36.18-13.56,71.82c39.18,10.14,82.57,4.21,117-17.21C2156.47,1570.7,2166.37,1558.07,2159.12,1549.2Z"/><path class="cls-8" d="M1847.46,1563.85c5.35-1.09,9.16-4,12.33-7.63a265.46,265.46,0,0,1-43.15-29.82c-2-1.71-4-3.47-5.89-5.24C1810,1535.83,1828.92,1567.65,1847.46,1563.85Z"/><path class="cls-8" d="M1780.2,1518.44c8.32,3.8,17.13.84,25.7-1.82a236.28,236.28,0,0,1-32-38c-2.75,5-5.1,10.21-5.66,15.71C1767.29,1503.84,1771.47,1514.45,1780.2,1518.44Z"/><path class="cls-8" d="M1302.84,1937.46c-.07.75-.21,1.47-.21,2.25a31.75,31.75,0,0,0,1.29,8.78C1303.49,1944.83,1303.2,1941.13,1302.84,1937.46Z"/><path class="cls-8" d="M1338.3,2079.5c-10.69,9.64-23.72,19.47-8.38,32.91,8.07,7.08,18.91,9.43,29.42,8.83a380.94,380.94,0,0,1-20.47-40.32C1338.67,2080.45,1338.5,2080,1338.3,2079.5Z"/><path class="cls-8" d="M1596,2268.85c22.32,9.27,19.28,41.5,31.74,58.53,5.71,7.82,15.48,13.48,25,11.49,26.63-5.57,41.35-65.2,30.27-90.2,9.2,19.13,15.33,66,33.26,69,34.81,5.83,26.73-78.37,26.66-95.73,0-3.77-.45-7.23,1.06-10.26,17.49,23.18,17.74,58.23,22.16,85.83.47,3,1.16,6.3,3.68,8s6.12.88,9-.27c24.4-9.64,35.33-34.93,36.08-59.78.49-16.14,1.12-47.77-14.46-58.2,17.4,11.62,30.4,35.14,38.74,54.2,5,11.48,11.9,45.4,31.73,27,5.31-4.93,7.53-12.37,8.38-19.56,4.13-35-16.87-72.19-35.64-100.39,23.56,35.4,63,70.36,108.21,67.83,4.32-.24,9.29-1.2,11.33-5,1.7-3.19.64-7.11-.71-10.47-16.8-41.82-65.65-57.72-85-97.81,9.56,19.84,57.75,22.31,75.37,32.85,12,7.18,22.31,18.67,36.52,21.39,29.29,5.6,28.58-25.08,17-41.35-19.05-26.76-43.87-77.59-80.1-83.7,34.79,5.87,64.36,28.56,98,39.38,6.18,2,13.15,3.51,19,.6,6.69-3.35,9.53-11.77,8.62-19.19-3.29-26.82-29.54-44.89-47.84-61.41-13.5-12.18-24.75-28.4-40.7-37.68,20.08,11.67,82.3,58.62,104.28,39.26,17.52-15.43-1-47.54-11.25-62.24-3.52-5-8.2-9.1-12.83-13.1-15.41-13.31-34.61-26.21-47.07-42.1,17.93-18.73,76.28,27.34,98.85,30.16,5,.62,10.84.51,14.08-3.34,1.75-2.08,2.38-4.88,2.71-7.57,2.17-17.24-5.1-34.6-16-48.16-12.25-15.29-31.9-33.45-49.23-42.75-11.1-6-24.4-8-33.89-16.3,24.58.52,50.8,10.91,74.93,16.23,11.06,2.43,25.36,3.49,31-6.35,10.56-18.61-17.85-36-30.46-42.92q-28.36-15.63-57.6-29.61l-26.43.48c-1.64,4.39-2.9,7.73-3,7.71-13.46,60.07-28.85,118.85-47.59,175.16-21.24,63.38-47.19,123.78-80.38,175.72-16.58,25.93-34.94,49.6-55.12,70.05a335.75,335.75,0,0,1-31.5,28.28c-5.47,4.29-11.06,8.33-16.73,12.22l-8.61,5.61-9.81,5.86c-52.42,31.16-108.39,50.79-162,52.62a233.24,233.24,0,0,1-142.56-40.94q-13.27,25.11-26.57,50.22c-2.56,4.85-5.1,10.92-2.09,15.51,1.62,2.47,4.51,3.79,7.34,4.62,14.89,4.34,28.8-2.64,39-13.16,2.56-2.65,19.49-21.34,19.92-22.77-4.79,15.87-16.84,30.12-19.23,46.51-1.23,8.41,1.48,18,8.81,22.36,26.21,15.44,75.72-36.59,76.6-60.67a423.3,423.3,0,0,0,2.23,61.46c.72,6.56,1.72,13.43,5.69,18.71C1582.27,2371.91,1623.67,2280.36,1596,2268.85Zm86.71-20.72c-.22-.47-.46-.91-.7-1.35C1682.28,2247.2,1682.51,2247.67,1682.74,2248.13Z"/><path class="cls-8" d="M1446.82,2217.7c-1.79-1.23-3.58-2.43-5.34-3.71a265.58,265.58,0,0,1-39.14-34.64c-9.77,18.26-30.14,32.17-36.26,52.37-.78,2.56-1.35,5.71.53,7.61,1.16,1.18,2.92,1.48,4.55,1.68C1388.37,2243.08,1433.9,2235.12,1446.82,2217.7Z"/><path class="cls-8" d="M1335.26,2165.54c-.67,1.64-1.28,3.55-.41,5.08,1,1.72,3.25,2.07,5.21,2.19,16.79,1,33.82-4.79,49.86-7.61a333.35,333.35,0,0,1-26.1-36.52C1355,2141.09,1341.36,2150.85,1335.26,2165.54Z"/><path class="cls-8" d="M1335,2071.26a433.32,433.32,0,0,1-14.92-43.08c-8.53,6.62-15.78,15.12-13.9,25.2,1.47,7.91,8.62,13.79,16.32,16.15A45,45,0,0,0,1335,2071.26Z"/><path class="cls-8" d="M1305.55,1996.31c.58,6.34,5.11,23.75,13.27,27.65q-6-21.68-10.1-44.15C1307.07,1984.93,1305,1990.15,1305.55,1996.31Z"/><path class="cls-8" d="M830.13,1517.69c3.14-2.59,8.26-3.62,9.13-7.58,1-4.63-8.66-14.23-18.24-22.54q2.54,18.79,5.51,37.48A10.51,10.51,0,0,1,830.13,1517.69Z"/><path class="cls-8" d="M919.32,1977.38a74.91,74.91,0,0,0,16.34-6.77c9.1-5.31,16.86-13.91,18.59-24.3,3.78-22.65-18.26-28.54-36.21-29.66A347.55,347.55,0,0,1,919.32,1977.38Z"/><path class="cls-8" d="M850,1573c5.83-19.85-13.73-25.09-21.59-39.15a15,15,0,0,1-.78-1.68q4.51,27.84,9.94,55.45C843,1583.78,848,1580,850,1573Z"/><path class="cls-8" d="M715.69,1770.09c-12.28,3.69-31.77-.46-44.31-.87h-.8c-2.27,5.23-4.71,10.34-7.22,15.33,6.65,7.18,17.39,10.06,27.39,11.14,7.17.78,14.56,1,21.6,2.34C713.73,1788.88,714.87,1779.58,715.69,1770.09Z"/><path class="cls-8" d="M681.13,1995.7c-.66-14.38.59-30.26,2.77-46.53,1.93-14.29,4.56-28.88,7.5-43.73-11.5,1.71-33.23,8.84-42.12,8.66-9.63-.19-30.16-4.63-33,9.13-1.32,6.36,4.22,12.3,10.28,14.64,10.35,4,21.9,5,33.48,4.81a136.49,136.49,0,0,0-46.76,19.89c-2.88,1.93-5.72,4.15-7.5,7.07-.37,3.38-.72,6.77-1,10.23a18.3,18.3,0,0,0,7,9.18C630.22,2001.37,658.57,1999.09,681.13,1995.7Z"/><path class="cls-8" d="M741.05,2153.49c27.25,8.44,35.8-35.93,35.52-53.33,2.76,19.51,12.19,54.83,35.94,58.38,3.89.58,7.47-1.3,10.15-3.93,7.33-7.18,3.48-31.26,1.51-39.56,5,8.17,10.3,16.46,18.11,22,11.15,7.85,28.6,8.68,31.35-7.24,2.06-11.89-8.67-25.79-16.38-36.86a99.14,99.14,0,0,1-31.36,9.48c-25.3,3.55-53.52-2.12-78.14-14.78a144.88,144.88,0,0,1-33.86-24A127,127,0,0,1,700,2048.27c-1.15-1.4-2.21-2.86-3.24-4.33-11.37,12.14-25.67,65.73,3.37,61.56,6.2-.89,12.8-4.67,18.22-7.05C721.24,2115,720,2147,741.05,2153.49Z"/><path class="cls-8" d="M646.89,1857.52c-7.39,2.31-15.75,6-17.48,13.59-1.39,6,2.34,12.28,7.43,15.76,14.26,9.74,37.18,12.79,54.87,17,3.77-19,8-38.36,12-58.13,2.87-14.66,5.79-29.56,8.18-44.86-16.76,1.36-42.32,9.3-53,10.84-5.53.79-12.37,2.83-13.11,8.38-.64,4.82,4,8.57,8.26,11,14.67,8.17,30.93,12.09,47.22,14.32C683.52,1851,664.69,1852,646.89,1857.52Z"/><path class="cls-8" d="M716.85,1731.59c-7,1.72-14.12,2.35-21.34,3.54-6.31,1-13.75,3.33-15.39,9.5-1.28,4.79,1.89,9.86,6.14,12.4,8.65,5.16,20,5.5,29.75,9.16A320.78,320.78,0,0,0,716.85,1731.59Z"/><path class="cls-8" d="M701.53,1721c4.19,3.27,9.79,5,15.09,6.62a178.19,178.19,0,0,0-4.32-30.07c-6.6-.1-13.14,1.37-15.91,7S696.61,1717.13,701.53,1721Z"/><path class="cls-8" d="M694,2039.87l-2.78-4.36-1.9-3.28c-4.43-8.35-7.16-20.16-8-33.68-21.78,9.63-43.26,22.43-50.3,44.52-1.25,3.89-1.89,8.43.37,11.84,1.73,2.61,4.8,4,7.78,4.91,21,6.63,41.21-3.25,57.53-16C695.76,2042.49,694.87,2041.18,694,2039.87Z"/><path class="cls-8" d="M947.74,1873.39c-3.43-9-13.74-13.22-23.24-14.81-5.64-.94-11.21-1.47-16.64-2.65,3.42,15.22,6.3,30.42,8.4,45.54q.76,5.67,1.39,11.33c8.94-5.3,22.79-14.87,25.2-17.78C947.81,1889.06,950.51,1880.63,947.74,1873.39Z"/><path class="cls-8" d="M917.55,1994.35c-4,29.18-13.89,55.23-29.37,74a93.48,93.48,0,0,1-28.68,23.45c15.78,9.37,50.31,14.49,54.06-1.43,1.32-5.61-2.81-11.07-7.41-14.56s-10-6.12-13.34-10.85c12.88.33,29.6-1.88,41.31-8,24.39-12.83,14-16.54-.23-26.44-5.25-3.67-16.83-8.17-19.22-14.33A60.93,60.93,0,0,0,958,2007c2.95-2,5.89-4.38,6.88-7.78,3.8-13-26.78-17.21-45.8-18.18C918.65,1985.54,918.18,1990,917.55,1994.35Z"/><path class="cls-8" d="M870.18,1705.08a31.06,31.06,0,0,0,12.68-28c-1.24-12-9.83-20.59-19.47-26.45,5.15-9.11,7.47-20.51,3.44-30.55-4.41-11-17.29-19.39-28-25.92q10.68,53.32,24.56,105.8,7.06,26.88,15,53.51,3.93,13.34,8.18,26.56l4.64,14.73c10.18-5.23,20.23-10.44,29.54-17.26,2.37-1.74,4.93-4,4.8-7-.15-3.37-3.68-5.42-6.75-6.83q-18.9-8.67-37.86-17.18c3.48-7.14,14.75-7.1,18.74-14,2.8-4.83.6-11.32-3.52-15.11C889.07,1710.91,878.19,1710.29,870.18,1705.08Z"/><path class="cls-8" d="M939.66,1824.49c2.14-18.7-30.6-24.25-47.39-26.48l2.15,6.83q6.62,22,11.83,44.18c7.84-3,15.78-6.44,22.83-11.1C934,1834.67,939,1830.34,939.66,1824.49Z"/></g></g></svg>